<?xml version="1.0" encoding="utf-8"?>
<!-- Generator: Adobe Illustrator 27.2.0, SVG Export Plug-In . SVG Version: 6.00 Build 0)  -->
<svg version="1.1" id="Layer_1" xmlns="http://www.w3.org/2000/svg" xmlns:xlink="http://www.w3.org/1999/xlink" x="0px" y="0px"
	 viewBox="0 0 706 674" style="enable-background:new 0 0 706 674;" xml:space="preserve">
<style type="text/css">
	.st0{fill:#00081A;}
	.st1{display:none;opacity:0.32;}
	.st2{display:inline;}
	.st3{fill:#FFFFFF;}
	.st4{display:none;}
	.st5{display:inline;opacity:0.44;}
	.st6{fill:url(#SVGID_1_);}
	.st7{display:inline;opacity:0.32;}
	.st8{fill:#DE0039;}
	.st9{opacity:0.32;}
	.st10{fill:#00081A;stroke:#FFFFFF;stroke-width:16.1681;stroke-miterlimit:10;}
</style>
<path class="st0" d="M606.4,674.1h-506c-55,0-100-45-100-100v-474c0-55,45-100,100-100h506c55,0,100,45,100,100v474
	C706.4,629.1,661.4,674.1,606.4,674.1z"/>
<g id="Layer_2_00000042698850045880565210000001278901098979280541_">
	<g class="st1">
		<g class="st2">
			<path class="st3" d="M-2257,1531.3c10-9.4,19.9-19,27.5-30.5c3.8-5.8,6.9-12.2,8.8-18.9c2.2-7.6,3.2-15.4,3.9-23.3
				c3.1-31.6,2-63.3,3.4-95c0.3-7.2,0.8-14.5,1.5-21.7c0.7-7.6,1.4-13.3,2.7-20.6c2.4-14.1,6-28.1,11.3-41.4c0.3-0.8,0.6-1.6,1-2.4
				c-0.3,0.7,0.6-1.4,0.7-1.5c0.7-1.7,1.5-3.3,2.3-5c1.4-2.9,2.9-5.8,4.5-8.5c0.8-1.2,1.5-2.4,2.4-3.6c0.2-0.3,0.4-0.6,0.6-0.9
				c-0.6,0.8-0.1,0.1,0.1-0.1c0.6-0.7,1.1-1.4,1.8-2c1-1,2-2,3.1-2.9c-0.9,0.8,0.6-0.4,0.9-0.6c0.6-0.4,1.3-0.8,2-1.2
				c0.3-0.2,0.6-0.3,0.9-0.4c0.8-0.4-0.9,0.2,0,0c0.7-0.2,1.3-0.4,2-0.6c0.3-0.1,0.7-0.1,1-0.2c0.9-0.2-1,0.1-0.3,0
				c0.5,0,1.1-0.1,1.6-0.1c0.8,0,2,0.3,2.7,0.1c-0.9,0.2-1.3-0.2-0.6-0.1c0.2,0.1,0.4,0.1,0.6,0.1c0.5,0.1,1,0.2,1.5,0.4
				c0.1,0,1.1,0.4,1.2,0.4c0,0.1-1.4-0.7-0.6-0.2c0.2,0.1,0.4,0.2,0.6,0.3c0.8,0.4,1.5,0.9,2.2,1.4c1.1,0.8-1-0.9,0,0
				c0.3,0.3,0.6,0.6,0.9,0.8c0.7,0.6,1.3,1.3,1.9,2c1,1.2-0.5-0.7,0.1,0.1c0.2,0.4,0.5,0.7,0.8,1.1c0.6,0.8,1.1,1.7,1.6,2.6
				c0.5,0.8,0.9,1.7,1.3,2.5c0.2,0.4,0.3,1,0.6,1.3c-0.1-0.1-0.6-1.4-0.2-0.4c0.1,0.3,0.2,0.6,0.3,0.8c1.5,3.9,2.6,8.1,3.5,12.2
				c0.4,2,0.8,4.1,1.1,6.1c0.2,1.5-0.1-1.3,0,0.2c0.1,0.5,0.1,1,0.2,1.4c0.1,1,0.2,2,0.3,3c0.3,3.4,0.5,6.8,0.4,10.3
				c-0.1,10.1-0.3,20,1.6,30c2.1,10.7,6.7,21.2,14.8,28.7c19.2,17.7,48.8,15.3,70.3,3.3c11.5-6.4,20.7-16.2,27.4-27.5
				c6.6-11.2,10.8-23.6,14.7-35.8c4.8-15,9.9-30,14.4-45.2c2.2-7.5,3.7-15.7,1.5-23.4c-1.8-6.3-6-11.6-11.3-15.3
				c-6-4.2-13.5-5.3-20.7-4.2c-7.1,1.2-13.4,5-18.9,9.4c-9.5,7.7-17.3,17.9-22.4,29c-10.2,22-10.8,46.6-6.6,70.2
				c4.6,26.6,15.9,51.4,24.8,76.7c4.9,13.8,9.2,27.8,11.4,42.2c0.4,2.7,0.8,6.3,1.1,9.9c0.2,3.5,0.3,7,0.2,10.6
				c-0.1,3.5-0.3,7.1-0.8,10.6c0-0.3,0.1-0.9-0.1,0.3c-0.1,0.4-0.1,0.9-0.2,1.3c-0.1,0.8-0.3,1.6-0.4,2.4c-0.3,1.4-0.6,2.9-1,4.3
				c-0.4,1.4-0.8,2.7-1.2,4c-0.2,0.7-0.5,1.3-0.7,2c-0.1,0.2-0.5,1.2-0.2,0.5c0.3-0.7-0.3,0.6-0.3,0.7c-0.6,1.3-1.2,2.6-2,3.8
				c-0.4,0.6-0.8,1.2-1.1,1.8c-0.2,0.3-0.4,0.6-0.6,0.9c-1,1.4,0.7-0.8-0.4,0.5c-0.9,1.1-1.9,2.2-3,3.2c-0.6,0.5-1.1,1-1.7,1.5
				c-0.1,0.1-0.9,0.7-0.1,0.1c-0.4,0.3-0.8,0.5-1.1,0.8c-1,0.7-2.1,1.3-3.2,1.8c-0.3,0.1-0.6,0.3-0.9,0.4c-0.8,0.4,0.9-0.3,0.1,0
				c-0.7,0.2-1.4,0.5-2.1,0.7c-1.3,0.4-2.5,0.7-3.8,1c-0.6,0.1-1.3,0.2-2,0.3c1.4-0.2-0.9,0.1-1.4,0.1c-1.3,0.1-2.6,0.1-3.9,0
				c-0.6,0-1.3-0.1-1.9-0.2c1.4,0.1-0.6-0.1-1-0.2c-1.2-0.2-2.4-0.6-3.6-1c-0.2-0.1-1.1-0.4-0.4-0.1s-0.1-0.1-0.3-0.2
				c-0.6-0.3-1.2-0.6-1.8-1c-0.4-0.3-1.6-1.2-0.6-0.3c-0.4-0.4-0.9-0.8-1.3-1.2c-0.2-0.2-1.5-1.8-0.9-0.9c-0.5-0.7-0.9-1.5-1.3-2.3
				c0.1,0.2,0.4,1.1,0,0c-0.1-0.3-0.2-0.7-0.3-1c-0.2-0.7-0.3-1.3-0.5-2c0.3,1.3,0-0.6-0.1-1c0-0.8,0-1.6,0-2.4
				c0-0.3,0.1-0.7,0.1-1.1c0-0.9-0.2,0.9,0,0c0.1-0.7,0.2-1.4,0.4-2.1c0.3-1.5,0.8-3,1.3-4.4c0.3-0.9,0.6-2.6,1.3-3.4
				c-0.6,0.7-0.4,0.8-0.1,0.3c0.1-0.2,0.2-0.5,0.3-0.7c0.3-0.6,0.6-1.2,0.8-1.8c0.9-2,2-3.9,3.1-5.8c1.1-1.9,2.3-3.8,3.6-5.6
				c0.6-0.9,1.3-1.8,1.9-2.6c0.6-0.8-0.1,0.1-0.2,0.2c0.2-0.2,0.3-0.4,0.5-0.6c0.4-0.5,0.9-1.1,1.3-1.6c2.9-3.5,6.1-6.8,9.4-10
				c3.5-3.3,7.2-6.4,10.9-9.4c0.2-0.1,1.6-1.2,0.9-0.8c-0.6,0.5,0.8-0.6,1-0.7c1-0.8,2-1.5,3-2.3c2.1-1.5,4.1-3,6.2-4.4
				c8.5-5.8,17.2-11.3,26-16.7c18-11.1,36.2-22,52.5-35.5c15.9-13.1,30-29.3,36.4-49.2c6.2-19.3,4.5-39.7,3.9-59.6
				c-0.2-5-0.2-9.9-0.1-14.9c0.1-2.4,0.2-4.9,0.4-7.3c0.1-1.2,0.2-2.4,0.4-3.6c0.1-0.5,0.3-2,0.1-0.6c0.1-0.7,0.2-1.5,0.3-2.2
				c0.8-5,2-9.9,3.6-14.7c0.4-1.2,0.8-2.4,1.3-3.6c0.1-0.4,0.8-2,0.3-0.8c0.3-0.7,0.7-1.5,1-2.2c1.2-2.5,2.5-5,3.9-7.3
				c1.5-2.4,3.1-4.8,4.7-7.1c0.2-0.3,0.4-0.6,0.7-0.9c0.6-0.8-0.5,0.6,0.1-0.1c0.5-0.6,0.9-1.2,1.4-1.8c1-1.2,2-2.4,3.1-3.5
				c4.7-5.2,10-10,15.5-14.3c2.5-1.9,2.2-6.5,0-8.5c-2.6-2.4-5.8-2.1-8.5,0c-10.8,8.5-20.5,18.5-27.5,30.4
				c-5.6,9.4-9.3,19.8-11.1,30.6c-3.3,20.1-0.6,40.2-0.9,60.4c0,2.4-0.1,4.8-0.3,7.2c-0.2,2.4-0.2,4.9-0.7,7.2
				c0.3-1.6,0,0.2-0.1,0.6c-0.1,0.6-0.2,1.2-0.3,1.7c-0.2,1.3-0.5,2.6-0.8,3.9c-0.5,2.4-1.2,4.8-1.9,7.2c-0.3,1.1-0.7,2.2-1.1,3.2
				c-0.2,0.6-0.4,1.2-0.7,1.7c-0.1,0.3-0.2,0.6-0.3,0.9c-0.6,1.5,0.5-1.2-0.1,0.3c-1.1,2.4-2.2,4.8-3.5,7.1c-1.2,2.2-2.6,4.3-4,6.4
				c-0.7,0.9-1.3,1.9-2,2.8c-0.3,0.5-0.7,0.9-1,1.4c0.9-1.3-0.4,0.5-0.7,0.8c-6.2,7.7-13.3,14.5-20.9,20.7c-0.9,0.8-1.9,1.5-2.8,2.3
				c-0.2,0.2-0.5,0.4-0.7,0.6c-0.2,0.1-0.9,0.7-0.3,0.2c0.6-0.5-0.2,0.1-0.3,0.2c-0.3,0.2-0.6,0.5-0.9,0.7c-2.1,1.6-4.2,3.1-6.3,4.6
				c-4.2,3-8.5,5.8-12.8,8.7c-17.4,11.3-35.6,21.5-52.7,33.5c-15.9,11.2-31.4,24.1-41.4,41.1c-5.6,9.6-10.8,21.6-8,32.8
				c3.2,13.2,17.2,18.8,29.6,17.8c6.1-0.5,12.3-2.1,17.6-5.3c5.8-3.4,10.6-8.5,13.9-14.3c6.7-11.6,8.4-25.9,8.3-39.1
				c-0.2-29.8-11.4-58.2-21.8-85.7c-4.7-12.5-9.4-25-12.8-37.9c-1.5-5.7-2.8-11.5-3.7-17.3c-0.1-0.7-0.2-1.4-0.3-2.1
				c-0.1-0.3-0.1-0.7-0.1-1c0-0.2-0.2-1.3-0.1-0.5c0.1,0.8,0-0.3-0.1-0.5c0-0.3-0.1-0.7-0.1-1c-0.1-0.8-0.2-1.6-0.3-2.3
				c-0.3-2.9-0.5-5.9-0.6-8.8c-0.2-5.7-0.1-11.3,0.5-17c0.1-0.7,0.1-1.3,0.2-2c0.1-1.2,0-0.1,0,0.1c0.1-0.3,0.1-0.7,0.1-1
				c0.2-1.5,0.5-3,0.8-4.5c0.5-2.7,1.2-5.4,2-8.1c0.8-2.7,1.7-5.3,2.8-7.9c0.4-1.1,0.1-0.2,0,0c0.1-0.3,0.3-0.6,0.4-0.9
				c0.3-0.6,0.6-1.2,0.9-1.8c0.7-1.4,1.4-2.8,2.1-4.1c1.4-2.5,2.9-4.9,4.5-7.3c0.4-0.6,0.8-1.2,1.2-1.7c0.2-0.3,0.4-0.6,0.6-0.8
				c0.6-0.7-0.6,0.7,0-0.1c1-1.2,1.9-2.4,2.9-3.5c2.1-2.4,4.3-4.6,6.7-6.7c0.6-0.5,1.1-1,1.7-1.5c0.3-0.2,0.6-0.5,0.9-0.7
				c-0.2,0.2-0.8,0.6,0.2-0.1c1.3-1,2.7-1.9,4.2-2.7c0.7-0.4,1.4-0.8,2.1-1.1c0.3-0.2,0.7-0.3,1.1-0.5c0.9-0.4-0.7,0.3,0.2-0.1
				c1.6-0.6,3.2-1,4.8-1.4c1.2-0.2,0.4-0.1,0.2,0c0.4,0,0.8-0.1,1.2-0.1c0.8-0.1,1.6-0.1,2.4,0c0.4,0,0.8,0.1,1.2,0.1
				c-1.1-0.1-0.2,0,0,0c0.9,0.2,1.8,0.4,2.6,0.7c0.3,0.1,0.7,0.2,1,0.3c0.2,0.1,1,0.5,0,0c0.6,0.3,1.2,0.6,1.8,1
				c0.6,0.3,1.2,0.7,1.7,1.1c0.2,0.2,0.8,0.7,0,0c0.3,0.3,0.6,0.5,0.9,0.8c0.5,0.4,1,0.9,1.4,1.4c0.2,0.2,0.4,0.5,0.7,0.8
				c0.6,0.6-0.5-0.8,0-0.1c0.8,1.2,1.5,2.3,2.1,3.5c0.5,1,0,0.1-0.1-0.1c0.1,0.3,0.2,0.6,0.3,0.9c0.2,0.6,0.4,1.2,0.5,1.8
				c0.1,0.4,0.2,0.9,0.3,1.3c-0.1-0.8,0,0.3,0,0.4c0.1,1.1,0.1,2.2,0.1,3.3c0,0.9-0.1,1.8-0.2,2.7c0-0.3,0.2-0.9-0.1,0.4
				c-0.1,0.4-0.2,0.9-0.2,1.3c-0.4,1.9-0.8,3.8-1.4,5.7c-2.2,7.6-4.7,15.1-7.1,22.6c-2.4,7.5-4.8,15-7.2,22.5
				c-1.9,6.1-3.9,12.1-6.2,18.1c-0.3,0.7-0.6,1.4-0.8,2.1c-0.1,0.2-0.8,1.9-0.4,1c-0.7,1.6-1.4,3.2-2.1,4.7
				c-1.4,2.9-2.8,5.7-4.5,8.4c-0.8,1.3-1.6,2.6-2.5,3.9c-0.4,0.7-0.9,1.3-1.3,1.9c-0.2,0.3-0.5,0.6-0.7,0.9
				c-0.2,0.2-0.8,1.1-0.3,0.4c-2.1,2.7-4.4,5.2-6.9,7.6c-1,1-2.1,1.9-3.1,2.8c-0.3,0.2-1.8,1.3-0.8,0.6c-0.6,0.4-1.2,0.9-1.9,1.3
				c-2.4,1.6-4.8,3.1-7.4,4.4c-1.3,0.7-2.5,1.2-3.8,1.8c-1.1,0.5-0.3,0.1,0,0c-0.3,0.1-0.7,0.3-1,0.4c-0.8,0.3-1.7,0.7-2.5,0.9
				c-2.8,1-5.7,1.8-8.6,2.4c-1.4,0.3-2.8,0.5-4.2,0.8c-0.9,0.2,0.9-0.1,0,0c-0.4,0-0.7,0.1-1.1,0.1c-0.8,0.1-1.6,0.2-2.4,0.2
				c-3,0.2-6,0.2-9-0.1c-0.4,0-2.3-0.3-1-0.1c-0.7-0.1-1.4-0.2-2.1-0.3c-1.4-0.3-2.9-0.6-4.3-1c-1.3-0.4-2.6-0.9-3.9-1.3
				c-0.9-0.3,0.8,0.4,0,0c-0.3-0.2-0.6-0.3-0.9-0.4c-0.7-0.3-1.4-0.7-2.1-1.1c-1.2-0.6-2.4-1.3-3.5-2.1c-0.5-0.4-1.1-0.8-1.6-1.1
				c1,0.7,0.3,0.2,0.1,0c-0.4-0.3-0.7-0.6-1.1-0.9c-0.9-0.8-1.8-1.7-2.7-2.6c-0.4-0.4-0.8-0.9-1.2-1.4c-0.2-0.2-0.4-0.5-0.6-0.7
				c-0.7-0.9,0.4,0.6,0-0.1c-1.4-2.1-2.8-4.1-3.9-6.4c-0.3-0.5-0.5-1.1-0.8-1.6c-0.5-1,0,0,0.1,0.2c-0.1-0.3-0.2-0.6-0.3-0.8
				c-0.5-1.3-0.9-2.6-1.3-3.9c-0.7-2.4-1.3-4.9-1.8-7.4c-0.1-0.6-0.2-1.2-0.3-1.8c-0.1-0.3-0.1-0.6-0.1-0.9c-0.2-0.9,0.1,1.1,0,0.2
				c-0.1-1.3-0.3-2.6-0.4-3.9c-0.7-8.5,0.1-17-0.4-25.6c-0.4-8.5-1.6-17-4-25.2c-2.3-7.9-6-16.5-12.5-21.8
				c-8.3-6.8-19.8-7.4-28.9-1.4c-11.5,7.5-17.4,21.5-22.4,33.7c-5.4,13.3-9,27.2-11.5,41.3c-5.3,30.2-5.3,60.8-5.8,91.4
				c-0.3,15.9-0.7,31.8-2.1,47.7c-0.7,7.6-1.3,13.8-3.4,21.2c-0.5,1.7-1,3.4-1.6,5.1c-0.3,0.7-0.6,1.5-0.9,2.2
				c0.4-0.8,0,0.1-0.1,0.2c-0.2,0.5-0.5,1.1-0.8,1.6c-1.4,2.9-3,5.8-4.8,8.5c-0.9,1.3-1.8,2.6-2.7,3.9c-0.2,0.3-0.5,0.6-0.7,0.9
				c-0.6,0.8,0.5-0.6-0.1,0.2c-0.5,0.6-1,1.2-1.5,1.9c-2,2.5-4.2,4.9-6.4,7.2c-4.5,4.8-9.2,9.2-14,13.7c-2.3,2.2-2.3,6.3,0,8.5
				C-2263,1533.5-2259.4,1533.6-2257,1531.3L-2257,1531.3z"/>
		</g>
	</g>
</g>
<g id="Layer_6">
</g>
<g id="Layer_4" class="st4">
	<g class="st5">
		
			<radialGradient id="SVGID_1_" cx="-1944.5042" cy="-760.2024" r="19.8979" gradientTransform="matrix(0.8233 -0.1639 0.1639 -1.1914 -406.1894 140.1022)" gradientUnits="userSpaceOnUse">
			<stop  offset="0" style="stop-color:#282F3E"/>
			<stop  offset="8.290000e-02" style="stop-color:#4F5561;stop-opacity:0.8893"/>
			<stop  offset="0.2088" style="stop-color:#848891;stop-opacity:0.7211"/>
			<stop  offset="0.3323" style="stop-color:#B0B3B8;stop-opacity:0.5562"/>
			<stop  offset="0.4505" style="stop-color:#D2D4D7;stop-opacity:0.3983"/>
			<stop  offset="0.5621" style="stop-color:#EBECED;stop-opacity:0.2493"/>
			<stop  offset="0.6644" style="stop-color:#FAFAFA;stop-opacity:0.1127"/>
			<stop  offset="0.7487" style="stop-color:#FFFFFF;stop-opacity:0"/>
		</radialGradient>
		<polygon class="st6" points="-2133.7,1391.2 -2147.9,1385.7 -2129.6,1337.7 -2115.4,1343.1 		"/>
	</g>
	<g id="layer1_00000045579206297361544370000017316296734045167770_" class="st7">
		<g id="text2989_00000101815020506787845140000001215062615284427140_">
			<path id="path3034_00000092417911998940872510000014719007295654715558_" class="st3" d="M-1985,1277
				c0.4-18.4-5.5-36.5-16.7-51.1c-10.7-15.3-28.3-24.3-47-24.2c-21.5,0-36.2,10.9-44.7,33.1c-6.4,16-9.5,38.8-9.5,68.8
				c0,6.8,0.4,16.4,1,29c0.4,11.2,0.4,19.1,0.4,23.5c-34.4,0-58.9-21.1-58.9-55.2c0-36.2,13.6-59.6,40.6-69.5
				c2.9-6.3,4.5-13.2,4.8-20.1c0-7.2-3-10.5-8.9-10.5c-17.9,0-33.4,11.3-47,33.4c-11.5,16.9-17.9,36.8-18.4,57.2
				c0,45.6,28.7,71.6,86.2,78c0,4.8-1.7,14.4-4.1,29c-2.1,9.3-3.4,18.7-3.8,28.2c0,12.3,6.1,18.4,18.4,18.4c9.9,0,14.6-6,14.6-18.7
				c-0.3-9.7-1.4-19.4-3.1-29c-1.7-12.6-2.7-21.8-3-28.2c29.3-2.4,52.5-10.9,69.5-25.3c19.6-16.5,30.4-41.2,29.2-66.8
				 M-2018.6,1271.1c0.7,19.9-5.2,39.4-16.7,55.7c-11.8,16-29.2,26.9-48.7,30.4c-0.4-6.5-0.7-15.7-0.7-26.9c0-1.7,0-6-0.4-13
				s-0.3-12.6-0.3-17c0-55.2,11.2-82.8,33.7-82.8c11.3,0,20.1,6.5,25.9,19.8c4.9,10.7,7.4,22.3,7.2,34.1"/>
		</g>
	</g>
	<g class="st7">
		<g>
			<path class="st3" d="M-1806,1247.3c-1.6,9.6-2.3,19.3-2.1,29c0,1.9,3,1.9,3,0c-0.2-9.4,0.5-18.9,2-28.2
				C-1802.8,1246.2-1805.7,1245.4-1806,1247.3L-1806,1247.3z"/>
		</g>
	</g>
	<g class="st7">
		<g>
			<path class="st8" d="M-1767.4,1258.8c-9.9,6.2-17.1,16.7-18.9,28.3c-1.1,6.9-0.4,13.9,1.4,20.6c0.9,3.5,2.1,6.9,3.3,10.2
				c1.2,3.3,2.5,6.6,2.7,10.1c0.2,3.3-0.4,6.9-2.9,9.2c-2.1,2-5.3,2.9-7.9,1.4c-1.7-0.9-3.2,1.6-1.5,2.6c5.3,3,11.8-0.4,14.1-5.6
				c2.8-6.4,0.4-13.3-1.9-19.5c-2.6-7-4.7-14.3-4.8-21.9c-0.1-6.3,1.3-12.5,4.2-18.1c3.2-6.1,7.9-11.3,13.7-15
				C-1764.3,1260.4-1765.8,1257.8-1767.4,1258.8L-1767.4,1258.8z"/>
		</g>
	</g>
	<g class="st7">
		<g>
			<path class="st8" d="M-2125.9,1201.4c4.6,0.4,7.1,5.1,8.4,8.9c1.9,5.5,2.7,11.6,3.4,17.3c1.6,12.6,1.8,25.3,0.9,38
				c-1.8,25.9-8.3,51-15.9,75.7c-1.9,6.3-3.8,12.6-5.4,19c-1.5,6.3-2.6,12.8-3.9,19.2c-2.6,12.7-6.6,24.7-12.2,36.4
				c-9.5,19.8-21.9,38.2-36.6,54.5c-14.6,16.1-31.3,30.1-49.8,41.5c-2.3,1.4-4.6,2.8-7,4.1c-1.7,0.9-0.2,3.6,1.5,2.6
				c19.4-11,37.3-24.9,52.7-41.1c15.5-16.1,28.7-34.5,38.9-54.4c5.8-11.4,10.8-23.3,13.8-35.7c1.6-6.5,2.7-13.2,4-19.8
				c1.4-6.6,3.1-13.2,5-19.7c3.8-12.8,7.9-25.5,10.9-38.5c3-12.9,5.3-25.9,6.5-39.1c1.2-13,1.3-26.2-0.1-39.2
				c-0.7-6.2-1.5-12.5-3-18.6c-1.1-4.3-2.9-9-6.4-11.9c-1.7-1.4-3.6-2.2-5.8-2.4C-2127.8,1198.2-2127.8,1201.2-2125.9,1201.4
				L-2125.9,1201.4z"/>
		</g>
	</g>
	<g class="st7">
		<g>
			<path class="st8" d="M-2129.8,1235.2c1.7,10.9,0.9,22,0.4,33c-0.5,10.9-1.1,21.7-1.6,32.6c-0.6,10.9-1.5,21.8-4,32.5
				c-2.4,10.5-5.4,20.8-8.3,31.2c-2.9,10.2-6,20.4-9.9,30.3c-3.9,9.8-8.7,19-14.4,27.9c-6,9.3-12.2,18.4-18.3,27.6
				c-5.9,8.9-11.7,17.9-17.8,26.6c-5.9,8.4-12.3,16.2-19.9,23.2c-7.3,6.7-15.3,12.6-23.5,18.2c-2.1,1.4-4.1,2.8-6.2,4.2
				c-1.6,1.1-0.1,3.7,1.5,2.6c8.4-5.6,16.7-11.4,24.5-17.8c7.8-6.5,14.8-13.7,21-21.7c6.5-8.4,12.2-17.4,18.1-26.3
				c6.3-9.4,12.5-18.9,18.8-28.3c6-9,11.7-18.1,16.1-28c4.3-9.6,7.7-19.7,10.7-29.8c3.1-10.5,6.1-21.1,8.8-31.7
				c2.8-10.7,4.6-21.4,5.4-32.4c0.8-11,1.2-22.1,1.7-33.1c0.6-11.1,1.5-22.3,0.8-33.4c-0.2-2.7-0.5-5.3-0.9-8
				C-2127.2,1232.5-2130.1,1233.3-2129.8,1235.2L-2129.8,1235.2z"/>
		</g>
	</g>
	<g class="st7">
		<g>
			<path class="st8" d="M-2258.3,1519.1c19.9-13.8,37.7-30.7,52.5-49.9c4.2-5.5,8.2-11.1,11.9-16.9c1-1.6-1.6-3.1-2.6-1.5
				c-12.9,20.1-28.9,38.2-47.2,53.4c-5.2,4.3-10.6,8.4-16.2,12.3C-2261.4,1517.6-2259.9,1520.2-2258.3,1519.1L-2258.3,1519.1z"/>
		</g>
	</g>
	<g class="st7">
		<g>
			<path class="st8" d="M-2207.4,1465.8c8.1-8.3,16.4-16.6,24.1-25.2c7-7.8,13.7-16.1,18.7-25.4c2.8-5.2,5.1-10.7,6.6-16.5
				c0.5-1.9-2.4-2.7-2.9-0.8c-5.3,20.3-20.1,36.3-34.3,51c-4.8,4.9-9.5,9.8-14.3,14.7C-2210.9,1465.1-2208.8,1467.2-2207.4,1465.8
				L-2207.4,1465.8z"/>
		</g>
	</g>
	<g class="st7">
		<g>
			<path class="st8" d="M-2162.5,1407.5c4.1-3.9,7.9-8.2,11.4-12.6c0.5-0.6,0.6-1.5,0-2.1c-0.5-0.5-1.6-0.6-2.1,0
				c-3.5,4.4-7.3,8.7-11.4,12.6C-2166,1406.7-2163.9,1408.9-2162.5,1407.5L-2162.5,1407.5z"/>
		</g>
	</g>
	<g class="st7">
		<g>
			<path class="st8" d="M-2150.8,1391.1c1.9,0,1.9-3,0-3S-2152.7,1391.1-2150.8,1391.1L-2150.8,1391.1z"/>
		</g>
	</g>
	<g class="st7">
		<g>
			<path class="st8" d="M-2083.5,1370.8c-1.8,11.9-2.3,24-1.4,36c0.4,5.9,1.1,11.9,2.5,17.6c1.5,5.8,4.3,11.1,5.6,16.9
				c1.3,5.8,1.8,11.7,2.6,17.6c0.8,6,1.5,12,2.3,18c0.7,5.8,1.4,11.7,0.6,17.4c-0.8,5.1-2.8,9.8-5.7,14c-3.1,4.6-7.2,8.9-11.7,12.2
				c-4.4,3.3-10.1,5.9-15.6,3.8c-1.8-0.7-2.6,2.2-0.8,2.9c10.2,3.9,20.4-5.2,26.6-12.2c3.4-3.8,6.3-8.1,8.2-12.9
				c2.1-5.3,2.6-11,2.4-16.7c-0.3-6.1-1.3-12.1-2.1-18.2c-0.8-6.2-1.6-12.4-2.4-18.6c-0.8-6.1-2.1-11.8-4.3-17.6
				c-1.1-2.8-2.2-5.7-2.9-8.6c-0.7-3-1.2-6-1.5-9.1c-1.7-13.9-1.5-28.1,0.6-42C-2080.3,1369.7-2083.2,1368.9-2083.5,1370.8
				L-2083.5,1370.8z"/>
		</g>
	</g>
	<g class="st7">
		<g>
			<path class="st8" d="M-2113.7,1419.9c-1.5,11.3-2.9,23.4,1.5,34.3c1.1,2.7,2.6,5.2,4.1,7.8c1.5,2.7,2.6,5.4,3.1,8.4
				c0.5,3,0.6,6.2,0.8,9.2c0.2,3.1,0.2,6.2,0,9.4c-0.6,9.5-5.5,21.9-16.6,22.6c-4.3,0.3-8.9-1.4-11.1-5.2c-1.4-2.4-2-5.3-2.5-8
				c-0.5-2.6-0.9-5.3-0.9-8c0-2.9,0.4-5.9,1.5-8.6c1.1-2.6,3-4.7,5.1-6.5c4.3-3.5,9.4-5.8,13.1-10c1.3-1.4-0.8-3.6-2.1-2.1
				c-3.5,4-8.4,6.3-12.6,9.5c-4.4,3.5-7.1,8.1-7.9,13.7c-0.7,5.7,0.2,11.8,1.8,17.2c1.5,5.1,4.9,9.1,10.1,10.5
				c4.8,1.3,10,0.4,14-2.4c4.5-3.1,7.6-7.9,9.2-13c2.1-6.2,2-12.9,1.7-19.4c-0.2-3.2-0.3-6.4-0.9-9.6c-0.6-3.3-1.8-6.3-3.4-9.2
				c-1.7-3.1-3.6-6.1-4.7-9.5c-1.1-3.3-1.6-6.7-1.9-10.1c-0.4-7,0.4-14,1.3-20.9C-2110.4,1417.9-2113.4,1418-2113.7,1419.9
				L-2113.7,1419.9z"/>
		</g>
	</g>
	<g class="st7">
		<g>
			<path class="st8" d="M-2107.9,1525c-8.4,0-17-0.2-25.2-1.7c-6.6-1.2-13.6-3.6-17.6-9.3c-4.8-6.9-5-16.4-4.2-24.5
				c0.4-3.9,1.3-7.9,3.4-11.3c1.9-3,4.6-5.4,7.5-7.4c3.4-2.2,7.1-4,10.9-5.6c4.6-2.1,9.3-4.1,13.9-6.2c1.8-0.8,0.2-3.4-1.5-2.6
				c-4.4,2-8.9,3.9-13.3,5.9c-3.6,1.6-7.2,3.2-10.5,5.3c-3.2,2-6.1,4.3-8.4,7.4c-2.5,3.4-3.9,7.4-4.6,11.6
				c-1.4,8.5-1.2,18.3,2.6,26.2c3.4,7,10.2,10.8,17.5,12.6c4.3,1.1,8.6,1.5,13,1.9c5.5,0.4,11,0.7,16.5,0.7
				C-2106,1528-2106,1525-2107.9,1525L-2107.9,1525z"/>
		</g>
	</g>
	<g class="st7">
		<g>
			<path class="st8" d="M-2119.1,1464.6c3.2-0.2,6.4-1.2,9-3.2c0.6-0.5,1-1.3,0.5-2.1c-0.4-0.6-1.4-1-2.1-0.5
				c-0.6,0.4-1.2,0.8-1.9,1.2c-0.3,0.2-0.6,0.3-0.9,0.4c-0.1,0-0.6,0.2-0.3,0.1c-0.2,0.1-0.3,0.1-0.5,0.2c-0.6,0.2-1.3,0.4-2,0.6
				c-0.2,0-0.4,0.1-0.5,0.1c-0.1,0-0.6,0.1-0.3,0.1c-0.4,0.1-0.7,0.1-1.1,0.1c-0.8,0-1.5,0.7-1.5,1.5
				C-2120.6,1463.9-2120,1464.7-2119.1,1464.6L-2119.1,1464.6z"/>
		</g>
	</g>
	<g class="st7">
		<g>
			<path class="st8" d="M-2117.8,1459.6c2.4-1,4.8-2.1,7.1-3.1c0.7-0.3,0.9-1.4,0.5-2.1c-0.5-0.8-1.3-0.9-2.1-0.5
				c-2.4,1-4.8,2.1-7.1,3.1c-0.7,0.3-0.9,1.4-0.5,2.1C-2119.3,1459.8-2118.5,1459.9-2117.8,1459.6L-2117.8,1459.6z"/>
		</g>
	</g>
	<g class="st7">
		<g>
			<path class="st8" d="M-2116.3,1467.6c1.2-0.7,2.4-1.4,3.6-2c0.3-0.2,0.6-0.5,0.7-0.9c0.1-0.4,0.1-0.8-0.1-1.2
				c-0.4-0.7-1.3-0.9-2.1-0.5c-1.2,0.7-2.4,1.4-3.6,2c-0.3,0.2-0.6,0.5-0.7,0.9c-0.1,0.4-0.1,0.8,0.1,1.2
				C-2117.9,1467.7-2117,1468-2116.3,1467.6L-2116.3,1467.6z"/>
		</g>
	</g>
	<g class="st7">
		<g>
			<path class="st8" d="M-2154,1214.9c4.4-4.9,11.2-6.4,17.6-6.8c6.9-0.5,15.8-0.4,20.1,6.1c1.1,1.6,3.7,0.1,2.6-1.5
				c-4.9-7.3-14.3-8.1-22.3-7.6c-7.2,0.4-15,2.1-20.1,7.7C-2157.5,1214.2-2155.3,1216.4-2154,1214.9L-2154,1214.9z"/>
		</g>
	</g>
	<g class="st7">
		<g>
			<path class="st8" d="M-2154.6,1269.2c3.3-6.5,7.1-12.7,11.6-18.5c2.1-2.7,4.2-5.6,6.9-7.7c2-1.6,5.7-2.6,7,0.4
				c0.3,0.8,1.4,0.9,2.1,0.5c0.8-0.4,0.9-1.3,0.5-2.1c-1.3-3.1-5.3-4.1-8.3-3c-3.7,1.3-6.2,4.8-8.6,7.7c-5.4,6.5-10,13.6-13.8,21.2
				C-2158,1269.4-2155.4,1271-2154.6,1269.2L-2154.6,1269.2z"/>
		</g>
	</g>
	<g class="st7">
		<g>
			<path class="st8" d="M-2155.3,1212.7c-3.9,4.1-7.2,8.6-10.1,13.4c-1,1.7,1.6,3.2,2.6,1.5c2.7-4.6,5.9-8.9,9.6-12.8
				C-2151.9,1213.4-2154,1211.3-2155.3,1212.7L-2155.3,1212.7z"/>
		</g>
	</g>
	<g class="st7">
		<g>
			<path class="st8" d="M-2158.7,1215.4c-2.6,3.3-4.5,7-6.6,10.7c-2.1,3.9-4.7,7.3-7.3,10.8c-5.1,6.9-8.6,14.7-9.9,23.2
				c-0.3,1.9,2.6,2.7,2.9,0.8c1.2-8.3,4.6-15.8,9.6-22.5c2.5-3.4,5.1-6.7,7.1-10.5c2-3.6,3.7-7.3,6.3-10.5
				C-2155.4,1216-2157.5,1213.9-2158.7,1215.4L-2158.7,1215.4z"/>
		</g>
	</g>
	<g class="st7">
		<g>
			<path class="st8" d="M-2164.4,1224c-7,9.2-14.1,18.5-18.4,29.3c-2.3,5.7-3.4,11.7-4.2,17.8c-0.8,6.3-1.5,12.7-1.9,19.1
				c-0.9,12.4-0.8,25.5,2.9,37.5c1.7,5.4,4.4,10.5,8.7,14.2c4.6,3.9,10.1,6.8,15.3,9.9c6.1,3.7,12.2,7.5,18.5,11
				c5.8,3.2,11.9,5.8,18.5,6.5c1.9,0.2,1.9-2.8,0-3c-5.8-0.7-11.1-3-16.2-5.7c-5.2-2.8-10.3-6-15.4-9.1c-5.3-3.2-10.7-6.1-15.8-9.6
				c-4.6-3.2-7.9-7.3-9.9-12.6c-4.2-11.2-4.4-23.8-3.8-35.6c0.3-6.2,1-12.4,1.7-18.6c0.7-5.9,1.4-11.9,3.3-17.6
				c3.9-11.9,11.8-22.1,19.4-32C-2160.6,1224-2163.2,1222.5-2164.4,1224L-2164.4,1224z"/>
		</g>
	</g>
	<g class="st7">
		<g>
			<path class="st8" d="M-2127.5,1369.5c4.8,0.4,9.6,1.2,14.4,1.7c4.8,0.4,9.6,0.5,14.4,0.3c9.5-0.4,18.9-1.9,28-4.6
				c1.9-0.5,1.1-3.4-0.8-2.9c-9,2.6-18.3,4.1-27.7,4.5c-4.6,0.2-9.3,0.1-13.9-0.3c-4.8-0.4-9.6-1.2-14.4-1.7
				C-2129.4,1366.3-2129.4,1369.3-2127.5,1369.5L-2127.5,1369.5z"/>
		</g>
	</g>
	<g class="st7">
		<g>
			<path class="st8" d="M-2146.8,1359.9c5,2.5,10.3,4.2,15.9,5.1c0.8,0.1,1.6-0.2,1.8-1.1c0.2-0.7-0.2-1.7-1.1-1.8
				c-5.2-0.8-10.4-2.4-15.1-4.8C-2147,1356.5-2148.5,1359.1-2146.8,1359.9L-2146.8,1359.9z"/>
		</g>
	</g>
	<g class="st7">
		<g>
			<path class="st8" d="M-2147.3,1357.7c5.4,2.5,11.1,4.2,16.9,4.9c0.8,0.1,1.5-0.8,1.5-1.5c0-0.9-0.7-1.4-1.5-1.5
				c-5.3-0.7-10.6-2.2-15.4-4.5c-0.7-0.3-1.6-0.2-2.1,0.5C-2148.2,1356.3-2148,1357.4-2147.3,1357.7L-2147.3,1357.7z"/>
		</g>
	</g>
	<g class="st7">
		<g>
			<path class="st8" d="M-2144.2,1357.4c5.2,2.1,10.7,3.7,16.2,4.8c1.9,0.4,2.7-2.5,0.8-2.9c-5.5-1.1-10.9-2.7-16.2-4.8
				c-0.8-0.3-1.6,0.3-1.8,1.1C-2145.5,1356.4-2145,1357.1-2144.2,1357.4L-2144.2,1357.4z"/>
		</g>
	</g>
	<g class="st7">
		<g>
			<path class="st8" d="M-2142,1356.5c4.2,2,8.6,3.5,13.1,4.5c0.8,0.2,1.6-0.2,1.9-1.1c0.2-0.8-0.2-1.7-1.1-1.8
				c-4.3-0.9-8.4-2.3-12.4-4.2c-0.7-0.3-1.6-0.2-2.1,0.5C-2142.9,1355.1-2142.7,1356.2-2142,1356.5L-2142,1356.5z"/>
		</g>
	</g>
	<g class="st7">
		<g>
			<path class="st8" d="M-2143.4,1355.1c5.5,1.9,11.1,3.5,16.9,4.8c1.9,0.4,2.7-2.5,0.8-2.9c-5.7-1.3-11.3-2.8-16.9-4.8
				C-2144.4,1351.6-2145.2,1354.5-2143.4,1355.1L-2143.4,1355.1z"/>
		</g>
	</g>
	<g class="st7">
		<g>
			<path class="st8" d="M-2140.3,1354.1c4.7,1.8,9.5,3.4,14.3,4.8c1.9,0.5,2.7-2.4,0.8-2.9c-4.8-1.4-9.6-2.9-14.3-4.8
				c-0.8-0.3-1.6,0.3-1.9,1.1C-2141.6,1353.1-2141.1,1353.8-2140.3,1354.1L-2140.3,1354.1z"/>
		</g>
	</g>
	<g class="st7">
		<g>
			<path class="st8" d="M-2140.8,1352.2c4.6,1.3,9.3,2.6,13.9,3.9c1.9,0.5,2.7-2.4,0.8-2.9c-4.6-1.2-9.3-2.5-13.9-3.9
				C-2141.9,1348.8-2142.6,1351.7-2140.8,1352.2L-2140.8,1352.2z"/>
		</g>
	</g>
	<g class="st7">
		<g>
			<path class="st8" d="M-2143.8,1345.7C-2143.8,1345.7-2143.8,1345.8-2143.8,1345.7c0.6-0.3,1.2-0.6,1.8-1c0,0-0.1,0-0.1,0
				c0.2,0.1,0.4,0.3,0.7,0.4c0,0-0.1-0.1-0.1-0.1c0.1,0.3,0.3,0.7,0.4,1.1c0,0,0-0.1,0-0.1c-0.2,0.4-0.5,0.9-0.7,1.3
				c0,0,0.1-0.1,0.1-0.1c-0.2,0.1-0.5,0.1-0.8,0.2c-0.4,0,0.5,0.3,0.6,0.4c0.3,0.1,0.5,0.2,0.8,0.4c0.6,0.3,1.3,0.6,1.9,0.9
				c1.3,0.6,2.6,1.1,3.9,1.7c2.6,1,5.2,2,7.9,2.9c1.6,0.5,2.6-1.9,1.2-2.7c-0.1-0.1-0.3-0.2-0.5-0.3c-1.6-1-3.2,1.6-1.5,2.6
				c0.1,0.1,0.3,0.2,0.5,0.3c0.4-0.9,0.8-1.8,1.2-2.7c-3.4-1.1-6.8-2.4-10.1-3.8c-1.7-0.7-3.3-1.5-4.9-2.2c-0.9-0.4-2-0.2-2.4,0.8
				c-0.4,0.9,0.1,2.1,1.1,2.2c0.9,0.1,1.6-0.2,1.9-1.1c0,0,0-0.1,0-0.1c0.3-0.8-0.3-1.6-1.1-1.8
				C-2142.8,1344.4-2143.5,1344.9-2143.8,1345.7L-2143.8,1345.7z"/>
		</g>
	</g>
	<g class="st7">
		<g>
			<path class="st8" d="M-2142,1346.5c5.5,3.3,11.4,6,17.6,8c0.7,0.2,1.3-0.2,1.7-0.7c0,0,0,0,0,0c0.5-0.7,0.1-1.6-0.5-2.1
				c0,0,0,0,0,0c-1.6-1.1-3.1,1.5-1.5,2.6c0,0,0,0,0,0c-0.2-0.7-0.4-1.4-0.5-2.1c0,0,0,0,0,0c0.6-0.2,1.1-0.5,1.7-0.7
				c-5.9-1.9-11.5-4.5-16.8-7.7C-2142.2,1342.9-2143.7,1345.5-2142,1346.5L-2142,1346.5z"/>
		</g>
	</g>
	<g class="st7">
		<g>
			<path class="st8" d="M-2139.6,1348.5c4.5,2.5,9.2,4.6,14,6.4c0.8,0.3,1.6-0.3,1.9-1.1c0.2-0.8-0.3-1.6-1.1-1.8
				c-4.6-1.7-9-3.7-13.3-6.1C-2139.8,1345-2141.3,1347.6-2139.6,1348.5L-2139.6,1348.5z"/>
		</g>
	</g>
	<g class="st7">
		<g>
			<path class="st8" d="M-2139.8,1347.8c-0.4-0.1-0.7-0.1-1.1-0.2c-1.9-0.3-2.6,2.2-0.8,2.9c4.6,1.8,9.4,3.2,14.3,4.3
				c0.1-1,0.3-2,0.4-2.9c-0.1,0-0.3,0-0.4,0c-1.9-0.1-1.9,2.9,0,3c0.1,0,0.3,0,0.4,0c1.7,0.1,2.1-2.6,0.4-2.9
				c-4.9-1-9.7-2.4-14.3-4.3c-0.3,1-0.5,1.9-0.8,2.9c0.4,0.1,0.7,0.1,1.1,0.2c0.8,0.1,1.6-0.2,1.9-1.1
				C-2138.6,1349-2139,1347.9-2139.8,1347.8L-2139.8,1347.8z"/>
		</g>
	</g>
	<g class="st7">
		<g>
			<path class="st8" d="M-2141.4,1352.4c4.5,1.6,9.1,2.8,13.9,3.5c0.8,0.1,1.6-0.2,1.9-1.1c0.2-0.7-0.2-1.7-1.1-1.8
				c-4.7-0.7-9.4-1.9-13.9-3.5c-0.8-0.3-1.6,0.3-1.9,1.1C-2142.6,1351.4-2142.1,1352.1-2141.4,1352.4L-2141.4,1352.4z"/>
		</g>
	</g>
	<g class="st7">
		<g>
			<path class="st8" d="M-2142.8,1350.7c-0.3,0-0.6,0-1,0.1c-1.8,0.1-2,2.3-0.4,2.9c4.3,1.7,8.8,2.7,13.5,3.1
				c0.8,0.1,1.5-0.7,1.5-1.5c0-0.9-0.7-1.4-1.5-1.5c-4.4-0.3-8.6-1.3-12.7-3c-0.1,1-0.3,2-0.4,2.9c0.3,0,0.6,0,1-0.1
				c0.8-0.1,1.5-0.7,1.5-1.5C-2141.3,1351.4-2142,1350.6-2142.8,1350.7L-2142.8,1350.7z"/>
		</g>
	</g>
	<g class="st7">
		<g>
			<path class="st8" d="M-2145.2,1352.6c-0.2,0-0.4,0.1-0.5,0.1c-1.2,0.3-1.5,2.2-0.4,2.7c3.9,1.9,8.4,1.9,12.5,3.2
				c1.9,0.6,2.6-2.3,0.8-2.9c-3.9-1.2-8.1-1.1-11.8-2.9c-0.1,0.9-0.2,1.8-0.4,2.7c0.2,0,0.4-0.1,0.5-0.1c0.8-0.2,1.3-1.1,1.1-1.8
				C-2143.6,1352.8-2144.4,1352.4-2145.2,1352.6L-2145.2,1352.6z"/>
		</g>
	</g>
	<g class="st7">
		<g>
			<path class="st8" d="M-2145.4,1354.7c-0.4-0.1-0.9-0.1-1.3,0c-0.9,0.3-1.5,1.3-0.9,2.2c1.2,1.9,3.8,2.3,5.8,2.8
				c2.3,0.5,4.7,0.8,7.1,0.9c0.8,0,1.5-0.7,1.5-1.5c0-0.8-0.7-1.5-1.5-1.5c-2-0.1-3.9-0.3-5.9-0.7c-1-0.2-2-0.5-2.9-0.8
				c-0.3-0.1-0.7-0.2-0.9-0.3c-0.1-0.1-0.3-0.2-0.4-0.2c0.1,0.1,0.1,0.1-0.1-0.1c0.1,0.1,0,0.1-0.1-0.1c-0.3,0.7-0.6,1.5-0.9,2.2
				c-0.1,0-0.2,0-0.3,0c0.8,0.2,1.6-0.2,1.9-1.1C-2144.2,1355.8-2144.7,1354.8-2145.4,1354.7L-2145.4,1354.7z"/>
		</g>
	</g>
	<g class="st7">
		<g>
			<path class="st8" d="M-2108.9,1357.9c11.1,1.6,22.4,1.7,33.6,0.5c1.9-0.2,1.9-3.2,0-3c-10.9,1.2-21.9,1.2-32.8-0.3
				c-0.8-0.1-1.6,0.2-1.9,1.1C-2110.2,1356.8-2109.8,1357.8-2108.9,1357.9L-2108.9,1357.9z"/>
		</g>
	</g>
	<g class="st7">
		<g>
			<path class="st8" d="M-2129.2,1354.9c4.1,1.5,8.4,1.7,12.7,2.1c4.5,0.4,9,0.8,13.5,1.2c1.9,0.2,1.9-2.8,0-3
				c-4.3-0.4-8.7-0.8-13-1.1c-4.2-0.4-8.4-0.6-12.4-2.1C-2130.2,1351.3-2131,1354.2-2129.2,1354.9L-2129.2,1354.9z"/>
		</g>
	</g>
	<g class="st7">
		<g>
			<path class="st8" d="M-2108.7,1357.3c15,1.4,30.3,2.3,45-1.8c1.9-0.5,1.1-3.4-0.8-2.9c-14.4,4-29.5,3-44.2,1.7
				C-2110.7,1354.2-2110.6,1357.2-2108.7,1357.3L-2108.7,1357.3z"/>
		</g>
	</g>
	<g class="st7">
		<g>
			<path class="st8" d="M-2077.9,1370.5c6.4-0.8,12.8-2.3,18.8-4.6c0.8-0.3,1.3-1,1.1-1.8c-0.2-0.7-1.1-1.3-1.9-1.1
				c-5.8,2.2-11.9,3.8-18.1,4.5c-0.8,0.1-1.5,0.6-1.5,1.5C-2079.4,1369.7-2078.8,1370.6-2077.9,1370.5L-2077.9,1370.5z"/>
		</g>
	</g>
	<g class="st7">
		<g>
			<path class="st8" d="M-2103.1,1342.1c0.4,4.4-1.2,8.7-1.2,13.1c0,0.8,0.7,1.5,1.5,1.5c0.2,0,0.4,0,0.5,0c0.8,0,1.5-0.7,1.5-1.5
				c0-0.8-0.7-1.5-1.5-1.5c-0.2,0-0.4,0-0.5,0c0.5,0.5,1,1,1.5,1.5c0-4.4,1.6-8.7,1.2-13.1c-0.1-0.8-0.6-1.5-1.5-1.5
				C-2102.4,1340.6-2103.2,1341.3-2103.1,1342.1L-2103.1,1342.1z"/>
		</g>
	</g>
	<g class="st7">
		<g>
			<path class="st8" d="M-2086,1341.1c-0.3,5.1-0.1,10.2,0.6,15.3c0.1,0.8,0.6,1.5,1.5,1.5c0.7,0,1.6-0.7,1.5-1.5
				c-0.6-5.1-0.8-10.2-0.6-15.3C-2082.9,1339.2-2085.9,1339.2-2086,1341.1L-2086,1341.1z"/>
		</g>
	</g>
	<g class="st7">
		<g>
			<path class="st8" d="M-2123.9,1357.9c4.5,0.4,9,0.9,13.4,1.3c0.8,0.1,1.5-0.8,1.5-1.5c0-0.9-0.7-1.4-1.5-1.5
				c-4.5-0.4-9-0.9-13.4-1.3c-0.8-0.1-1.5,0.8-1.5,1.5C-2125.4,1357.3-2124.7,1357.9-2123.9,1357.9L-2123.9,1357.9z"/>
		</g>
	</g>
	<g class="st7">
		<g>
			<path class="st8" d="M-2125.3,1360c4.3,0.2,8.5,0.3,12.8,0.5c1.9,0.1,1.9-2.9,0-3c-4.3-0.2-8.5-0.3-12.8-0.5
				C-2127.2,1356.9-2127.2,1359.9-2125.3,1360L-2125.3,1360z"/>
		</g>
	</g>
	<g class="st7">
		<g>
			<path class="st8" d="M-2127.1,1360.8c5.8,0.6,11.7,0.8,17.5,0.7c1.9,0,1.9-3,0-3c-5.9,0.1-11.7-0.2-17.5-0.7
				c-0.8-0.1-1.5,0.7-1.5,1.5C-2128.6,1360.2-2127.9,1360.7-2127.1,1360.8L-2127.1,1360.8z"/>
		</g>
	</g>
	<g class="st7">
		<g>
			<path class="st8" d="M-2126.4,1359.4c-0.7,0.1-1.3,0.2-2,0.6c-1.1,0.7-0.9,2.4,0.4,2.7c5.2,1.3,10.7,1.1,16.1,1c1.9,0,1.9-3,0-3
				c-5.1,0-10.3,0.3-15.3-0.9c0.1,0.9,0.2,1.8,0.4,2.7c0.2-0.1,0.3-0.2,0.4-0.2c0.8-0.1,1.5-0.6,1.5-1.5
				C-2124.9,1360.1-2125.6,1359.3-2126.4,1359.4L-2126.4,1359.4z"/>
		</g>
	</g>
	<g class="st7">
		<g>
			<path class="st8" d="M-2126.9,1360.9c-0.2,0-0.3,0.1-0.5,0.1c-0.7,0.1-1.2,1-1.1,1.7c0.1,0.8,0.7,1.2,1.5,1.3
				c5.8,0.4,11.6,0.7,17.4,0.6c1.9,0,1.9-3,0-3C-2115.4,1361.6-2121.2,1361.4-2126.9,1360.9c0,1,0.2,2,0.3,3c0.2,0,0.3-0.1,0.5-0.1
				c0.8-0.2,1.2-1.1,1.1-1.8C-2125.2,1361.2-2126.1,1360.8-2126.9,1360.9L-2126.9,1360.9z"/>
		</g>
	</g>
	<g class="st7">
		<g>
			<path class="st8" d="M-2125.3,1361.2c-0.8-0.1-1.6,0-2.4,0.2c-1.5,0.3-1.4,2.5,0,2.9c3,0.8,6.2,0.9,9.3,1
				c3.1,0.1,6.3,0.2,9.4,0.3c1.9,0,1.9-3,0-3c-3-0.1-6.1-0.2-9.1-0.3c-2.9-0.1-6-0.1-8.8-0.9c0,1,0,1.9,0,2.9c0.5-0.1,1-0.1,1.6-0.1
				C-2123.3,1364.4-2123.3,1361.4-2125.3,1361.2L-2125.3,1361.2z"/>
		</g>
	</g>
	<g class="st7">
		<g>
			<path class="st8" d="M-2130.4,1362c-0.4,0.1-0.7,0.2-1,0.3c-1.3,0.4-1.5,2.6,0,2.9c7.6,1.3,15.2,1.9,22.9,1.8c1.9,0,1.9-3,0-3
				c-7.4,0.1-14.8-0.4-22.1-1.7c0,1,0,1.9,0,2.9c0.4-0.1,0.7-0.2,1-0.3C-2127.8,1364.3-2128.6,1361.4-2130.4,1362L-2130.4,1362z"/>
		</g>
	</g>
	<g class="st7">
		<g>
			<path class="st8" d="M-2128.4,1364.6c7.1,1.6,14.4,2.7,21.7,3.1c1.9,0.1,1.9-2.9,0-3c-7-0.4-14-1.4-20.9-3
				C-2129.5,1361.3-2130.3,1364.2-2128.4,1364.6L-2128.4,1364.6z"/>
		</g>
	</g>
	<g class="st7">
		<g>
			<path class="st8" d="M-2121.1,1366.5c7.1,1.3,14.4,1.8,21.7,1.4c1.9-0.1,1.9-3.1,0-3c-7,0.4-14-0.1-20.9-1.3
				C-2122.2,1363.2-2123,1366.1-2121.1,1366.5L-2121.1,1366.5z"/>
		</g>
	</g>
	<g class="st7">
		<g>
			<path class="st8" d="M-2116.4,1367.3c7,0.7,13.9,1.1,20.9,1c1.9,0,1.9-3,0-3c-7,0.1-14-0.2-20.9-1c-0.8-0.1-1.5,0.8-1.5,1.5
				C-2117.9,1366.7-2117.2,1367.2-2116.4,1367.3L-2116.4,1367.3z"/>
		</g>
	</g>
	<g class="st7">
		<g>
			<path class="st8" d="M-2121,1366.7c0.9,2.2,3.1,2,5.1,2.1c2.5,0.2,5.1,0.3,7.6,0.4c5.2,0.2,10.4,0.2,15.5,0c1.9-0.1,1.9-3.1,0-3
				c-4.4,0.1-8.9,0.2-13.3,0.1c-2.1-0.1-4.3-0.1-6.4-0.2c-1.1-0.1-2.3-0.1-3.4-0.2c-0.5,0-1-0.1-1.5-0.1c-0.2,0-0.5,0-0.7-0.1
				c-0.3-0.1-0.3,0,0,0.2C-2118.8,1364.2-2121.7,1364.9-2121,1366.7L-2121,1366.7z"/>
		</g>
	</g>
	<g class="st7">
		<g>
			<path class="st8" d="M-2115.2,1368.2c7.8,0.5,15.7,0.5,23.5-0.1c1.9-0.1,1.9-3.1,0-3c-7.8,0.6-15.7,0.6-23.5,0.1
				C-2117.1,1365-2117.1,1368-2115.2,1368.2L-2115.2,1368.2z"/>
		</g>
	</g>
	<g class="st7">
		<g>
			<path class="st8" d="M-2117.5,1364.6c-0.3,0.2-0.5,0.4-0.8,0.6c-1.2,0.9-0.8,2.7,0.8,2.8c9.7,0.7,19.4,0.9,29.1,0.7
				c1.9,0,1.9-3,0-3c-9.7,0.2-19.4,0-29.1-0.7c0.2,0.9,0.5,1.9,0.8,2.8c0.3-0.2,0.5-0.4,0.8-0.6
				C-2114.5,1366.1-2116,1363.4-2117.5,1364.6L-2117.5,1364.6z"/>
		</g>
	</g>
	<g class="st7">
		<g>
			<path class="st8" d="M-2115.5,1361.8c7.8,0.4,15.7,1,23.5,1.6c1.9,0.2,1.9-2.8,0-3c-7.8-0.6-15.6-1.2-23.5-1.6
				C-2117.5,1358.7-2117.5,1361.7-2115.5,1361.8L-2115.5,1361.8z"/>
		</g>
	</g>
	<g class="st7">
		<g>
			<path class="st8" d="M-2114.9,1358c-0.2,0-0.5,0-0.8,0c-1.9,0-1.9,2.9,0,3c9.4,0.5,18.8,1,28.2,1.5c1.9,0.1,1.9-2.9,0-3
				c-9.4-0.5-18.8-1-28.2-1.5c0,1,0,2,0,3c0.2,0,0.5,0,0.8,0C-2112.9,1361-2112.9,1358-2114.9,1358L-2114.9,1358z"/>
		</g>
	</g>
	<g class="st7">
		<g>
			<path class="st8" d="M-2113.4,1359.1c-0.2,0-0.5,0.1-0.7,0.1c-1.8,0.3-1.2,2.8,0.4,2.9c8.5,0.5,17,0.2,25.4-0.9
				c0.8-0.1,1.5-0.6,1.5-1.5c0-0.7-0.7-1.6-1.5-1.5c-8.4,1.1-16.9,1.4-25.4,0.9c0.1,1,0.3,2,0.4,2.9c0.2,0,0.5-0.1,0.7-0.1
				C-2110.7,1361.7-2111.5,1358.8-2113.4,1359.1L-2113.4,1359.1z"/>
		</g>
	</g>
	<g class="st7">
		<g>
			<path class="st8" d="M-2111.5,1361.5c8.5,0.5,17,0.5,25.5-0.1c1.9-0.1,1.9-3.1,0-3c-8.5,0.6-17,0.6-25.5,0.1
				C-2113.4,1358.4-2113.4,1361.4-2111.5,1361.5L-2111.5,1361.5z"/>
		</g>
	</g>
	<g class="st7">
		<g>
			<path class="st8" d="M-2111.3,1364.4c7.9,1,15.9,0.9,23.9-0.1c0.8-0.1,1.5-0.6,1.5-1.5c0-0.7-0.7-1.6-1.5-1.5
				c-7.9,1-15.9,1.1-23.9,0.1C-2113.2,1361.2-2113.2,1364.2-2111.3,1364.4L-2111.3,1364.4z"/>
		</g>
	</g>
	<g class="st7">
		<g>
			<path class="st8" d="M-2111,1365.5c8.5,1.1,17,0.9,25.5-0.5c1.9-0.3,1.1-3.2-0.8-2.9c-8.1,1.4-16.5,1.5-24.7,0.4
				c-0.8-0.1-1.5,0.8-1.5,1.5C-2112.5,1364.9-2111.8,1365.4-2111,1365.5L-2111,1365.5z"/>
		</g>
	</g>
	<g class="st7">
		<g>
			<path class="st8" d="M-2108.8,1365.2c4,1.1,8.1,1.1,12.2,0.9c4.4-0.2,8.7-0.5,13.1-0.8c1.9-0.2,1.9-3.2,0-3
				c-4.2,0.4-8.4,0.6-12.6,0.8c-4,0.2-8,0.3-11.9-0.8C-2109.9,1361.8-2110.7,1364.7-2108.8,1365.2L-2108.8,1365.2z"/>
		</g>
	</g>
	<g class="st7">
		<g>
			<path class="st8" d="M-2103.1,1368.2c5,0.1,10-0.1,15-0.7c2.1-0.2,12.4-0.5,10.3-4.7c-0.9-1.7-3.5-0.2-2.6,1.5
				c0,0.1,0.1,0.1,0.1,0.2c-0.1-0.4-0.1-0.8-0.1-1.2c0.3-0.3,0.3-0.4-0.2-0.1c-0.2,0.1-0.4,0.1-0.6,0.2c-0.4,0.1-0.8,0.2-1.2,0.3
				c-0.9,0.2-1.9,0.3-2.9,0.4c-1.9,0.2-3.9,0.5-5.8,0.6c-4,0.3-8,0.4-12,0.4C-2105.1,1365.1-2105.1,1368.1-2103.1,1368.2
				L-2103.1,1368.2z"/>
		</g>
	</g>
	<g class="st7">
		<g>
			<path class="st8" d="M-2097.5,1367.8c3.8,0,7.6-0.2,11.4-0.4c1.9-0.1,3.7-0.3,5.6-0.5c1.7-0.2,3.5-0.4,5.1-1
				c0.8-0.3,1.3-1,1.1-1.8c-0.2-0.7-1.1-1.3-1.9-1.1c-1.6,0.7-3.3,0.8-5,1c-1.8,0.2-3.6,0.3-5.4,0.4c-3.6,0.2-7.3,0.4-10.9,0.4
				C-2099.4,1364.8-2099.4,1367.8-2097.5,1367.8L-2097.5,1367.8z"/>
		</g>
	</g>
	<g class="st7">
		<g>
			<path class="st8" d="M-2092.4,1366.3c8.3,0.3,16.6-0.9,24.5-3.6c1.8-0.6,1-3.5-0.8-2.9c-7.6,2.6-15.6,3.8-23.7,3.5
				C-2094.3,1363.2-2094.3,1366.2-2092.4,1366.3L-2092.4,1366.3z"/>
		</g>
	</g>
	<g class="st7">
		<g>
			<path class="st8" d="M-2091.7,1359C-2091.7,1359-2091.7,1358.9-2091.7,1359c-0.3-0.7-1.1-0.9-1.7-0.8c-0.4,0.1-0.9,0.4-1.1,0.8
				c-0.2,0.6-0.3,1.4,0.2,1.8c0.8,0.7,1.6,0.6,2.6,0.5c1.2-0.1,2.3-0.1,3.5-0.2c2.2-0.1,4.4-0.2,6.5-0.4c4.2-0.2,8.5-0.5,12.5-1.8
				c1.8-0.6,1-3.5-0.8-2.9c-3.6,1.2-7.4,1.4-11.2,1.7c-2,0.1-4,0.2-6.1,0.3c-1.9,0.1-3.9,0.4-5.8,0.3c0.4,0.2,0.7,0.3,1.1,0.4
				c-0.1,0-0.1-0.1-0.1-0.1c0.1,0.6,0.2,1.2,0.2,1.8c0,0,0-0.1,0.1-0.1c-0.3,0.2-0.6,0.5-0.9,0.7c0,0,0.1,0,0.1,0
				c-0.6-0.2-1.1-0.5-1.7-0.7c0,0,0,0.1,0,0.1C-2093.5,1362.3-2090.9,1360.8-2091.7,1359L-2091.7,1359z"/>
		</g>
	</g>
	<g class="st7">
		<g>
			<path class="st8" d="M-2094.8,1362.2c8.1,0.1,16.3-1.2,23.9-3.9c1.8-0.6,1-3.5-0.8-2.9c-7.4,2.6-15.2,3.9-23.1,3.8
				C-2096.7,1359.2-2096.7,1362.2-2094.8,1362.2L-2094.8,1362.2z"/>
		</g>
	</g>
	<g class="st7">
		<g>
			<path class="st8" d="M-2094.3,1364.6c4.7,0.2,9.5,0,14.2-0.6c2.2-0.3,4.5-0.7,6.7-1.3c1.4-0.4,4.5-1.8,3-3.8
				c-0.5-0.6-1.3-1-2.1-0.5c0,0-0.1,0-0.1,0.1c-1.6,1-0.1,3.6,1.5,2.6c0,0,0.1,0,0.1-0.1c-0.7-0.2-1.4-0.4-2.1-0.5
				c0.4-1,0.3-1.3-0.2-0.9c-0.1,0.1-0.3,0.1-0.5,0.2c-0.4,0.1-0.9,0.2-1.3,0.3c-0.8,0.2-1.7,0.4-2.5,0.5c-1.9,0.3-3.7,0.6-5.6,0.8
				c-3.7,0.4-7.5,0.5-11.2,0.3C-2096.2,1361.5-2096.2,1364.5-2094.3,1364.6L-2094.3,1364.6z"/>
		</g>
	</g>
	<g class="st7">
		<g>
			<path class="st8" d="M-2093.4,1365.2c8.1,0,16.2-1.1,23.9-3.5c1.8-0.6,1.1-3.4-0.8-2.9c-7.5,2.3-15.3,3.4-23.1,3.4
				C-2095.4,1362.2-2095.4,1365.2-2093.4,1365.2L-2093.4,1365.2z"/>
		</g>
	</g>
	<g class="st7">
		<g>
			<path class="st8" d="M-2089.4,1366.4c8.1,0.9,16.4-0.1,24.1-2.8c1.8-0.7,1-3.6-0.8-2.9c-7.5,2.7-15.4,3.7-23.4,2.7
				C-2091.3,1363.2-2091.2,1366.2-2089.4,1366.4L-2089.4,1366.4z"/>
		</g>
	</g>
	<g class="st7">
		<g>
			<path class="st8" d="M-2082.3,1368.3c1.6,0.9,3.3,0.9,5.1,0.7c1.9-0.2,3.8-0.6,5.7-1c3.8-0.9,7.5-2.2,11.1-3.8
				c1.8-0.8,0.2-3.4-1.5-2.6c-3.1,1.4-6.3,2.6-9.6,3.4c-1.6,0.4-3.3,0.7-4.9,1c-1.4,0.2-3,0.5-4.2-0.2
				C-2082.4,1364.7-2083.9,1367.3-2082.3,1368.3L-2082.3,1368.3z"/>
		</g>
	</g>
	<g class="st7">
		<g>
			<path class="st8" d="M-2077.9,1368.2c7.3,0.4,14.6-1.2,21.1-4.7c1.7-0.9,0.2-3.5-1.5-2.6c-6,3.2-12.8,4.7-19.5,4.3
				C-2079.9,1365.1-2079.9,1368.1-2077.9,1368.2L-2077.9,1368.2z"/>
		</g>
	</g>
	<g class="st7">
		<g>
			<path class="st8" d="M-2073.4,1365c7.2,0,14.6-1.4,20.4-6.1c0.6-0.5,0.5-1.6,0-2.1c-0.6-0.6-1.5-0.5-2.1,0
				c-5.1,4.2-11.9,5.2-18.2,5.2C-2075.3,1362-2075.3,1365-2073.4,1365L-2073.4,1365z"/>
		</g>
	</g>
	<g class="st7">
		<g>
			<path class="st8" d="M-2074.5,1361c3.3-0.1,6.5-0.4,9.7-1.1c2.9-0.6,6.2-1.2,8.4-3.3c1.4-1.3-0.7-3.4-2.1-2.1
				c-0.9,0.8-2.1,1.2-3.3,1.6c-1.3,0.4-2.7,0.7-4.1,1c-2.8,0.6-5.7,0.9-8.6,0.9C-2076.5,1358-2076.5,1361-2074.5,1361L-2074.5,1361z
				"/>
		</g>
	</g>
	<g class="st7">
		<g>
			<path class="st8" d="M-2077.7,1357.4c4,0.8,8.1,0.1,11.9-1.4c1.8-0.7,3.6-1.5,5.4-2.4c1.7-0.8,3.2-1.7,3.9-3.5
				c0.3-0.8-0.3-1.7-1.1-1.8c-0.9-0.2-1.5,0.3-1.9,1.1c-0.2,0.5-0.8,0.8-1.3,1c-0.7,0.4-1.4,0.7-2.1,1.1c-1.5,0.7-3,1.4-4.5,1.9
				c-3.1,1.1-6.4,1.7-9.6,1.1C-2078.8,1354.2-2079.6,1357-2077.7,1357.4L-2077.7,1357.4z"/>
		</g>
	</g>
	<g class="st7">
		<g>
			<path class="st8" d="M-2078.9,1356.9c1.6,0.7,3.1,0.7,4.9,0.5c1.6-0.2,3.3-0.5,4.9-0.9c3.3-0.7,6.5-1.7,9.5-3.3
				c1.7-0.9,0.2-3.5-1.5-2.6c-2.6,1.4-5.3,2.3-8.2,2.9c-1.4,0.3-2.9,0.6-4.3,0.8c-1.2,0.2-2.6,0.5-3.7,0c-0.7-0.3-1.6-0.2-2.1,0.5
				C-2079.8,1355.5-2079.6,1356.6-2078.9,1356.9L-2078.9,1356.9z"/>
		</g>
	</g>
	<g class="st7">
		<g>
			<path class="st8" d="M-2080.5,1357c7,0.6,14.2-1.2,20.1-5.1c1.6-1.1,0.1-3.7-1.5-2.6c-5.5,3.7-12,5.3-18.5,4.7
				C-2082.4,1353.8-2082.4,1356.8-2080.5,1357L-2080.5,1357z"/>
		</g>
	</g>
	<g class="st7">
		<g>
			<path class="st8" d="M-2081.7,1356.9c6.5-0.2,12.9-1.3,19-3.5c1.8-0.6,1-3.5-0.8-2.9c-5.9,2-12,3.2-18.2,3.4
				C-2083.6,1353.9-2083.6,1356.9-2081.7,1356.9L-2081.7,1356.9z"/>
		</g>
	</g>
	<g class="st7">
		<g>
			<path class="st8" d="M-2079.3,1358.8c5.1,0.6,10.2,0,15-1.7c0.8-0.3,1.3-1,1.1-1.8c-0.2-0.7-1.1-1.3-1.9-1.1
				c-4.6,1.6-9.4,2.2-14.2,1.6c-0.8-0.1-1.5,0.8-1.5,1.5C-2080.8,1358.2-2080.1,1358.7-2079.3,1358.8L-2079.3,1358.8z"/>
		</g>
	</g>
	<g class="st7">
		<g>
			<path class="st8" d="M-2073.1,1361.5c3.1-0.4,6.1-1.1,9-1.9c1.5-0.4,2.9-0.9,4.4-1.4c1.2-0.4,2.5-0.8,3.4-1.9
				c0.5-0.6,0.6-1.5,0-2.1c-0.5-0.5-1.6-0.6-2.1,0c-0.7,0.9-1.9,1.1-2.9,1.4c-1.4,0.4-2.7,0.9-4.1,1.2c-2.8,0.8-5.6,1.3-8.4,1.8
				c-0.8,0.1-1.2,1.1-1.1,1.8C-2074.7,1361.3-2073.9,1361.6-2073.1,1361.5L-2073.1,1361.5z"/>
		</g>
	</g>
	<g class="st7">
		<g>
			<path class="st8" d="M-2073,1362.3c6.7-0.3,13.2-2.2,18.8-5.8c1.6-1,0.1-3.6-1.5-2.6c-5.2,3.2-11.2,5.1-17.3,5.3
				C-2074.9,1359.4-2074.9,1362.4-2073,1362.3L-2073,1362.3z"/>
		</g>
	</g>
	<g class="st7">
		<g>
			<path class="st8" d="M-2068.1,1363.7c3.5,0.7,6.8-0.5,10-1.8c2.8-1.2,5.4-2.4,7.3-4.9c0.5-0.7,0.1-1.7-0.5-2.1
				c-0.8-0.4-1.6-0.1-2.1,0.5c-1.4,1.9-3.8,2.8-5.9,3.7c-2.5,1-5.2,2.2-7.9,1.6c-0.8-0.2-1.6,0.2-1.9,1.1
				C-2069.4,1362.6-2068.9,1363.6-2068.1,1363.7L-2068.1,1363.7z"/>
		</g>
	</g>
	<g class="st7">
		<g>
			<path class="st8" d="M-2068.8,1366c1.2,1.3,3,0.8,4.6,0.5c1.7-0.3,3.3-0.7,4.9-1.3c3.2-1.1,6.3-2.6,9.1-4.5
				c1.6-1.1,0.1-3.7-1.5-2.6c-2.4,1.6-4.9,2.9-7.5,3.9c-1.3,0.5-2.7,0.9-4.1,1.2c-0.7,0.2-1.3,0.3-2,0.4c-0.3,0.1-0.6,0.1-1,0.2
				c-0.1,0-0.3,0-0.5,0c-0.1,0-0.1,0,0.1,0C-2068,1362.5-2070.1,1364.6-2068.8,1366L-2068.8,1366z"/>
		</g>
	</g>
	<g class="st7">
		<g>
			<path class="st8" d="M-2063.4,1360.4c4.6-0.8,9.4-1.8,13-5.1c0.6-0.5,0.6-1.6,0-2.1c-0.6-0.6-1.5-0.6-2.1,0
				c-3.2,2.9-7.6,3.6-11.7,4.3c-0.8,0.1-1.2,1.1-1.1,1.8C-2065,1360.2-2064.2,1360.6-2063.4,1360.4L-2063.4,1360.4z"/>
		</g>
	</g>
	<g class="st7">
		<g>
			<path class="st8" d="M-2069.4,1355.8c5.2,0.6,10.5-0.4,15.1-2.9c1.7-0.9,0.2-3.5-1.5-2.6c-4.2,2.2-8.9,3.1-13.6,2.5
				c-0.8-0.1-1.5,0.8-1.5,1.5C-2070.9,1355.2-2070.2,1355.7-2069.4,1355.8L-2069.4,1355.8z"/>
		</g>
	</g>
	<g class="st7">
		<g>
			<path class="st8" d="M-2070.6,1356.4c5.1,0.2,10.2-0.6,14.9-2.4c0.8-0.3,1.3-1,1.1-1.8c-0.2-0.7-1.1-1.3-1.9-1.1
				c-4.5,1.7-9.3,2.5-14.1,2.3C-2072.6,1353.3-2072.6,1356.3-2070.6,1356.4L-2070.6,1356.4z"/>
		</g>
	</g>
	<g class="st7">
		<g>
			<path class="st8" d="M-2069.1,1356.2c3.9,0,7.8-0.5,11.6-1.4c0.8-0.2,1.2-1.1,1.1-1.8c-0.2-0.8-1.1-1.2-1.9-1.1
				c-3.6,0.8-7.2,1.2-10.9,1.2C-2071,1353.3-2071,1356.3-2069.1,1356.2L-2069.1,1356.2z"/>
		</g>
	</g>
	<g class="st7">
		<g>
			<path class="st8" d="M-2065.3,1358.1c2,0.2,3.9,0,5.9-0.3c0.8-0.2,1.3-1.1,1.1-1.8c-0.3-0.8-1-1.2-1.9-1.1
				c-0.2,0-0.4,0.1-0.7,0.1c-0.1,0-0.2,0.1-0.4,0.1c0.1,0,0.1,0,0.2,0c-0.1,0-0.1,0-0.2,0c-0.4,0.1-0.9,0.1-1.3,0.1
				c-0.9,0.1-1.8,0-2.7-0.1c-0.8-0.1-1.5,0.7-1.5,1.5C-2066.8,1357.5-2066.2,1358-2065.3,1358.1L-2065.3,1358.1z"/>
		</g>
	</g>
	<g class="st7">
		<g>
			<path class="st8" d="M-2103.9,1369.9c-3.6,13.6-5.9,27.4-6.8,41.4c-0.1,1.9,2.9,1.9,3,0c1-13.7,3.2-27.3,6.7-40.6
				C-2100.5,1368.8-2103.4,1368.1-2103.9,1369.9L-2103.9,1369.9z"/>
		</g>
	</g>
	<g class="st7">
		<g>
			<path class="st8" d="M-2106.9,1386.6c-4,15.3-7.6,30.8-10.9,46.3c-0.4,1.9,2.5,2.7,2.9,0.8c3.2-15.5,6.8-31,10.9-46.3
				C-2103.6,1385.6-2106.4,1384.8-2106.9,1386.6L-2106.9,1386.6z"/>
		</g>
	</g>
	<g class="st7">
		<g>
			<path class="st8" d="M-2114.5,1422.6c-0.1,4-0.1,8,0.2,12c0.1,0.8,0.6,1.5,1.5,1.5c0.8,0,1.6-0.7,1.5-1.5c-0.2-4-0.3-8-0.2-12
				C-2111.4,1420.6-2114.4,1420.6-2114.5,1422.6L-2114.5,1422.6z"/>
		</g>
	</g>
	<g class="st7">
		<g>
			<path class="st8" d="M-2104.5,1458.7c0.1,0,0.2,0,0.3,0c0.2,0,0.4,0,0.6-0.1c0.2-0.1,0.4-0.2,0.5-0.3c0.1-0.1,0.2-0.3,0.3-0.5
				c0.1-0.2,0.1-0.4,0.1-0.6c0-0.1,0-0.3-0.1-0.4c-0.1-0.2-0.2-0.5-0.4-0.7c-0.1-0.1-0.2-0.2-0.3-0.2c-0.2-0.1-0.5-0.2-0.8-0.2
				c-0.1,0-0.2,0-0.3,0c-0.2,0-0.4,0-0.6,0.1c-0.2,0.1-0.4,0.2-0.5,0.3c-0.1,0.1-0.2,0.3-0.3,0.5c-0.1,0.2-0.1,0.4-0.1,0.6
				c0,0.1,0,0.3,0.1,0.4c0.1,0.2,0.2,0.5,0.4,0.7c0.1,0.1,0.2,0.2,0.3,0.2C-2105,1458.6-2104.8,1458.7-2104.5,1458.7L-2104.5,1458.7
				z"/>
		</g>
	</g>
	<g class="st7">
		<g>
			<path class="st8" d="M-2095.6,1456.2c0.1-0.1,0.2-0.2,0.3-0.3c0.1-0.1,0.2-0.3,0.3-0.5c0.1-0.2,0.1-0.4,0.1-0.6
				c0-0.2,0-0.4-0.1-0.6c-0.1-0.2-0.2-0.3-0.3-0.5c-0.1-0.1-0.2-0.2-0.3-0.2c-0.2-0.1-0.5-0.2-0.8-0.2c-0.1,0-0.3,0-0.4,0.1
				c-0.2,0.1-0.5,0.2-0.7,0.4c-0.1,0.1-0.2,0.2-0.3,0.3c-0.1,0.1-0.2,0.3-0.3,0.5c-0.1,0.2-0.1,0.4-0.1,0.6c0,0.2,0,0.4,0.1,0.6
				c0.1,0.2,0.2,0.3,0.3,0.5c0.1,0.1,0.2,0.2,0.3,0.2c0.2,0.1,0.5,0.2,0.8,0.2c0.1,0,0.3,0,0.4-0.1
				C-2096,1456.5-2095.8,1456.4-2095.6,1456.2L-2095.6,1456.2z"/>
		</g>
	</g>
	<g class="st7">
		<g>
			<path class="st8" d="M-2090.1,1453.1c0-0.1,0-0.2,0-0.3c0-0.2,0-0.4-0.1-0.6c-0.1-0.2-0.2-0.3-0.3-0.5c-0.1-0.2-0.3-0.2-0.5-0.3
				c-0.2-0.1-0.4-0.1-0.6-0.1c-0.1,0-0.3,0-0.4,0.1c-0.2,0.1-0.5,0.2-0.7,0.4c-0.1,0.1-0.2,0.2-0.2,0.3c-0.1,0.2-0.2,0.5-0.2,0.8
				c0,0.1,0,0.2,0,0.3c0,0.2,0,0.4,0.1,0.6c0.1,0.2,0.2,0.3,0.3,0.5c0.1,0.2,0.3,0.2,0.5,0.3c0.2,0.1,0.4,0.1,0.6,0.1
				c0.1,0,0.3,0,0.4-0.1c0.2-0.1,0.5-0.2,0.7-0.4c0.1-0.1,0.2-0.2,0.2-0.3C-2090.1,1453.6-2090.1,1453.4-2090.1,1453.1
				L-2090.1,1453.1z"/>
		</g>
	</g>
	<g class="st7">
		<g>
			<path class="st8" d="M-2085.8,1451.2c1.9,0,1.9-3,0-3S-2087.7,1451.2-2085.8,1451.2L-2085.8,1451.2z"/>
		</g>
	</g>
	<g class="st7">
		<g>
			<path class="st8" d="M-2079.6,1446.9c0.2-0.1,0.4-0.2,0.7-0.3c0.2-0.1,0.3-0.2,0.4-0.4c0.1-0.1,0.2-0.3,0.3-0.5
				c0.1-0.2,0.1-0.4,0-0.6c0-0.2-0.1-0.4-0.2-0.6c-0.1-0.1-0.2-0.2-0.2-0.3c-0.2-0.2-0.4-0.3-0.7-0.4c-0.1,0-0.3,0-0.4-0.1
				c-0.3,0-0.5,0.1-0.8,0.2c-0.2,0.1-0.4,0.2-0.7,0.3c-0.2,0.1-0.3,0.2-0.4,0.4c-0.1,0.1-0.2,0.3-0.3,0.5c-0.1,0.2-0.1,0.4,0,0.6
				c0,0.2,0.1,0.4,0.2,0.6c0.1,0.1,0.2,0.2,0.2,0.3c0.2,0.2,0.4,0.3,0.7,0.4c0.1,0,0.3,0,0.4,0.1
				C-2080.1,1447.1-2079.8,1447.1-2079.6,1446.9L-2079.6,1446.9z"/>
		</g>
	</g>
	<g class="st7">
		<g>
			<path class="st8" d="M-2074.9,1443c1.9,0,1.9-3,0-3S-2076.8,1443-2074.9,1443L-2074.9,1443z"/>
		</g>
	</g>
	<g class="st7">
		<g>
			<path class="st8" d="M-2103.8,1452.9c1.9,0,1.9-3,0-3S-2105.7,1452.9-2103.8,1452.9L-2103.8,1452.9z"/>
		</g>
	</g>
	<g class="st7">
		<g>
			<path class="st8" d="M-2097,1450.2c1.9,0,1.9-3,0-3S-2098.9,1450.2-2097,1450.2L-2097,1450.2z"/>
		</g>
	</g>
	<g class="st7">
		<g>
			<path class="st8" d="M-2088.5,1445.8c1.9,0,1.9-3,0-3S-2090.4,1445.8-2088.5,1445.8L-2088.5,1445.8z"/>
		</g>
	</g>
	<g class="st7">
		<g>
			<path class="st8" d="M-2082.4,1442c1.9,0,1.9-3,0-3S-2084.3,1442-2082.4,1442L-2082.4,1442z"/>
		</g>
	</g>
	<g class="st7">
		<g>
			<path class="st8" d="M-2076.2,1438.9c1.9,0,1.9-3,0-3S-2078.2,1438.9-2076.2,1438.9L-2076.2,1438.9z"/>
		</g>
	</g>
	<g class="st7">
		<g>
			<path class="st8" d="M-2075.2,1436.4c4.4-3.6,9-6.8,13.9-9.7c1.6-1,0.1-3.6-1.5-2.6c-5.1,3.1-9.9,6.4-14.4,10.2
				c-0.6,0.5-0.5,1.6,0,2.1C-2076.8,1437-2075.9,1436.9-2075.2,1436.4L-2075.2,1436.4z"/>
		</g>
	</g>
	<g class="st7">
		<g>
			<path class="st8" d="M-2072.4,1442.7c6.7-5.4,14.2-9.9,22.1-13.2c0.8-0.3,1.3-1,1.1-1.8c-0.2-0.7-1.1-1.4-1.9-1.1
				c-8.4,3.6-16.3,8.2-23.4,14C-2076,1441.8-2073.9,1443.9-2072.4,1442.7L-2072.4,1442.7z"/>
		</g>
	</g>
	<g class="st7">
		<g>
			<path class="st8" d="M-2055,1431.4c17.4-10,34.8-19.9,52.1-30.1c7.8-4.6,15.5-9.6,22.5-15.4c7.2-6,13.3-13,19-20.4
				c10.9-14.1,19.9-30,23.9-47.5c4.1-18,3.4-36.6,4.4-54.9c0.5-9.1,1.5-18.1,3.8-26.9c2.4-9.2,6.4-17.8,11.1-26.1
				c1.1-2,2.3-4,3.4-6.1c1-1.7-1.6-3.2-2.6-1.5c-4.6,8.1-9.3,16.3-12.5,25.2c-3,8.5-4.6,17.5-5.5,26.4c-1.8,18.3-0.7,36.8-3.5,55
				c-1.3,8.9-3.7,17.6-7.4,25.8c-3.6,8.1-8.1,15.7-13.2,23c-5.3,7.5-11.1,14.8-17.8,21.2c-6.6,6.3-14.1,11.6-21.9,16.4
				c-8.1,5-16.4,9.7-24.7,14.4c-8.8,5.1-17.6,10.1-26.3,15.2c-2.2,1.2-4.3,2.5-6.5,3.7C-2058.2,1429.8-2056.7,1432.4-2055,1431.4
				L-2055,1431.4z"/>
		</g>
	</g>
	<g class="st7">
		<g>
			<path class="st8" d="M-2070.1,1431.6c20.8-12.2,41.4-25,61.6-38.3c10.1-6.7,20.2-13.5,30.1-20.4c8.7-6,17.6-12.3,22.6-21.9
				c5-9.4,6.2-20.2,7-30.7c0.9-12.2,0.9-24.5,0.2-36.7c-0.3-6.1-0.8-12.3,0.2-18.4c0.9-5.7,3-11.1,5.4-16.3
				c4.2-9.2,8.8-18.2,13.8-26.8c9.9-16.8,22.2-32.8,38.7-43.5c2-1.3,4.1-2.5,6.2-3.7c1.7-0.9,0.2-3.5-1.5-2.6
				c-17.3,9.3-30.7,24.2-41.3,40.6c-5.4,8.4-10.2,17.2-14.6,26.1c-4.9,10.1-9.8,20.2-10.3,31.6c-0.3,6.1,0.3,12.1,0.6,18.2
				c0.3,6.1,0.3,12.3,0.2,18.4c-0.3,11.1-0.7,22.7-3.8,33.5c-1.5,5.1-3.7,10-7,14.2c-3.3,4.2-7.4,7.7-11.7,10.8
				c-9.5,7-19.3,13.5-29.1,20c-20.1,13.4-40.6,26.3-61.3,38.7c-2.6,1.5-5.1,3-7.7,4.5C-2073.3,1429.9-2071.8,1432.5-2070.1,1431.6
				L-2070.1,1431.6z"/>
		</g>
	</g>
</g>
<g id="Layer_5">
	<g>
		<g class="st9">
			<path class="st3" d="M138.4,554.7c3.9-1.1,5.5-4.8,4.8-8.5c-6.7-38.8-13.3-77.6-18.5-116.6c-4.2-31.7-8.1-63.5-10.3-95.4
				c-1-15.3-1.6-30.6-1.2-45.9c0.2-7.6,0.6-15.2,1.3-22.7c0.2-1.8,0.3-3.5,0.5-5.3c0.1-0.9,0.2-1.9,0.3-2.8c0.1-0.5,0.1-0.9,0.2-1.4
				c0-0.1,0.2-1.3,0.2-1.3c0.1-0.9,0.4-3.1,0.7-4.5c0.3-2,0.6-3.9,1-5.9c0.8-4.6,1.8-9.1,2.9-13.7c1.5,2.4,3.1,4.6,4.8,6.8
				c4.7,5.9,10.5,10.9,17,14.8c3.6,2.1,8.9,0.9,10.9-2.9c2-3.9,1-8.6-2.9-10.9c-1-0.6-2-1.3-3-1.9c-0.5-0.3-1-0.7-1.5-1.1
				c-0.2-0.1-0.4-0.3-0.6-0.5c0.1,0.1,0.1,0.1,0.2,0.1c-1.9-1.6-3.7-3.2-5.4-5.1c-0.8-0.9-1.6-1.8-2.4-2.7c-0.3-0.4-0.6-0.8-1-1.2
				c1.5,1.6,0,0-0.3-0.4c-1.4-2-2.8-4.1-3.9-6.4c-0.6-1.1-1.1-2.1-1.6-3.2c0-0.1-0.1-0.1-0.1-0.2c0,0,0,0,0-0.1
				c-0.2-0.6-0.5-1.3-0.7-1.9c-0.7-1.9-1.4-3.8-2.8-5.3c0.2-0.6,0.5-1.3,0.7-1.9c0.3-0.8,0.6-1.5,0.9-2.3c0.2-0.4,0.3-0.9,0.5-1.3
				c0,0,0.4-0.8,0.5-1.1c2.9-6.8,6.2-13.4,10-19.7c1.9-3.2,4-6.4,6.1-9.5c2.3-3.4,4-5.6,6.2-8.3c5.4-6.6,11.1-12.9,17.5-18.6
				c5.7-5,12.8-10,19.9-12.5c1.6-0.6,3.3-1,4.9-1.4c-0.3,0.6-0.6,1.2-0.9,1.8c-5.6,11.8-8.2,26.7,1.4,37.3
				c11.8,13,33.8,10.3,42.9-4.3c9.3-14.9,0.8-33.4-12.3-42.8c-1.4-1-2.8-1.9-4.3-2.6c2.4-2,4.2-3.4,6.9-5.3c3.1-2.2,6.3-4.2,9.6-6.1
				c3.3-1.9,6.6-3.6,10-5.1c2.2-1,2.1-1,4.1-1.8c1.7-0.7,3.5-1.3,5.2-1.9c7-2.4,14.2-4.2,21.5-5.5c1.8-0.3,3.5-0.6,5.3-0.8
				c0.3,0,1.7-0.2,1.9-0.2c1-0.1,2.1-0.2,3.1-0.3c3.7-0.4,7.5-0.6,11.2-0.7c7.6-0.2,15.1-0.1,22.7,0.5c3.8,0.3,7.6,0.7,11.4,1.2
				c0.2,0,1.6,0.2,1.6,0.2c0.9,0.1,1.7,0.2,2.6,0.4c2,0.3,4,0.6,6,1c16.5,2.8,32.5,8,49,10.6c9.8,1.5,19.6,2.5,29.5,2.9
				c-0.6,0.6-1.3,1.2-2,1.7c-4.8,4.2-9.6,8.4-14.4,12.6c-3.1,2.8-3,8.5,0,11.3c3.4,3.1,7.9,2.9,11.3,0c8.4-7.3,16.7-14.7,25.1-22
				c1.3-1.2,2.7-2.3,3.7-3.7c1.5-0.1,3.1-0.1,4.7-0.2c19.6-1.1,39-3.8,58.3-7.3c9.8-1.8,19.6-3.8,29.4-5.8c8.1-1.7,14.2-3,22.6-2.4
				c2.6,0.2,5.8,0.9,9.2,2.1c0.1,0.1,0.2,0.1,0.3,0.1c0.4,0.2,0.9,0.4,1.3,0.6c0.9,0.4,1.8,0.9,2.6,1.4c1.9,1.2,2.7,1.8,4.3,3.2
				c2.8,2.5,7,2.8,9.8,0c2.5-2.5,2.8-7.3,0-9.8c-7.3-6.5-15.8-10.2-25.4-11.3c-8.5-1-17.2,0.4-25.5,2.1c-19.8,4.1-40,8.3-59.8,10.8
				c-11.2,1.4-22.5,2.4-33.9,2.8c-0.8-0.7-1.6-1.4-2.4-2.2c-4-3.7-8.1-7.4-12.1-11.1c-4.7-4.3-9.4-8.6-14.1-12.8
				c-3.1-2.8-8.3-3.3-11.3,0c-2.8,3.1-3.3,8.3,0,11.3c5.1,4.7,10.2,9.3,15.3,13.9c0.3,0.2,0.5,0.5,0.8,0.7c-0.8,0-1.6-0.1-2.4-0.1
				c-9.8-0.6-19.1-1.7-28.6-3.5c-8.9-1.7-17.6-4.3-26.4-6.3c-31.6-7.1-65-9.9-96.8-2.4c-15.7,3.7-30.9,10.2-44.1,19.3
				c-6.1,4.2-11.9,8.7-17,14c-11.4-0.5-23.2,3.3-32.6,9.2c-15.3,9.5-27.9,24-38.2,38.6c-9.3,13.2-16.4,27.7-21.7,42.9
				c-0.1,0.2-0.2,0.5-0.2,0.7c-1.4,0.9-2.7,1.8-4,2.6c-2.6,1.6-5.3,3.2-7.9,4.8c-6.2,3.8-12.4,7.6-18.6,11.4
				c-3.6,2.2-5.2,7.2-2.9,10.9c2.3,3.6,7.1,5.2,10.9,2.9c5.3-3.2,10.6-6.5,15.9-9.8c-5.2,23.2-6.8,47.4-6.6,71.1
				c0.3,31.8,4,63.5,7.7,95c4.8,40.9,10.8,81.5,17.7,122c1.7,10.1,3.4,20.2,5.2,30.2C130.6,553.6,135.1,555.7,138.4,554.7z
				 M571,96.7C571.9,97,571.3,96.8,571,96.7L571,96.7z M223.1,140.6c0.1,0.2,0.4,0.5,0.4,0.5c0.6,0.8,1.1,1.6,1.5,2.4
				c0.4,0.7,0.8,1.5,1.2,2.2c0,0.1,0.1,0.3,0.2,0.4c0.1,0.2,0.1,0.3,0.2,0.5c0.3,0.8,0.5,1.6,0.7,2.3c0.1,0.4,0.2,0.8,0.3,1.2
				c0.1,0.2,0.1,0.4,0.1,0.6c0.1,1.4,0,2.7,0,4.1c0,0,0,0,0,0c-0.1,0.4-0.2,0.8-0.3,1.2c-0.1,0.3-0.7,2.1-0.6,1.9
				c-0.3,0.7-0.7,1.3-1.1,1.9c-0.2,0.3-0.4,0.6-0.6,0.9c0,0,0,0-0.1,0.1c-0.6,0.7-1.2,1.2-1.8,1.9c-0.1,0.1-0.1,0.1-0.1,0.1
				c-0.4,0.3-0.9,0.6-1.3,0.9c-0.6,0.4-1.3,0.7-2,1.1c0-0.1-1.5,0.5-1.8,0.6c-0.3,0.1-0.6,0.2-0.9,0.2c-0.1,0-0.5,0.1-0.7,0.1
				c-0.2,0-0.6,0.1-0.7,0.1c-0.5,0-1.1,0.1-1.6,0c-0.4,0-0.9,0-1.3-0.1c0.3,0,1.3,0.3-0.1,0c-0.9-0.2-1.7-0.4-2.5-0.7
				c0,0-0.2-0.1-0.3-0.1c-0.2-0.1-0.5-0.2-0.6-0.2c-0.8-0.4-1.5-0.8-2.2-1.2c-0.4-0.3-1.9-1.6-0.7-0.4c-0.5-0.5-1-0.9-1.4-1.4
				c-0.1-0.1-0.6-0.7-0.8-0.9c0,0,0-0.1-0.1-0.1c-0.2-0.3-0.4-0.6-0.6-1c-0.3-0.5-0.7-2.1-0.3-0.4c-0.2-0.6-0.4-1.1-0.6-1.7
				c-0.1-0.5-0.2-1-0.4-1.6c0,0,0-0.1,0-0.1c0-0.2,0-0.5-0.1-0.6c-0.1-1.3-0.1-2.6,0.1-3.9c0-0.2,0-0.4,0.1-0.6
				c0.1-0.7,0.2-1.4,0.4-2.1c0.3-1.4,0.7-2.7,1.1-4c0.2-0.6,0.4-1.2,0.6-1.7c0.1-0.3,0.3-0.6,0.4-1c0,0,0,0,0,0c0,0,0,0,0,0
				c1.2-2.6,2.5-5,4-7.4c0.6-0.9,1.1-1.7,1.7-2.5c0.7,0.2,1.4,0.4,2.1,0.7c0.4,0.1,0.8,0.3,1.1,0.4c0.1,0,0.1,0.1,0.2,0.1
				c0.6,0.3,1.3,0.6,1.9,1c0.7,0.4,1.4,0.9,2.1,1.3c0.1,0,0.3,0.2,0.5,0.4c0.2,0.2,0.8,0.7,0.8,0.7c1.2,1,2.3,2.2,3.3,3.4
				C222.7,140.1,222.9,140.4,223.1,140.6z"/>
			<path class="st3" d="M564.1,455.2c-0.1,0-0.2,0-0.3,0c0,0,0,0,0,0C563.8,455.3,564,455.2,564.1,455.2z"/>
			<path class="st3" d="M627.1,319.5c-4.7-5.5-9.2-11.1-13.8-16.7c-2.3-2.9-4.7-5.9-7-8.9c-0.2-0.3-0.5-0.7-0.8-1
				c-0.1-0.1-0.1-0.1-0.2-0.2c-0.5-0.7-1.1-1.4-1.7-2.2c-0.2-0.3-0.5-0.7-0.8-1c0.2-16.9,1.1-33.7,2.5-50.6
				c2.7-34,9.6-68.2,4.5-102.3c-1.2-8.1-3.2-15.9-6-23.6c-1.3-3.5-4.7-5.9-8.5-4.8c-3.4,0.9-6.2,5-4.8,8.5
				c12.2,32.6,6.6,67.9,2.9,102c-2.4,22.6-4.2,45.5-4.4,68.3c-11.5,7.6-23,15.2-34.5,22.8c-2.6,1.7-4,5.4-2.2,8.2
				c1.7,2.6,5.4,4,8.2,2.1c9.5-6.3,19-12.6,28.5-18.9c0.2,9.9,0.8,19.8,1.7,29.7c0.9,9.4,2.1,18.7,3.2,28.1c0.9,8,2.1,16.1,1.5,24.2
				c0,0.8-0.1,1.6-0.2,2.4c0,0.1,0,0.2,0,0.3c-0.1,0.4-0.1,0.8-0.2,1.2c-0.3,1.8-0.7,3.5-1.2,5.2c-0.2,0.7-0.5,1.5-0.7,2.2
				c0,0.1-0.2,0.5-0.3,0.7c-0.1,0.2-0.3,0.6-0.3,0.7c-0.8,1.6-1.6,3.2-2.6,4.6c-0.1,0.2-0.8,1.1-0.9,1.3c-0.5,0.6-1.1,1.3-1.6,1.9
				c-0.6,0.6-1.2,1.2-1.8,1.7c-1,0.9-1.1,1-1.7,1.5c-1.5,1-3,2-4.5,2.8c-0.9,0.5-1.8,0.9-2.7,1.4c-1,0.5-1.1,0.5-1.9,0.8
				c-15.2,6-34.3,7.4-44.8,21.6c-5,6.7-6.3,16-3.5,23.9c2.4,6.7,6.8,12.1,12.2,16.6c-1.3,4.9-2.6,9.9-4.3,14.6
				c-0.1,0.2-0.2,0.5-0.3,0.7c0,0,0,0,0,0c-0.8,1.5-1.6,2.9-2.5,4.3c-1.1,1.6-1.5,2.2-2.5,3.3c-1.3,1.5-2.6,2.9-4.1,4.3
				c-5.3,5.1-11.7,8.9-18.9,12.4c-7.8,3.8-15.8,6.7-23.9,10c-8.2,3.4-16.2,7.2-24,11.3c-14.8,7.9-29,16.8-43.9,24.5
				c-1.5,0.8-2.9,1.5-4.4,2.2c-8.4-5.6-17.8-9.8-26.7-14.3c-2.8-1.4-6.6-0.8-8.2,2.2c-1.4,2.7-0.8,6.7,2.1,8.2
				c6.4,3.2,13.1,6.3,19.5,9.9c-9.3,3.8-19,6.8-29.2,8.8c-16.6,3.3-34,4.1-51.3,2.8c-16.8-1.3-33.5-5.3-50-10.1
				c-16.8-4.9-33.4-10.3-50.6-13.4c-9.1-1.6-18.3-2.7-27.5-2.8c-9.6,0-19.3,1.1-28.8,2.5c-8.9,1.4-17.8,3.2-26.6,4.9
				c-3.7,0.7-5.8,5.1-4.8,8.5c1.1,3.8,4.8,5.6,8.5,4.8c17.5-3.5,34.7-7.2,52.6-7c16.9,0.2,33,4,49.4,8.6s32.6,10.1,49.2,13.6
				c16.9,3.6,34.2,5.2,51.5,4.6c17.2-0.6,34.5-3.3,50.9-8.7c2.3-0.8,4.6-1.6,6.9-2.4c-2.1,5.3-4.1,10.6-6,15.9c-1,3,1.2,6.7,4.2,7.4
				c3.3,0.8,6.2-1,7.4-4.2c1.9-5.3,3.9-10.7,6-15.9c0.2-0.6,0.5-1.1,0.7-1.7c0.2-0.4,0.3-0.8,0.5-1.1c0.1-0.2,0.1-0.3,0.2-0.5
				c0-0.1,0.1-0.2,0.2-0.4c0.2-0.4,0.3-0.8,0.5-1.1c0.2-0.6,0.5-1.1,0.7-1.7c0.5-1.2,1.1-2.3,1.6-3.5c7.6-3.6,15-7.6,22.3-11.7
				c14.2-8,28.2-16.5,43-23.5c15-7.1,31.6-11.7,45.7-20.9c11.2-7.3,20.8-17.2,24.9-30.2c0.8-2.7,1.6-5.5,2.3-8.2
				c3.5,1.4,7.1,2.3,10.8,2.5c8.3,0.5,16.3-3.4,20.6-10.6c4.3-7.2,3.9-16.5-1.1-23.2c-4.2-5.6-11-9.5-18.2-8.9
				c-10.2,0.9-15.9,9.5-19.6,18.1c-0.2-0.2-0.4-0.5-0.6-0.7c0,0-0.7-0.9-0.8-1.1c-0.4-0.6-0.8-1.2-1.1-1.8c-0.2-0.3-0.8-1.6-0.8-1.5
				c-0.3-0.9-0.6-1.8-0.8-2.7c-0.1-0.4-0.2-0.7-0.2-1c0-0.1,0-0.1,0-0.2c0,0,0,0,0-0.1c-0.1-0.8-0.1-1.6-0.1-2.4
				c0-0.4,0-0.7,0.1-1.1c0-0.1,0.1-0.3,0.1-0.5c0.2-0.8,0.4-1.6,0.7-2.4c0,0,0.6-1.2,0.7-1.4c0.8-1.5,1.2-2,2.8-3.4
				c2.1-1.9,5.5-3.9,8.7-5.3c0.1,0,0.7-0.3,0.7-0.3c0.5-0.2,1-0.4,1.5-0.5c0.8-0.3,1.7-0.6,2.6-0.9c1.8-0.6,3.6-1.1,5.5-1.7
				c3.7-1.1,7.4-2.1,11.1-3.4c7.9-2.6,15.5-6.1,21.8-11.6c5.7-5,9.6-11.7,11.9-18.9c4.9-15.3,1.5-32.1-0.3-47.6
				c-1.5-13.3-2.8-26.5-3.4-39.8c5,6.3,10.1,12.5,15.3,18.6c2,2.4,6.4,2.2,8.5,0C629.4,325.4,629.2,322,627.1,319.5z M563.7,455.2
				c0,0-0.3,0-0.4,0c0,0,0,0,0,0c0,0,0.1,0,0.2,0C563.5,455.2,563.6,455.2,563.7,455.2z M560.1,457.8c0,0-0.1,0.2-0.3,0.4
				C560,457.9,560.1,457.8,560.1,457.8z M556,465.3c0.1-0.2,0.2-0.5,0.3-0.7c1-1.9,1.8-3.9,3-5.7c0-0.1,0.3-0.4,0.5-0.7
				c0.1-0.1,0.2-0.3,0.3-0.4c0.3-0.3,0.6-0.6,0.9-1c0.2-0.2,1.5-1.6,0.7-0.7c-0.8,0.8,0.1,0,0.4-0.3c0.3-0.2,0.6-0.3,0.9-0.5
				c0.2,0,0.4-0.1,0.6-0.2c0.1,0,0.1,0,0.1,0l0,0c0,0,0,0,0.1,0c0.2-0.1,0.3,0,0.3,0c0,0,0.1,0,0.2,0c0.3,0,0.6,0,1,0
				c0.1,0,0.2,0,0.3,0c0.3,0.1,0.5,0.1,0.8,0.2c0.1,0,0.6,0.2,0.8,0.3c0.2,0.1,0.3,0.1,0.3,0.2c0.3,0.2,0.6,0.3,0.8,0.5
				c-0.2-0.1,0.9,0.7,1.1,1c0.1,0.1,0.4,0.4,0.6,0.6c0.1,0.1,0.2,0.2,0.2,0.3c0.2,0.4,0.4,0.8,0.7,1.1c0.1,0.1,0.1,0.2,0.2,0.3
				c0,0,0,0.1,0,0.1c0.2,0.6,0.4,1.2,0.5,1.8c-0.1-0.2,0,1.1,0.1,1.5c0,0.1,0,0.1,0,0.2c0,0.3-0.1,0.6-0.2,0.9
				c-0.1,0.3-0.2,0.6-0.3,0.9c-0.1,0.1-0.2,0.5-0.3,0.7c-0.1,0.2-0.8,1.2-0.8,1.3c-0.4,0.5-0.9,0.9-1.3,1.4c0,0-0.1,0.1-0.1,0.1
				c0,0,0,0,0,0c-0.3,0.2-0.5,0.4-0.8,0.5c-0.3,0.2-0.6,0.3-0.9,0.5c-0.1,0-0.3,0.1-0.4,0.1c-0.3,0.1-1.8,0.3-1.7,0.4
				c-0.5,0-1.1,0.1-1.6,0.1c-0.6,0-1.2,0-1.8-0.1c-0.1,0-1.4-0.3-1.8-0.3c-1.3-0.3-3.6-1.1-4.2-1.4c-0.1,0-0.2-0.1-0.4-0.2
				c0.2-0.4,0.3-0.9,0.5-1.3C555.6,466.3,555.8,465.8,556,465.3z M595.3,386.3C595.3,386.6,595.3,386.5,595.3,386.3L595.3,386.3z
				 M605.3,292.6C605.2,292.4,605.1,292.3,605.3,292.6L605.3,292.6z"/>
			<path class="st3" d="M145.4,235.1C145.4,235.1,145.4,235.1,145.4,235.1C145.8,235.5,146.7,236,145.4,235.1z"/>
		</g>
		<path class="st10" d="M624.6,107.5c0,20.4-16.5,37-37,37s-37.5-16-37.5-36.4s17.1-37.5,37.5-37.5S624.6,87.1,624.6,107.5z"/>
		
			<ellipse transform="matrix(3.327795e-02 -0.9994 0.9994 3.327795e-02 -423.7786 676.5762)" class="st10" cx="137.9" cy="557.3" rx="37" ry="37"/>
		<g>
			<g>
				<path class="st3" d="M503.6,236.1c11.6-8.2,23.8-15.6,35.2-24.1c-3.7-1.5-7.3-3-11-4.5c0.8,3,1.5,6,2.5,8.8
					c1.7,4.6,3.9,9.1,6,13.6c2.4,5.2,4.8,10.4,7.1,15.6c0.7,1.6,2.8,3,4.5,3.4c1.8,0.5,4.2,0.3,5.8-0.8c1.6-1,3-2.6,3.4-4.5
					c0.5-2.1,0.1-3.8-0.8-5.8c-3.8-8.5-8-16.9-11.6-25.5c0.2,0.6,0.5,1.2,0.8,1.8c-1.5-3.5-2.3-7.1-3.3-10.8c-0.6-2.3-2.2-4-4.3-4.9
					c-2-0.8-4.8-1-6.7,0.4c-11.4,8.5-23.6,15.8-35.2,24.1c-1.6,1.1-2.9,2.5-3.4,4.5c-0.5,1.8-0.3,4.2,0.8,5.8
					C495.5,236.6,500.2,238.6,503.6,236.1L503.6,236.1z"/>
			</g>
		</g>
		<g>
			<g>
				<path class="st3" d="M199.7,474.1c16.2,0.4,32.5-1.2,48.4-4.5c-3.6-3.5-7.1-7.1-10.6-10.6c-2.7,16.6-3.2,33.4-1,50.1
					c0.3,2.4,0.8,4.3,2.5,6.1c1.5,1.5,4,2.6,6.1,2.5c2.2-0.1,4.6-0.8,6.1-2.5c1.4-1.6,2.8-3.9,2.5-6.1c-1.9-14.2-1.9-28.7,0-43
					c-0.1,0.8-0.2,1.5-0.3,2.3c0.2-1.6,0.4-3.2,0.7-4.8c0.5-3.1,0.1-6.1-2.2-8.4c-2.3-2.3-5.4-2.9-8.4-2.2c-4.8,1-9.6,1.8-14.4,2.5
					c0.8-0.1,1.5-0.2,2.3-0.3c-10.5,1.4-21.1,2-31.7,1.8c-4.5-0.1-8.9,4.1-8.7,8.7C191.3,470.2,194.9,474,199.7,474.1L199.7,474.1z"
					/>
			</g>
		</g>
		<path class="st3" d="M307.5,204.2c-0.1,0.1-0.1,0.6,0,1.5c0.5,9.9,8.5,67,0,110.9c-8.4,43.6-27.9,84.4-54.3,119.9
			c-26,35-58.1,65.4-93.2,91.2c2.7,3.6,5.5,7.1,8.3,10.7c0.5,0.7,39.8-33.2,43.9-36.8c5.4-4.6,10.8-9.2,16.1-13.9
			c9.9-8.7,19.4-17.7,28.4-27.3c30.4-32.8,48.5-73.4,61.7-115.7c0,0,0-0.1,0-0.1c5.9-18.9,10.5-38.4,12.4-58.1
			c4-41.5,10.8-101-3.5-112.2c-14.4-11.3-22.5-5.6-22.5-5.6L307.5,204.2z"/>
		<path class="st3" d="M470.3,212.7c-3.6-8.7-8.4-16.8-14.6-23.8c-12.5-14.3-30.5-24-49.4-25.1c-13.9-0.8-28.4,3.3-38.5,12.7
			c-7.4,6.9-12.2,16.2-15.6,25.8c-6.4,17.9-8.7,36.9-10.2,55.9c-2.2,27.4-2.8,55-2,82.4c-23.4-1.7-47.5-11.8-59.7-31.7
			c-6.9-11.2-9.6-24.8-9-38c1.1-26.8,15.7-52.6,38-67.4c4.7-3.1,9.9-5.9,13.7-10c3.9-4.2,6.3-10.3,4.3-15.6c-3-7.9-12.9-9.1-20.3-9
			c-1.7,0-3.8-0.2-5.4,0.4c-2,0.8-3.8,2.9-5.4,4.2c-3.9,3.2-7.6,6.6-11.2,10.1c-14.4,13.8-27,29.8-35.1,48c-1.5,3.4-2.8,6.8-4,10.3
			c-9.9,29.5-5.9,64.9,15.5,87.4c18.1,19,44.6,25.8,69.7,29.1c2.9,0.4,5.9,0.7,8.8,1.1c-2.6,15.3-5.1,30.6-6.3,46.1
			c-0.6,8-0.9,16-0.9,24c0,7.9,1,15.8,1,23.7c0,0.3,0,0.7,0.1,0.9c0-0.1-18.4,5-20.1,5.5c-22.5,7.2-42.4,31-33.8,55.4
			c4.7,13.3,17.4,22.4,30.9,25.3c23,4.8,57.3-0.8,63.8-27.8c0.1-0.5,0.2-1,0.3-1.5c1.3-7-0.2-14.2-2.5-21c-2.7-8-6-15.8-8.2-24
			c-8.2-30-6.9-61.6-4.7-92.3c0.4-4.8,0.7-9.5,1.1-14.3c0-0.1,0-0.3,0.1-0.4c0.1-0.1,0.2-0.1,0.4-0.1c6.1,0,12.3,0.2,18.4-0.4
			c6.6-0.6,13.1-1.8,19.4-3.6c12.7-3.6,24.8-9.4,35.4-17.2c4.5-3.3,8.7-6.9,12.6-10.8c22.2-22.5,33.7-55.1,30.5-86.6
			C476.2,231,473.9,221.6,470.3,212.7z M341.6,501.3c-2,10-9.4,18.8-18.9,22.4c-15.6,6-21-15.5-20.5-27c0.3-8.6,5.2-15.9,11.5-21.4
			c3.3-2.8,6.9-5.2,10.6-7.4c3-1.8,7.7-5.3,11.2-5.6c2.3,6,3.9,12.8,5.2,19.1C342.2,488,342.9,494.7,341.6,501.3z M446.7,243.8
			c-0.1,1.8-0.2,3.5-0.4,5.3c-2.5,22.2-12,43.6-27.2,59.9c-15.2,16.4-36,27.5-58.1,30.6c-0.4-29.9,0.5-59.8,2.6-89.7
			c0.8-11.2,1.8-22.6,5.1-33.4c2.9-9.5,7.7-18.7,15-25.6c0.8-0.8,1.6-1.6,2.6-2.1c0.8-0.4,1.7-0.5,2.5-0.9c2.3-1,4.8-1.6,7.3-1.8
			c5.2-0.4,10.5,0.9,15.4,2.9c1,0.4,2,0.9,3,1.3c11.1,5.2,21.3,13.2,26.9,24.1C446.1,223.5,447.3,233.7,446.7,243.8z"/>
		<path class="st3" d="M344.7,451.9c0.8-1.6,2.2-2.7,3.6-3.8c22.4-17.3,48.3-29.8,72.5-44.4c23.5-14.2,48.2-30.3,66.5-51
			c2-2.3,4-4.6,5.8-7c12.8-16.7,19-37.3,21.2-58c1.8-17.1,0.8-34.3,3.9-51.4c3.2-18,9.4-35.5,18.3-51.5
			c9.3-16.7,21.4-31.7,34.4-45.6c2.2-2.3,4.9-4.8,8.1-4.4c3.3,0.5,5.3,4,6.7,7.1c-20.6,17.8-38.8,39.7-46,65.9
			c-6.4,23.4-3.5,48.1-6.3,72.2c-3.5,30.1-15.9,57-36.6,79.2c-16.8,18-37.1,32.3-57.9,45.6c-28.7,18.4-58.3,35.3-88.2,51.6
			c-1.4,0.8-3.1,1.6-4.7,1c-1.8-0.7-2.4-3.2-1.7-5C344.5,452.3,344.6,452.1,344.7,451.9z"/>
	</g>
</g>
<g id="Layer_3">
</g>
</svg>
