<?xml version="1.0" encoding="utf-8"?>
<!-- Generator: Adobe Illustrator 26.0.2, SVG Export Plug-In . SVG Version: 6.00 Build 0)  -->
<svg version="1.1" xmlns="http://www.w3.org/2000/svg" xmlns:xlink="http://www.w3.org/1999/xlink" x="0px" y="0px"
	 viewBox="0 0 706 674" style="enable-background:new 0 0 706 674;" xml:space="preserve">
<style type="text/css">
	.st0{fill:#00081A;}
	.st1{display:none;opacity:0.32;}
	.st2{display:inline;}
	.st3{fill:#FFFFFF;}
	.st4{display:none;}
	.st5{opacity:0.44;}
	.st6{display:inline;fill:url(#SVGID_1_);}
	.st7{display:inline;opacity:0.32;}
	.st8{fill:#DE0039;}
	.st9{opacity:0.32;}
	.st10{fill:#00081A;stroke:#FFFFFF;stroke-width:16.1681;stroke-miterlimit:10;}
</style>
<g id="Layer_1">
	<g>
		<rect x="0.4" y="0.11" class="st0" width="706" height="674"/>
	</g>
</g>
<g id="Layer_2">
	<g class="st1">
		<g class="st2">
			<path class="st3" d="M-2256.97,1531.28c9.97-9.38,19.94-18.97,27.47-30.5c3.81-5.83,6.86-12.22,8.84-18.9
				c2.25-7.55,3.18-15.44,3.95-23.26c3.12-31.58,1.96-63.35,3.4-95.01c0.33-7.24,0.8-14.48,1.49-21.69
				c0.73-7.59,1.45-13.29,2.71-20.64c2.41-14.11,5.99-28.06,11.29-41.38c0.32-0.8,0.64-1.59,0.97-2.39
				c-0.28,0.66,0.59-1.36,0.66-1.53c0.74-1.67,1.5-3.33,2.3-4.98c1.4-2.9,2.86-5.78,4.54-8.53c0.75-1.23,1.54-2.45,2.38-3.62
				c0.21-0.29,0.43-0.58,0.64-0.87c-0.62,0.84-0.07,0.1,0.06-0.06c0.57-0.68,1.14-1.36,1.75-2.02c0.96-1.03,1.98-1.97,3.05-2.87
				c-0.93,0.79,0.6-0.42,0.86-0.58c0.64-0.42,1.3-0.81,1.98-1.16c0.3-0.16,0.61-0.29,0.91-0.44c0.79-0.39-0.88,0.25-0.02,0.03
				c0.66-0.17,1.3-0.43,1.96-0.59c0.34-0.08,0.68-0.13,1.02-0.22c0.91-0.24-1.03,0.05-0.28,0.02c0.53-0.02,1.06-0.1,1.59-0.12
				c0.77-0.03,1.96,0.3,2.68,0.1c-0.89,0.24-1.28-0.24-0.64-0.08c0.2,0.05,0.42,0.08,0.62,0.12c0.51,0.11,1.02,0.24,1.51,0.4
				c0.09,0.03,1.15,0.43,1.16,0.41c-0.04,0.05-1.44-0.69-0.59-0.24c0.18,0.1,0.37,0.18,0.55,0.27c0.78,0.4,1.5,0.87,2.22,1.36
				c1.12,0.75-1-0.9,0.01,0.01c0.31,0.28,0.63,0.55,0.93,0.84c0.66,0.63,1.26,1.3,1.86,1.99c1,1.16-0.47-0.73,0.08,0.08
				c0.25,0.37,0.52,0.72,0.77,1.09c0.58,0.85,1.11,1.74,1.61,2.64c0.46,0.83,0.88,1.67,1.28,2.53c0.19,0.4,0.33,0.96,0.59,1.32
				c-0.06-0.08-0.56-1.37-0.18-0.42c0.11,0.29,0.23,0.57,0.34,0.85c1.53,3.94,2.64,8.05,3.48,12.19c0.41,2.03,0.76,4.08,1.06,6.14
				c0.22,1.51-0.15-1.27,0.03,0.23c0.06,0.48,0.12,0.96,0.17,1.44c0.11,1,0.21,1.99,0.3,2.99c0.3,3.42,0.47,6.85,0.45,10.28
				c-0.07,10.1-0.26,20.01,1.65,29.99c2.05,10.69,6.72,21.23,14.83,28.71c19.16,17.68,48.84,15.28,70.32,3.34
				c11.53-6.42,20.71-16.23,27.42-27.52c6.62-11.15,10.81-23.56,14.74-35.85c4.81-15.03,9.9-30.01,14.36-45.15
				c2.21-7.5,3.71-15.69,1.53-23.38c-1.78-6.31-5.96-11.63-11.29-15.35c-6.03-4.21-13.5-5.35-20.65-4.19
				c-7.07,1.15-13.38,5-18.86,9.44c-9.47,7.67-17.27,17.93-22.41,28.96c-10.25,21.99-10.75,46.64-6.65,70.2
				c4.63,26.64,15.88,51.39,24.83,76.73c4.86,13.75,9.18,27.78,11.41,42.22c0.42,2.69,0.83,6.33,1.07,9.9
				c0.24,3.51,0.32,7.04,0.22,10.56c-0.09,3.53-0.34,7.08-0.82,10.59c0.04-0.28,0.14-0.92-0.06,0.33c-0.07,0.43-0.13,0.86-0.2,1.29
				c-0.13,0.81-0.28,1.62-0.43,2.43c-0.28,1.44-0.6,2.88-0.97,4.3c-0.35,1.36-0.75,2.7-1.2,4.02c-0.23,0.67-0.47,1.33-0.72,1.98
				c-0.06,0.16-0.48,1.19-0.19,0.51c0.29-0.71-0.28,0.61-0.34,0.74c-0.6,1.29-1.25,2.55-1.98,3.77c-0.37,0.61-0.75,1.22-1.15,1.81
				c-0.2,0.3-0.41,0.59-0.62,0.88c-0.99,1.43,0.74-0.84-0.38,0.5c-0.94,1.13-1.93,2.21-3.01,3.22c-0.55,0.52-1.12,1.01-1.7,1.49
				c-0.12,0.1-0.9,0.66-0.15,0.12c-0.38,0.27-0.76,0.54-1.14,0.8c-1.04,0.69-2.12,1.3-3.24,1.85c-0.29,0.14-0.58,0.26-0.86,0.4
				c-0.77,0.41,0.93-0.34,0.1-0.04c-0.69,0.24-1.37,0.52-2.06,0.74c-1.26,0.4-2.53,0.74-3.83,1c-0.65,0.13-1.31,0.23-1.96,0.34
				c1.45-0.24-0.94,0.07-1.38,0.1c-1.31,0.08-2.63,0.09-3.95,0.03c-0.65-0.03-1.29-0.11-1.94-0.16c1.42,0.11-0.58-0.11-1.01-0.2
				c-1.23-0.25-2.42-0.6-3.6-1.01c-0.19-0.07-1.11-0.44-0.35-0.12c0.76,0.32-0.14-0.07-0.32-0.16c-0.6-0.31-1.19-0.61-1.76-0.97
				c-0.42-0.26-1.6-1.18-0.58-0.33c-0.45-0.38-0.89-0.75-1.3-1.17c-0.19-0.19-1.49-1.83-0.86-0.92c-0.5-0.74-0.93-1.5-1.34-2.29
				c0.11,0.21,0.37,1.08,0-0.01c-0.11-0.33-0.22-0.65-0.32-0.98c-0.2-0.66-0.32-1.34-0.46-2.01c0.27,1.28-0.04-0.6-0.05-0.99
				c-0.03-0.79-0.02-1.58,0.03-2.37c0.02-0.35,0.07-0.71,0.08-1.06c0.03-0.94-0.18,0.93-0.01,0c0.13-0.71,0.24-1.42,0.4-2.12
				c0.33-1.5,0.76-2.98,1.26-4.43c0.32-0.95,0.64-2.62,1.29-3.4c-0.58,0.7-0.37,0.85-0.13,0.32c0.11-0.25,0.21-0.49,0.32-0.74
				c0.27-0.61,0.55-1.22,0.84-1.83c0.95-1.99,2-3.94,3.12-5.84c1.13-1.91,2.34-3.77,3.61-5.58c0.62-0.88,1.27-1.75,1.92-2.62
				c0.63-0.83-0.1,0.13-0.19,0.25c0.17-0.21,0.34-0.43,0.51-0.64c0.42-0.53,0.85-1.06,1.29-1.59c2.93-3.52,6.09-6.84,9.42-9.99
				c3.5-3.31,7.17-6.44,10.95-9.42c0.16-0.13,1.6-1.25,0.95-0.75c-0.64,0.5,0.8-0.61,0.97-0.74c1-0.76,2.02-1.52,3.03-2.26
				c2.06-1.51,4.14-2.99,6.24-4.44c8.47-5.85,17.21-11.29,25.97-16.69c18-11.09,36.2-22.02,52.53-35.52
				c15.88-13.13,29.99-29.34,36.43-49.24c6.24-19.28,4.53-39.67,3.91-59.58c-0.15-4.96-0.23-9.93-0.07-14.9
				c0.08-2.45,0.21-4.9,0.42-7.35c0.1-1.19,0.22-2.38,0.36-3.56c0.06-0.52,0.26-2.02,0.07-0.63c0.1-0.74,0.21-1.49,0.33-2.23
				c0.8-4.99,1.98-9.92,3.62-14.7c0.41-1.2,0.85-2.38,1.31-3.56c0.14-0.36,0.85-2,0.31-0.79c0.33-0.74,0.65-1.49,1-2.22
				c1.17-2.51,2.48-4.96,3.9-7.33c1.46-2.44,3.05-4.81,4.74-7.1c0.22-0.3,0.44-0.59,0.66-0.89c0.57-0.76-0.51,0.64,0.09-0.11
				c0.47-0.59,0.94-1.19,1.43-1.77c0.99-1.2,2.02-2.38,3.06-3.54c4.74-5.23,10-9.96,15.53-14.33c2.48-1.95,2.2-6.47,0-8.49
				c-2.63-2.41-5.84-2.08-8.49,0c-10.77,8.5-20.48,18.54-27.52,30.39c-5.57,9.38-9.32,19.83-11.11,30.59
				c-3.34,20.08-0.6,40.21-0.93,60.4c-0.04,2.42-0.13,4.83-0.28,7.25c-0.15,2.36-0.18,4.91-0.69,7.22c0.35-1.59-0.03,0.15-0.09,0.59
				c-0.09,0.58-0.18,1.16-0.28,1.74c-0.22,1.31-0.47,2.62-0.76,3.92c-0.52,2.41-1.15,4.8-1.89,7.16c-0.34,1.09-0.71,2.17-1.1,3.24
				c-0.21,0.58-0.43,1.15-0.65,1.73c-0.11,0.29-0.23,0.57-0.34,0.86c-0.58,1.47,0.52-1.16-0.12,0.29c-1.07,2.41-2.23,4.78-3.53,7.08
				c-1.24,2.19-2.59,4.32-4.02,6.39c-0.65,0.95-1.32,1.89-2.01,2.82c-0.34,0.46-0.7,0.92-1.04,1.39c0.95-1.27-0.41,0.51-0.67,0.83
				c-6.17,7.67-13.34,14.47-20.95,20.69c-0.94,0.77-1.89,1.53-2.84,2.28c-0.24,0.19-0.48,0.38-0.72,0.56
				c-0.15,0.12-0.93,0.72-0.3,0.23c0.64-0.49-0.15,0.11-0.3,0.23c-0.3,0.23-0.61,0.46-0.91,0.69c-2.09,1.58-4.2,3.12-6.33,4.64
				c-4.19,2.98-8.47,5.85-12.78,8.65c-17.45,11.34-35.64,21.54-52.69,33.5c-15.94,11.18-31.45,24.1-41.45,41.09
				c-5.62,9.56-10.76,21.55-8,32.79c3.23,13.15,17.2,18.77,29.61,17.79c6.15-0.48,12.28-2.09,17.62-5.26
				c5.77-3.43,10.55-8.54,13.89-14.33c6.68-11.58,8.41-25.94,8.32-39.09c-0.19-29.85-11.45-58.18-21.81-85.69
				c-4.7-12.48-9.43-24.98-12.8-37.9c-1.49-5.71-2.75-11.48-3.69-17.31c-0.11-0.69-0.22-1.39-0.33-2.08
				c-0.05-0.35-0.1-0.69-0.15-1.04c-0.03-0.18-0.18-1.29-0.07-0.51c0.11,0.78-0.04-0.32-0.06-0.51c-0.04-0.35-0.09-0.7-0.13-1.04
				c-0.09-0.78-0.18-1.56-0.26-2.35c-0.3-2.94-0.52-5.9-0.64-8.85c-0.23-5.66-0.09-11.35,0.49-16.98c0.07-0.68,0.15-1.35,0.23-2.03
				c0.14-1.16,0.02-0.14-0.02,0.08c0.05-0.34,0.09-0.67,0.15-1.01c0.23-1.51,0.48-3.01,0.78-4.5c0.54-2.73,1.2-5.44,1.99-8.11
				c0.79-2.68,1.72-5.3,2.75-7.89c0.42-1.06,0.07-0.18-0.02,0.03c0.13-0.31,0.27-0.62,0.41-0.93c0.28-0.62,0.56-1.24,0.85-1.85
				c0.66-1.39,1.36-2.76,2.09-4.11c1.37-2.51,2.88-4.94,4.52-7.29c0.4-0.58,0.81-1.15,1.23-1.72c0.21-0.28,0.43-0.57,0.64-0.85
				c0.56-0.74-0.55,0.67,0.04-0.05c0.98-1.18,1.93-2.37,2.95-3.52c2.1-2.36,4.34-4.6,6.69-6.71c0.56-0.5,1.12-0.99,1.7-1.46
				c0.29-0.24,0.59-0.48,0.89-0.72c-0.2,0.16-0.8,0.58,0.16-0.11c1.34-0.98,2.72-1.9,4.16-2.73c0.68-0.39,1.38-0.76,2.09-1.11
				c0.35-0.17,0.71-0.34,1.07-0.5c0.91-0.41-0.73,0.27,0.21-0.08c1.59-0.58,3.18-1.04,4.84-1.38c1.19-0.24,0.45-0.07,0.18-0.04
				c0.4-0.04,0.8-0.08,1.2-0.1c0.81-0.05,1.62-0.05,2.43-0.01c0.39,0.02,0.78,0.06,1.17,0.09c-1.1-0.07-0.21-0.03,0.04,0.02
				c0.88,0.18,1.75,0.38,2.61,0.65c0.34,0.11,0.67,0.23,1,0.35c0.25,0.09,0.97,0.51,0.02,0c0.61,0.32,1.24,0.61,1.83,0.96
				c0.59,0.34,1.15,0.72,1.72,1.11c0.23,0.16,0.79,0.73-0.01-0.01c0.31,0.28,0.64,0.54,0.95,0.83c0.49,0.45,0.96,0.92,1.4,1.41
				c0.22,0.24,0.42,0.51,0.65,0.75c0.6,0.64-0.51-0.78-0.04-0.05c0.76,1.15,1.46,2.27,2.08,3.5c0.5,0.99,0.02,0.06-0.05-0.14
				c0.1,0.29,0.22,0.58,0.32,0.87c0.19,0.58,0.36,1.17,0.5,1.76c0.1,0.44,0.19,0.88,0.27,1.33c-0.12-0.75,0.04,0.33,0.04,0.4
				c0.09,1.11,0.12,2.22,0.09,3.33c-0.03,0.89-0.09,1.78-0.19,2.67c0.03-0.28,0.15-0.88-0.06,0.41c-0.07,0.45-0.15,0.89-0.24,1.33
				c-0.36,1.91-0.85,3.79-1.38,5.65c-2.16,7.59-4.74,15.08-7.14,22.6c-2.39,7.49-4.78,14.97-7.16,22.46
				c-1.94,6.07-3.9,12.14-6.2,18.08c-0.28,0.71-0.56,1.43-0.84,2.14c-0.1,0.25-0.76,1.86-0.38,0.96c-0.67,1.59-1.38,3.17-2.12,4.73
				c-1.36,2.87-2.85,5.69-4.48,8.41c-0.8,1.33-1.63,2.64-2.5,3.93c-0.44,0.65-0.88,1.29-1.34,1.92c-0.23,0.32-0.46,0.63-0.69,0.95
				c-0.18,0.25-0.82,1.06-0.32,0.43c-2.11,2.69-4.41,5.22-6.88,7.58c-1.01,0.96-2.05,1.9-3.13,2.79c-0.29,0.24-1.76,1.33-0.75,0.61
				c-0.62,0.44-1.23,0.9-1.85,1.34c-2.35,1.63-4.81,3.1-7.35,4.41c-1.26,0.65-2.54,1.25-3.83,1.83c-1.06,0.48-0.26,0.12-0.04,0.03
				c-0.33,0.14-0.66,0.27-0.99,0.4c-0.83,0.33-1.67,0.65-2.52,0.94c-2.8,0.99-5.67,1.8-8.57,2.43c-1.41,0.3-2.83,0.53-4.25,0.77
				c-0.94,0.16,0.94-0.1-0.01,0c-0.36,0.04-0.71,0.08-1.07,0.12c-0.8,0.08-1.6,0.15-2.41,0.21c-3.01,0.2-6.03,0.17-9.03-0.11
				c-0.39-0.04-2.32-0.31-1.02-0.1c-0.69-0.11-1.38-0.22-2.07-0.35c-1.45-0.28-2.89-0.62-4.31-1.03c-1.34-0.39-2.63-0.88-3.94-1.35
				c-0.86-0.31,0.82,0.39-0.01,0c-0.31-0.15-0.63-0.28-0.95-0.43c-0.71-0.34-1.42-0.69-2.11-1.07c-1.19-0.64-2.35-1.34-3.47-2.1
				c-0.54-0.37-1.07-0.76-1.6-1.14c0.97,0.7,0.27,0.21,0.07,0.04c-0.36-0.31-0.74-0.61-1.1-0.93c-0.94-0.83-1.84-1.7-2.69-2.61
				c-0.42-0.45-0.83-0.91-1.23-1.38c-0.2-0.23-0.39-0.47-0.58-0.71c-0.72-0.87,0.35,0.55-0.04-0.05c-1.36-2.11-2.76-4.12-3.87-6.39
				c-0.27-0.54-0.52-1.09-0.77-1.64c-0.46-0.99,0,0,0.07,0.18c-0.11-0.28-0.23-0.56-0.34-0.84c-0.5-1.28-0.94-2.57-1.34-3.88
				c-0.74-2.43-1.32-4.9-1.77-7.4c-0.11-0.61-0.21-1.22-0.31-1.84c-0.05-0.31-0.08-0.62-0.14-0.92c-0.16-0.87,0.12,1.09,0.02,0.21
				c-0.15-1.32-0.31-2.63-0.42-3.95c-0.73-8.53,0.05-17.04-0.39-25.57c-0.44-8.46-1.6-17.03-3.98-25.17
				c-2.31-7.91-5.96-16.49-12.53-21.83c-8.3-6.75-19.81-7.38-28.86-1.45c-11.48,7.52-17.41,21.49-22.36,33.73
				c-5.38,13.28-9.02,27.21-11.48,41.31c-5.28,30.18-5.32,60.83-5.82,91.36c-0.26,15.9-0.68,31.81-2.14,47.65
				c-0.69,7.55-1.32,13.79-3.38,21.25c-0.47,1.71-1.01,3.4-1.62,5.06c-0.28,0.74-0.56,1.49-0.87,2.22c0.36-0.85-0.04,0.07-0.1,0.2
				c-0.25,0.54-0.49,1.08-0.75,1.61c-1.41,2.93-3.04,5.76-4.83,8.48c-0.87,1.32-1.78,2.62-2.72,3.89c-0.24,0.32-0.47,0.64-0.71,0.95
				c-0.6,0.8,0.46-0.59-0.15,0.2c-0.49,0.63-0.99,1.25-1.5,1.86c-2.03,2.48-4.17,4.87-6.37,7.2c-4.48,4.75-9.23,9.24-13.98,13.71
				c-2.29,2.16-2.34,6.34,0,8.49C-2263,1533.53-2259.41,1533.58-2256.97,1531.28L-2256.97,1531.28z"/>
		</g>
	</g>
</g>
<g id="Layer_6">
</g>
<g id="Layer_4" class="st4">
	<g class="st5">
		
			<radialGradient id="SVGID_1_" cx="-2130.0273" cy="1359.769" r="19.9109" gradientTransform="matrix(0.8233 -0.1639 -0.1639 1.1914 -155.205 -604.6236)" gradientUnits="userSpaceOnUse">
			<stop  offset="0" style="stop-color:#282F3E"/>
			<stop  offset="0.0829" style="stop-color:#4F5561;stop-opacity:0.8893"/>
			<stop  offset="0.2088" style="stop-color:#848891;stop-opacity:0.7211"/>
			<stop  offset="0.3323" style="stop-color:#B0B3B8;stop-opacity:0.5562"/>
			<stop  offset="0.4505" style="stop-color:#D2D4D7;stop-opacity:0.3983"/>
			<stop  offset="0.5621" style="stop-color:#EBECED;stop-opacity:0.2493"/>
			<stop  offset="0.6644" style="stop-color:#FAFAFA;stop-opacity:0.1127"/>
			<stop  offset="0.7487" style="stop-color:#FFFFFF;stop-opacity:0"/>
		</radialGradient>
		<polygon class="st6" points="-2133.72,1391.15 -2147.94,1385.74 -2129.65,1337.7 -2115.43,1343.11 		"/>
	</g>
	<g id="layer1_00000045579206297361544370000017316296734045167770_" class="st7">
		<g id="text2989_00000101815020506787845140000001215062615284427140_">
			<path id="path3034_00000092417911998940872510000014719007295654715558_" class="st3" d="M-1985.02,1277.02
				c0.39-18.43-5.49-36.46-16.68-51.11c-10.74-15.29-28.31-24.33-47-24.18c-21.5,0-36.16,10.9-44.68,33.06
				c-6.43,16.02-9.53,38.84-9.53,68.8c0,6.85,0.36,16.38,1.01,29.01c0.36,11.2,0.36,19.06,0.36,23.47
				c-34.43,0-58.85-21.09-58.85-55.16c0-36.16,13.64-59.57,40.57-69.52c2.86-6.34,4.48-13.18,4.77-20.13
				c0-7.15-3.04-10.54-8.88-10.54c-17.87,0-33.36,11.26-47,33.42c-11.49,16.93-17.88,36.79-18.41,57.25
				c0,45.63,28.73,71.62,86.2,77.98c0,4.83-1.67,14.36-4.05,29.01c-2.12,9.28-3.38,18.73-3.75,28.24c0,12.27,6.14,18.41,18.41,18.41
				c9.89,0,14.65-5.96,14.65-18.7c-0.34-9.73-1.37-19.43-3.1-29.01c-1.67-12.57-2.74-21.8-3.04-28.24
				c29.31-2.38,52.48-10.9,69.52-25.26c19.58-16.52,30.39-41.19,29.25-66.78 M-2018.62,1271.06c0.67,19.89-5.19,39.45-16.68,55.7
				c-11.75,16-29.19,26.87-48.73,30.38c-0.36-6.49-0.71-15.73-0.71-26.93c0-1.73,0-5.96-0.36-12.99s-0.3-12.57-0.3-17.04
				c0-55.16,11.24-82.76,33.72-82.8c11.26,0,20.13,6.49,25.91,19.78c4.91,10.68,7.36,22.32,7.15,34.07"/>
		</g>
	</g>
	<g class="st7">
		<g>
			<path class="st3" d="M-1806.01,1247.26c-1.57,9.58-2.3,19.28-2.12,28.99c0.03,1.93,3.03,1.93,3,0
				c-0.17-9.44,0.49-18.88,2.02-28.19C-1802.8,1246.17-1805.69,1245.36-1806.01,1247.26L-1806.01,1247.26z"/>
		</g>
	</g>
	<g class="st7">
		<g>
			<path class="st8" d="M-1767.43,1258.81c-9.93,6.2-17.06,16.73-18.91,28.31c-1.1,6.89-0.36,13.9,1.37,20.63
				c0.89,3.49,2.07,6.88,3.32,10.25c1.2,3.26,2.48,6.63,2.69,10.13c0.2,3.26-0.44,6.88-2.87,9.25c-2.05,2-5.34,2.89-7.93,1.43
				c-1.68-0.95-3.2,1.64-1.51,2.59c5.35,3.02,11.78-0.36,14.07-5.61c2.8-6.43,0.41-13.29-1.87-19.46
				c-2.59-7.03-4.68-14.34-4.79-21.88c-0.09-6.28,1.33-12.47,4.22-18.05c3.17-6.11,7.89-11.34,13.74-14.99
				C-1764.29,1260.38-1765.79,1257.78-1767.43,1258.81L-1767.43,1258.81z"/>
		</g>
	</g>
	<g class="st7">
		<g>
			<path class="st8" d="M-2125.89,1201.37c4.56,0.44,7.09,5.07,8.44,8.95c1.92,5.51,2.67,11.57,3.4,17.34
				c1.59,12.59,1.77,25.34,0.89,37.99c-1.82,25.92-8.31,50.96-15.9,75.71c-1.93,6.28-3.82,12.59-5.35,18.98
				c-1.53,6.35-2.64,12.79-3.93,19.19c-2.56,12.68-6.65,24.74-12.23,36.42c-9.46,19.82-21.86,38.23-36.6,54.52
				c-14.55,16.08-31.34,30.12-49.81,41.47c-2.3,1.42-4.64,2.79-6.99,4.12c-1.68,0.95-0.17,3.55,1.51,2.59
				c19.45-11.03,37.26-24.92,52.74-41.05c15.48-16.12,28.67-34.48,38.88-54.37c5.84-11.38,10.82-23.27,13.82-35.73
				c1.57-6.54,2.69-13.19,4.04-19.78c1.36-6.63,3.1-13.17,5.03-19.66c3.8-12.81,7.85-25.51,10.9-38.53
				c3.02-12.88,5.3-25.94,6.5-39.12c1.19-13.03,1.29-26.19-0.09-39.21c-0.66-6.21-1.5-12.52-3.01-18.58
				c-1.07-4.31-2.88-9-6.41-11.89c-1.71-1.4-3.65-2.15-5.84-2.36C-2127.81,1198.19-2127.8,1201.19-2125.89,1201.37L-2125.89,1201.37
				z"/>
		</g>
	</g>
	<g class="st7">
		<g>
			<path class="st8" d="M-2129.82,1235.21c1.66,10.91,0.91,22.01,0.37,32.98c-0.54,10.86-1.06,21.73-1.61,32.59
				c-0.55,10.95-1.52,21.76-3.97,32.47c-2.39,10.46-5.37,20.82-8.31,31.15c-2.91,10.22-6.01,20.41-9.92,30.31
				c-3.87,9.8-8.74,19.03-14.45,27.88c-5.97,9.26-12.18,18.39-18.28,27.57c-5.91,8.89-11.7,17.88-17.83,26.62
				c-5.87,8.38-12.33,16.24-19.89,23.16c-7.32,6.7-15.33,12.58-23.49,18.19c-2.05,1.41-4.12,2.8-6.18,4.19
				c-1.59,1.07-0.09,3.67,1.51,2.59c8.37-5.62,16.69-11.36,24.47-17.79c7.82-6.46,14.82-13.68,21-21.73
				c6.47-8.43,12.19-17.43,18.07-26.28c6.27-9.43,12.54-18.86,18.81-28.3c5.99-9,11.69-18.09,16.1-27.99
				c4.29-9.64,7.66-19.67,10.69-29.77c3.15-10.5,6.06-21.08,8.81-31.69c2.77-10.68,4.64-21.38,5.4-32.39
				c0.76-11.02,1.16-22.08,1.71-33.11c0.55-11.11,1.5-22.32,0.78-33.44c-0.17-2.68-0.47-5.34-0.87-7.99
				C-2127.22,1232.51-2130.11,1233.32-2129.82,1235.21L-2129.82,1235.21z"/>
		</g>
	</g>
	<g class="st7">
		<g>
			<path class="st8" d="M-2258.3,1519.06c19.94-13.82,37.71-30.67,52.54-49.88c4.23-5.47,8.21-11.13,11.94-16.95
				c1.04-1.63-1.55-3.14-2.59-1.51c-12.88,20.1-28.85,38.17-47.19,53.45c-5.22,4.34-10.63,8.45-16.21,12.31
				C-2261.39,1517.56-2259.9,1520.16-2258.3,1519.06L-2258.3,1519.06z"/>
		</g>
	</g>
	<g class="st7">
		<g>
			<path class="st8" d="M-2207.4,1465.79c8.1-8.35,16.35-16.58,24.14-25.23c7.03-7.81,13.67-16.13,18.66-25.41
				c2.8-5.22,5.06-10.73,6.56-16.46c0.49-1.87-2.4-2.67-2.89-0.8c-5.34,20.35-20.05,36.29-34.29,51.04
				c-4.75,4.92-9.53,9.83-14.29,14.74C-2210.87,1465.05-2208.75,1467.18-2207.4,1465.79L-2207.4,1465.79z"/>
		</g>
	</g>
	<g class="st7">
		<g>
			<path class="st8" d="M-2162.51,1407.51c4.08-3.95,7.89-8.17,11.41-12.62c0.5-0.63,0.62-1.5,0-2.12c-0.52-0.52-1.62-0.64-2.12,0
				c-3.52,4.45-7.34,8.67-11.41,12.62C-2166.02,1406.74-2163.9,1408.86-2162.51,1407.51L-2162.51,1407.51z"/>
		</g>
	</g>
	<g class="st7">
		<g>
			<path class="st8" d="M-2150.79,1391.12c1.93,0,1.93-3,0-3C-2152.72,1388.12-2152.72,1391.12-2150.79,1391.12L-2150.79,1391.12z"
				/>
		</g>
	</g>
	<g class="st7">
		<g>
			<path class="st8" d="M-2083.48,1370.81c-1.8,11.9-2.31,23.96-1.4,35.96c0.45,5.87,1.05,11.86,2.54,17.58
				c1.5,5.77,4.27,11.08,5.55,16.93c1.27,5.78,1.82,11.72,2.57,17.59c0.77,5.99,1.54,11.99,2.29,17.98
				c0.72,5.75,1.42,11.66,0.56,17.43c-0.76,5.08-2.84,9.79-5.72,14.02c-3.14,4.6-7.2,8.91-11.69,12.22
				c-4.45,3.28-10.07,5.95-15.59,3.85c-1.81-0.69-2.59,2.21-0.8,2.89c10.16,3.87,20.35-5.16,26.56-12.18
				c3.39-3.83,6.27-8.11,8.18-12.87c2.13-5.29,2.65-10.99,2.36-16.65c-0.31-6.08-1.29-12.13-2.06-18.16
				c-0.79-6.2-1.55-12.4-2.38-18.6c-0.81-6.08-2.07-11.85-4.3-17.57c-1.1-2.83-2.16-5.65-2.87-8.6c-0.71-2.98-1.17-6.01-1.53-9.05
				c-1.67-13.93-1.47-28.09,0.62-41.96C-2080.3,1369.72-2083.19,1368.9-2083.48,1370.81L-2083.48,1370.81z"/>
		</g>
	</g>
	<g class="st7">
		<g>
			<path class="st8" d="M-2113.69,1419.86c-1.46,11.3-2.9,23.42,1.53,34.27c1.11,2.73,2.64,5.21,4.08,7.77
				c1.51,2.68,2.61,5.4,3.15,8.44c0.53,3.04,0.65,6.17,0.81,9.25c0.16,3.12,0.23,6.25,0.02,9.37c-0.64,9.5-5.54,21.9-16.65,22.59
				c-4.32,0.27-8.87-1.37-11.14-5.24c-1.42-2.42-1.97-5.3-2.5-8.02c-0.51-2.64-0.86-5.31-0.88-8c-0.02-2.92,0.35-5.89,1.51-8.59
				c1.12-2.6,2.96-4.71,5.13-6.49c4.27-3.49,9.42-5.79,13.12-9.97c1.27-1.44-0.84-3.57-2.12-2.12c-3.52,3.98-8.42,6.28-12.55,9.52
				c-4.43,3.48-7.13,8.1-7.85,13.7c-0.73,5.66,0.2,11.76,1.79,17.21c1.51,5.14,4.87,9.05,10.13,10.46
				c4.77,1.28,9.97,0.36,14.04-2.43c4.51-3.1,7.57-7.89,9.25-13.03c2.05-6.23,2.02-12.95,1.68-19.43c-0.17-3.2-0.33-6.42-0.89-9.58
				c-0.58-3.28-1.82-6.27-3.45-9.16c-1.74-3.09-3.56-6.07-4.67-9.47c-1.06-3.27-1.63-6.68-1.85-10.11c-0.44-7,0.41-14.01,1.31-20.95
				C-2110.44,1417.95-2113.45,1417.96-2113.69,1419.86L-2113.69,1419.86z"/>
		</g>
	</g>
	<g class="st7">
		<g>
			<path class="st8" d="M-2107.89,1525.04c-8.38,0-16.97-0.24-25.24-1.72c-6.58-1.18-13.63-3.55-17.63-9.28
				c-4.82-6.9-5.02-16.4-4.21-24.46c0.39-3.92,1.3-7.9,3.38-11.3c1.86-3.04,4.57-5.44,7.53-7.39c3.42-2.25,7.15-3.96,10.88-5.62
				c4.64-2.07,9.28-4.13,13.93-6.2c1.76-0.78,0.24-3.37-1.51-2.59c-4.44,1.98-8.87,3.95-13.31,5.93c-3.58,1.6-7.18,3.21-10.52,5.28
				c-3.19,1.97-6.13,4.35-8.4,7.36c-2.54,3.37-3.93,7.42-4.58,11.56c-1.36,8.53-1.25,18.34,2.63,26.23
				c3.42,6.96,10.24,10.81,17.53,12.64c4.26,1.07,8.65,1.54,13.01,1.9c5.5,0.45,11.01,0.67,16.52,0.67
				C-2105.96,1528.04-2105.96,1525.04-2107.89,1525.04L-2107.89,1525.04z"/>
		</g>
	</g>
	<g class="st7">
		<g>
			<path class="st8" d="M-2119.13,1464.63c3.22-0.17,6.38-1.25,8.97-3.2c0.62-0.47,1.01-1.32,0.54-2.05
				c-0.4-0.62-1.38-1.04-2.05-0.54c-0.59,0.45-1.21,0.85-1.86,1.2c-0.28,0.15-0.57,0.3-0.87,0.44c-0.05,0.02-0.56,0.24-0.28,0.13
				c-0.17,0.07-0.34,0.14-0.52,0.2c-0.65,0.24-1.32,0.43-2,0.58c-0.18,0.04-0.36,0.07-0.54,0.11c-0.06,0.01-0.62,0.09-0.29,0.05
				c-0.37,0.05-0.74,0.08-1.1,0.1c-0.78,0.04-1.54,0.66-1.5,1.5C-2120.59,1463.91-2119.97,1464.68-2119.13,1464.63L-2119.13,1464.63
				z"/>
		</g>
	</g>
	<g class="st7">
		<g>
			<path class="st8" d="M-2117.76,1459.56c2.37-1.04,4.75-2.09,7.12-3.13c0.72-0.32,0.94-1.43,0.54-2.05
				c-0.48-0.75-1.28-0.88-2.05-0.54c-2.37,1.04-4.75,2.09-7.12,3.13c-0.72,0.32-0.94,1.43-0.54,2.05
				C-2119.33,1459.77-2118.53,1459.9-2117.76,1459.56L-2117.76,1459.56z"/>
		</g>
	</g>
	<g class="st7">
		<g>
			<path class="st8" d="M-2116.31,1467.55c1.19-0.68,2.39-1.36,3.58-2.04c0.33-0.19,0.59-0.54,0.69-0.9
				c0.1-0.36,0.05-0.84-0.15-1.16c-0.44-0.69-1.32-0.95-2.05-0.54c-1.19,0.68-2.39,1.36-3.58,2.04c-0.33,0.19-0.59,0.54-0.69,0.9
				c-0.1,0.36-0.05,0.84,0.15,1.16C-2117.91,1467.7-2117.04,1467.96-2116.31,1467.55L-2116.31,1467.55z"/>
		</g>
	</g>
	<g class="st7">
		<g>
			<path class="st8" d="M-2154.04,1214.94c4.45-4.91,11.24-6.39,17.6-6.81c6.92-0.46,15.81-0.38,20.13,6.09
				c1.07,1.6,3.67,0.1,2.59-1.51c-4.91-7.35-14.28-8.08-22.34-7.6c-7.25,0.44-15.02,2.11-20.1,7.71
				C-2157.46,1214.24-2155.34,1216.37-2154.04,1214.94L-2154.04,1214.94z"/>
		</g>
	</g>
	<g class="st7">
		<g>
			<path class="st8" d="M-2154.55,1269.23c3.26-6.52,7.13-12.74,11.63-18.48c2.08-2.65,4.24-5.61,6.89-7.73
				c1.98-1.58,5.7-2.63,6.97,0.37c0.32,0.75,1.41,0.9,2.05,0.54c0.78-0.44,0.85-1.31,0.54-2.05c-1.31-3.1-5.29-4.06-8.26-3
				c-3.67,1.3-6.25,4.78-8.64,7.68c-5.38,6.51-10,13.61-13.78,21.17C-2158,1269.43-2155.41,1270.96-2154.55,1269.23
				L-2154.55,1269.23z"/>
		</g>
	</g>
	<g class="st7">
		<g>
			<path class="st8" d="M-2155.3,1212.68c-3.85,4.09-7.24,8.6-10.1,13.43c-0.99,1.67,1.61,3.18,2.59,1.51
				c2.73-4.62,5.95-8.91,9.63-12.82C-2151.86,1213.4-2153.97,1211.27-2155.3,1212.68L-2155.3,1212.68z"/>
		</g>
	</g>
	<g class="st7">
		<g>
			<path class="st8" d="M-2158.7,1215.41c-2.64,3.3-4.52,7.04-6.55,10.73c-2.12,3.86-4.73,7.31-7.34,10.84
				c-5.12,6.9-8.64,14.69-9.91,23.22c-0.28,1.89,2.61,2.7,2.89,0.8c1.24-8.31,4.63-15.77,9.61-22.5c2.53-3.41,5.07-6.74,7.13-10.46
				c1.97-3.56,3.73-7.3,6.29-10.5C-2155.38,1216.03-2157.49,1213.9-2158.7,1215.41L-2158.7,1215.41z"/>
		</g>
	</g>
	<g class="st7">
		<g>
			<path class="st8" d="M-2164.38,1224.01c-7.03,9.16-14.1,18.48-18.42,29.29c-2.29,5.72-3.41,11.68-4.17,17.77
				c-0.79,6.35-1.49,12.72-1.95,19.11c-0.89,12.45-0.82,25.49,2.88,37.54c1.67,5.44,4.37,10.48,8.73,14.24
				c4.58,3.95,10.1,6.81,15.26,9.91c6.14,3.69,12.2,7.53,18.48,10.97c5.8,3.18,11.9,5.76,18.51,6.54c1.91,0.23,1.9-2.78,0-3
				c-5.75-0.68-11.15-2.99-16.22-5.71c-5.25-2.82-10.31-6.02-15.41-9.09c-5.26-3.16-10.71-6.13-15.75-9.63
				c-4.6-3.2-7.92-7.35-9.89-12.61c-4.19-11.18-4.44-23.79-3.82-35.57c0.33-6.23,0.98-12.44,1.69-18.64
				c0.68-5.95,1.41-11.9,3.3-17.62c3.94-11.95,11.8-22.13,19.37-31.99C-2160.61,1223.99-2163.22,1222.5-2164.38,1224.01
				L-2164.38,1224.01z"/>
		</g>
	</g>
	<g class="st7">
		<g>
			<path class="st8" d="M-2127.46,1369.52c4.83,0.45,9.61,1.25,14.44,1.66c4.78,0.4,9.58,0.51,14.38,0.31
				c9.49-0.39,18.92-1.93,28.04-4.57c1.85-0.54,1.06-3.43-0.8-2.89c-9.02,2.61-18.32,4.14-27.71,4.48
				c-4.64,0.17-9.28,0.06-13.91-0.33c-4.83-0.41-9.62-1.2-14.44-1.66C-2129.38,1366.34-2129.37,1369.34-2127.46,1369.52
				L-2127.46,1369.52z"/>
		</g>
	</g>
	<g class="st7">
		<g>
			<path class="st8" d="M-2146.78,1359.94c5,2.49,10.33,4.23,15.85,5.12c0.8,0.13,1.61-0.21,1.84-1.05c0.2-0.71-0.24-1.72-1.05-1.85
				c-5.25-0.84-10.36-2.44-15.13-4.81C-2146.99,1356.49-2148.51,1359.08-2146.78,1359.94L-2146.78,1359.94z"/>
		</g>
	</g>
	<g class="st7">
		<g>
			<path class="st8" d="M-2147.29,1357.72c5.38,2.52,11.05,4.15,16.94,4.89c0.8,0.1,1.5-0.76,1.5-1.5c0-0.9-0.69-1.4-1.5-1.5
				c-5.32-0.67-10.57-2.21-15.42-4.48c-0.73-0.34-1.62-0.21-2.05,0.54C-2148.21,1356.32-2148.02,1357.37-2147.29,1357.72
				L-2147.29,1357.72z"/>
		</g>
	</g>
	<g class="st7">
		<g>
			<path class="st8" d="M-2144.22,1357.39c5.25,2.07,10.67,3.68,16.2,4.81c1.88,0.38,2.69-2.51,0.8-2.89
				c-5.53-1.13-10.95-2.74-16.2-4.81c-0.75-0.3-1.65,0.33-1.84,1.05C-2145.5,1356.4-2144.98,1357.09-2144.22,1357.39
				L-2144.22,1357.39z"/>
		</g>
	</g>
	<g class="st7">
		<g>
			<path class="st8" d="M-2142.01,1356.52c4.2,1.98,8.6,3.52,13.13,4.52c0.79,0.18,1.62-0.24,1.85-1.05
				c0.21-0.75-0.25-1.67-1.05-1.85c-4.28-0.95-8.45-2.35-12.42-4.22c-0.73-0.35-1.62-0.2-2.05,0.54
				C-2142.93,1355.12-2142.74,1356.17-2142.01,1356.52L-2142.01,1356.52z"/>
		</g>
	</g>
	<g class="st7">
		<g>
			<path class="st8" d="M-2143.35,1355.12c5.53,1.89,11.15,3.48,16.85,4.75c1.88,0.42,2.68-2.47,0.8-2.89
				c-5.7-1.27-11.33-2.85-16.85-4.75C-2144.38,1351.6-2145.17,1354.5-2143.35,1355.12L-2143.35,1355.12z"/>
		</g>
	</g>
	<g class="st7">
		<g>
			<path class="st8" d="M-2140.29,1354.13c4.69,1.8,9.46,3.39,14.3,4.75c1.86,0.52,2.66-2.37,0.8-2.89
				c-4.84-1.36-9.61-2.95-14.3-4.75c-0.76-0.29-1.65,0.32-1.85,1.05C-2141.57,1353.13-2141.05,1353.84-2140.29,1354.13
				L-2140.29,1354.13z"/>
		</g>
	</g>
	<g class="st7">
		<g>
			<path class="st8" d="M-2140.79,1352.23c4.63,1.34,9.27,2.63,13.92,3.88c1.87,0.5,2.66-2.39,0.8-2.89
				c-4.65-1.25-9.29-2.54-13.92-3.88C-2141.86,1348.8-2142.65,1351.69-2140.79,1352.23L-2140.79,1352.23z"/>
		</g>
	</g>
	<g class="st7">
		<g>
			<path class="st8" d="M-2143.79,1345.7c-0.01,0.02-0.02,0.05-0.02,0.07c0.61-0.35,1.23-0.7,1.85-1.05c-0.03,0-0.06-0.01-0.09-0.01
				c0.22,0.13,0.44,0.26,0.66,0.39c-0.03-0.02-0.05-0.05-0.08-0.07c0.15,0.35,0.29,0.71,0.44,1.06c0-0.03,0-0.06,0.01-0.1
				c-0.25,0.43-0.5,0.86-0.74,1.3c0.04-0.02,0.09-0.05,0.13-0.07c-0.25,0.07-0.5,0.14-0.76,0.2c-0.41-0.03,0.54,0.33,0.65,0.38
				c0.27,0.13,0.54,0.25,0.81,0.38c0.63,0.29,1.27,0.58,1.91,0.86c1.3,0.57,2.62,1.13,3.94,1.66c2.59,1.04,5.21,2,7.86,2.87
				c1.65,0.54,2.58-1.87,1.16-2.74c-0.15-0.09-0.31-0.19-0.46-0.28c-1.65-1.01-3.16,1.58-1.51,2.59c0.15,0.09,0.31,0.19,0.46,0.28
				c0.39-0.91,0.77-1.83,1.16-2.74c-3.42-1.12-6.81-2.38-10.12-3.81c-1.66-0.71-3.27-1.54-4.94-2.24c-0.88-0.37-2-0.18-2.41,0.79
				c-0.37,0.88,0.14,2.05,1.14,2.2c0.85,0.13,1.55-0.21,1.85-1.05c0.01-0.02,0.02-0.05,0.02-0.07c0.27-0.76-0.31-1.64-1.05-1.85
				C-2142.77,1344.42-2143.51,1344.93-2143.79,1345.7L-2143.79,1345.7z"/>
		</g>
	</g>
	<g class="st7">
		<g>
			<path class="st8" d="M-2142.04,1346.54c5.53,3.32,11.43,6,17.56,8.01c0.68,0.22,1.31-0.16,1.69-0.69
				c0.01-0.01,0.02-0.03,0.03-0.04c0.5-0.69,0.08-1.63-0.54-2.05c-0.01-0.01-0.03-0.02-0.04-0.03c-1.6-1.09-3.1,1.5-1.51,2.59
				c0.01,0.01,0.03,0.02,0.04,0.03c-0.18-0.68-0.36-1.37-0.54-2.05c-0.01,0.01-0.02,0.03-0.03,0.04c0.56-0.23,1.13-0.46,1.69-0.69
				c-5.89-1.94-11.52-4.52-16.84-7.71C-2142.19,1342.95-2143.7,1345.54-2142.04,1346.54L-2142.04,1346.54z"/>
		</g>
	</g>
	<g class="st7">
		<g>
			<path class="st8" d="M-2139.63,1348.54c4.48,2.5,9.17,4.63,14,6.38c0.76,0.28,1.64-0.31,1.85-1.05c0.23-0.83-0.28-1.57-1.05-1.85
				c-4.59-1.66-9.03-3.69-13.29-6.07C-2139.81,1345-2141.32,1347.59-2139.63,1348.54L-2139.63,1348.54z"/>
		</g>
	</g>
	<g class="st7">
		<g>
			<path class="st8" d="M-2139.84,1347.83c-0.36-0.05-0.72-0.11-1.08-0.16c-1.91-0.29-2.61,2.18-0.8,2.89
				c4.64,1.82,9.42,3.25,14.29,4.27c0.13-0.98,0.27-1.96,0.4-2.95c-0.15-0.01-0.29-0.01-0.44-0.02c-1.93-0.08-1.93,2.92,0,3
				c0.15,0.01,0.29,0.01,0.44,0.02c1.67,0.07,2.07-2.6,0.4-2.95c-4.88-1.02-9.66-2.44-14.29-4.27c-0.27,0.96-0.53,1.93-0.8,2.89
				c0.36,0.05,0.72,0.11,1.08,0.16c0.8,0.12,1.61-0.2,1.85-1.05C-2138.59,1348.97-2139.03,1347.95-2139.84,1347.83L-2139.84,1347.83
				z"/>
		</g>
	</g>
	<g class="st7">
		<g>
			<path class="st8" d="M-2141.36,1352.37c4.49,1.64,9.12,2.81,13.85,3.5c0.8,0.12,1.61-0.2,1.85-1.05
				c0.19-0.71-0.24-1.73-1.05-1.85c-4.73-0.69-9.36-1.86-13.85-3.5c-0.76-0.28-1.64,0.31-1.85,1.05
				C-2142.63,1351.36-2142.12,1352.09-2141.36,1352.37L-2141.36,1352.37z"/>
		</g>
	</g>
	<g class="st7">
		<g>
			<path class="st8" d="M-2142.79,1350.67c-0.32,0.02-0.64,0.04-0.97,0.06c-1.75,0.11-1.96,2.33-0.4,2.95
				c4.3,1.72,8.84,2.73,13.46,3.07c0.81,0.06,1.5-0.73,1.5-1.5c0-0.86-0.69-1.44-1.5-1.5c-4.35-0.32-8.62-1.35-12.67-2.96
				c-0.13,0.98-0.27,1.96-0.4,2.95c0.32-0.02,0.64-0.04,0.97-0.06c0.81-0.05,1.5-0.65,1.5-1.5
				C-2141.29,1351.4-2141.98,1350.62-2142.79,1350.67L-2142.79,1350.67z"/>
		</g>
	</g>
	<g class="st7">
		<g>
			<path class="st8" d="M-2145.24,1352.56c-0.18,0.04-0.36,0.08-0.54,0.12c-1.21,0.28-1.52,2.18-0.36,2.74
				c3.95,1.92,8.37,1.91,12.51,3.21c1.85,0.58,2.64-2.32,0.8-2.89c-3.85-1.21-8.12-1.13-11.79-2.91c-0.12,0.91-0.24,1.83-0.36,2.74
				c0.18-0.04,0.36-0.08,0.54-0.12c0.79-0.18,1.26-1.09,1.05-1.85C-2143.62,1352.8-2144.45,1352.38-2145.24,1352.56
				L-2145.24,1352.56z"/>
		</g>
	</g>
	<g class="st7">
		<g>
			<path class="st8" d="M-2145.45,1354.65c-0.45-0.09-0.86-0.12-1.29,0.04c-0.87,0.31-1.46,1.33-0.9,2.2
				c1.21,1.87,3.76,2.31,5.78,2.77c2.32,0.53,4.7,0.84,7.08,0.94c0.81,0.03,1.5-0.71,1.5-1.5c0-0.84-0.69-1.47-1.5-1.5
				c-1.97-0.08-3.93-0.32-5.86-0.74c-0.99-0.21-1.98-0.47-2.95-0.77c-0.34-0.11-0.74-0.23-0.93-0.33c-0.15-0.07-0.28-0.16-0.42-0.25
				c0.09,0.07,0.07,0.05-0.06-0.07c0.06,0.11,0.04,0.08-0.06-0.08c-0.3,0.73-0.6,1.47-0.9,2.2c-0.1-0.01-0.2-0.03-0.3-0.04
				c0.79,0.15,1.62-0.22,1.85-1.05C-2144.21,1355.76-2144.66,1354.8-2145.45,1354.65L-2145.45,1354.65z"/>
		</g>
	</g>
	<g class="st7">
		<g>
			<path class="st8" d="M-2108.95,1357.89c11.14,1.56,22.4,1.74,33.58,0.46c1.9-0.22,1.92-3.22,0-3
				c-10.89,1.25-21.92,1.16-32.78-0.35c-0.81-0.11-1.6,0.2-1.85,1.05C-2110.2,1356.75-2109.75,1357.78-2108.95,1357.89
				L-2108.95,1357.89z"/>
		</g>
	</g>
	<g class="st7">
		<g>
			<path class="st8" d="M-2129.19,1354.88c4.08,1.46,8.44,1.74,12.72,2.12c4.5,0.39,9,0.79,13.5,1.18c1.92,0.17,1.91-2.83,0-3
				c-4.34-0.38-8.68-0.76-13.02-1.14c-4.19-0.37-8.41-0.63-12.41-2.05C-2130.21,1351.33-2131,1354.23-2129.19,1354.88
				L-2129.19,1354.88z"/>
		</g>
	</g>
	<g class="st7">
		<g>
			<path class="st8" d="M-2108.74,1357.34c14.97,1.4,30.32,2.32,44.98-1.76c1.86-0.52,1.07-3.41-0.8-2.89
				c-14.39,4-29.48,3.03-44.18,1.65C-2110.66,1354.16-2110.65,1357.16-2108.74,1357.34L-2108.74,1357.34z"/>
		</g>
	</g>
	<g class="st7">
		<g>
			<path class="st8" d="M-2077.94,1370.48c6.45-0.8,12.77-2.32,18.84-4.63c0.76-0.29,1.28-1.01,1.05-1.85
				c-0.2-0.72-1.08-1.34-1.85-1.05c-5.81,2.21-11.87,3.76-18.05,4.52c-0.8,0.1-1.5,0.62-1.5,1.5
				C-2079.44,1369.72-2078.75,1370.58-2077.94,1370.48L-2077.94,1370.48z"/>
		</g>
	</g>
	<g class="st7">
		<g>
			<path class="st8" d="M-2103.13,1342.13c0.39,4.41-1.16,8.69-1.2,13.09c-0.01,0.84,0.7,1.46,1.5,1.5
				c0.18,0.01,0.36,0.02,0.54,0.03c0.81,0.04,1.5-0.72,1.5-1.5c0-0.84-0.69-1.46-1.5-1.5c-0.18-0.01-0.36-0.02-0.54-0.03
				c0.5,0.5,1,1,1.5,1.5c0.04-4.4,1.59-8.67,1.2-13.09c-0.07-0.81-0.64-1.5-1.5-1.5
				C-2102.38,1340.63-2103.2,1341.32-2103.13,1342.13L-2103.13,1342.13z"/>
		</g>
	</g>
	<g class="st7">
		<g>
			<path class="st8" d="M-2086.02,1341.11c-0.27,5.12-0.08,10.24,0.57,15.32c0.1,0.8,0.62,1.5,1.5,1.5c0.73,0,1.6-0.69,1.5-1.5
				c-0.65-5.08-0.84-10.21-0.57-15.32C-2082.92,1339.18-2085.92,1339.19-2086.02,1341.11L-2086.02,1341.11z"/>
		</g>
	</g>
	<g class="st7">
		<g>
			<path class="st8" d="M-2123.9,1357.94c4.48,0.45,8.97,0.9,13.45,1.35c0.81,0.08,1.5-0.75,1.5-1.5c0-0.88-0.69-1.42-1.5-1.5
				c-4.48-0.45-8.97-0.9-13.45-1.35c-0.81-0.08-1.5,0.75-1.5,1.5C-2125.4,1357.32-2124.7,1357.86-2123.9,1357.94L-2123.9,1357.94z"
				/>
		</g>
	</g>
	<g class="st7">
		<g>
			<path class="st8" d="M-2125.26,1359.98c4.26,0.17,8.51,0.34,12.77,0.51c1.93,0.08,1.93-2.92,0-3c-4.26-0.17-8.51-0.34-12.77-0.51
				C-2127.19,1356.9-2127.18,1359.9-2125.26,1359.98L-2125.26,1359.98z"/>
		</g>
	</g>
	<g class="st7">
		<g>
			<path class="st8" d="M-2127.14,1360.8c5.83,0.56,11.69,0.8,17.54,0.73c1.93-0.02,1.93-3.02,0-3c-5.86,0.07-11.71-0.17-17.54-0.73
				c-0.81-0.08-1.5,0.74-1.5,1.5C-2128.64,1360.17-2127.95,1360.72-2127.14,1360.8L-2127.14,1360.8z"/>
		</g>
	</g>
	<g class="st7">
		<g>
			<path class="st8" d="M-2126.45,1359.36c-0.72,0.06-1.34,0.21-1.96,0.59c-1.08,0.65-0.92,2.42,0.36,2.74
				c5.24,1.32,10.71,1.05,16.07,1.02c1.93-0.01,1.93-3.01,0-3c-5.08,0.03-10.3,0.34-15.27-0.91c0.12,0.91,0.24,1.83,0.36,2.74
				c0.17-0.1,0.26-0.17,0.45-0.18c0.81-0.06,1.5-0.64,1.5-1.5C-2124.95,1360.1-2125.64,1359.3-2126.45,1359.36L-2126.45,1359.36z"/>
		</g>
	</g>
	<g class="st7">
		<g>
			<path class="st8" d="M-2126.85,1360.94c-0.16,0.03-0.33,0.06-0.49,0.09c-0.72,0.13-1.18,0.97-1.07,1.65
				c0.12,0.77,0.71,1.24,1.47,1.3c5.77,0.45,11.56,0.65,17.35,0.58c1.93-0.02,1.93-3.02,0-3c-5.79,0.06-11.58-0.13-17.35-0.58
				c0.13,0.98,0.27,1.96,0.4,2.95c0.16-0.03,0.33-0.06,0.49-0.09c0.8-0.15,1.25-1.11,1.05-1.85
				C-2125.23,1361.15-2126.05,1360.79-2126.85,1360.94L-2126.85,1360.94z"/>
		</g>
	</g>
	<g class="st7">
		<g>
			<path class="st8" d="M-2125.26,1361.23c-0.81-0.06-1.58,0.01-2.37,0.17c-1.49,0.29-1.36,2.52,0,2.89
				c3.01,0.82,6.18,0.86,9.28,0.99c3.14,0.14,6.29,0.24,9.43,0.31c1.93,0.04,1.93-2.96,0-3c-3.03-0.07-6.05-0.16-9.07-0.3
				c-2.95-0.13-5.97-0.12-8.84-0.9c0,0.96,0,1.93,0,2.89c0.53-0.1,1.04-0.1,1.57-0.06
				C-2123.33,1364.38-2123.34,1361.38-2125.26,1361.23L-2125.26,1361.23z"/>
		</g>
	</g>
	<g class="st7">
		<g>
			<path class="st8" d="M-2130.42,1361.96c-0.35,0.1-0.7,0.2-1.04,0.31c-1.32,0.39-1.53,2.63,0,2.89
				c7.56,1.31,15.22,1.92,22.89,1.78c1.93-0.04,1.93-3.04,0-3c-7.4,0.13-14.8-0.41-22.09-1.68c0,0.96,0,1.93,0,2.89
				c0.35-0.1,0.7-0.2,1.04-0.31C-2127.77,1364.31-2128.56,1361.41-2130.42,1361.96L-2130.42,1361.96z"/>
		</g>
	</g>
	<g class="st7">
		<g>
			<path class="st8" d="M-2128.4,1364.6c7.13,1.64,14.4,2.68,21.7,3.11c1.93,0.12,1.92-2.88,0-3c-7.04-0.42-14.03-1.43-20.9-3.01
				C-2129.48,1361.28-2130.28,1364.17-2128.4,1364.6L-2128.4,1364.6z"/>
		</g>
	</g>
	<g class="st7">
		<g>
			<path class="st8" d="M-2121.08,1366.47c7.15,1.33,14.42,1.83,21.69,1.44c1.92-0.1,1.93-3.1,0-3c-6.99,0.38-14-0.05-20.89-1.33
				C-2122.17,1363.23-2122.97,1366.12-2121.08,1366.47L-2121.08,1366.47z"/>
		</g>
	</g>
	<g class="st7">
		<g>
			<path class="st8" d="M-2116.41,1367.32c6.96,0.73,13.95,1.06,20.94,0.98c1.93-0.02,1.93-3.02,0-3
				c-6.99,0.08-13.98-0.25-20.94-0.98c-0.81-0.09-1.49,0.75-1.5,1.5C-2117.92,1366.7-2117.21,1367.23-2116.41,1367.32
				L-2116.41,1367.32z"/>
		</g>
	</g>
	<g class="st7">
		<g>
			<path class="st8" d="M-2120.98,1366.72c0.86,2.15,3.09,2.01,5.07,2.14c2.54,0.17,5.09,0.3,7.63,0.39
				c5.18,0.18,10.35,0.18,15.53,0.01c1.93-0.06,1.93-3.06,0-3c-4.44,0.14-8.87,0.16-13.31,0.05c-2.14-0.05-4.27-0.14-6.41-0.25
				c-1.15-0.06-2.3-0.13-3.45-0.21c-0.49-0.03-0.98-0.06-1.48-0.1c-0.23,0-0.46-0.03-0.69-0.07c-0.28-0.12-0.29-0.04-0.01,0.23
				C-2118.79,1364.15-2121.7,1364.93-2120.98,1366.72L-2120.98,1366.72z"/>
		</g>
	</g>
	<g class="st7">
		<g>
			<path class="st8" d="M-2115.21,1368.17c7.83,0.52,15.68,0.49,23.5-0.1c1.91-0.14,1.93-3.14,0-3c-7.82,0.58-15.67,0.62-23.5,0.1
				C-2117.14,1365.04-2117.13,1368.04-2115.21,1368.17L-2115.21,1368.17z"/>
		</g>
	</g>
	<g class="st7">
		<g>
			<path class="st8" d="M-2117.54,1364.61c-0.26,0.2-0.52,0.39-0.78,0.59c-1.18,0.89-0.81,2.68,0.76,2.8
				c9.68,0.7,19.38,0.93,29.08,0.71c1.93-0.04,1.93-3.04,0-3c-9.7,0.22-19.4-0.01-29.08-0.71c0.25,0.93,0.5,1.86,0.76,2.8
				c0.26-0.2,0.52-0.39,0.78-0.59C-2114.5,1366.06-2116,1363.45-2117.54,1364.61L-2117.54,1364.61z"/>
		</g>
	</g>
	<g class="st7">
		<g>
			<path class="st8" d="M-2115.54,1361.8c7.83,0.43,15.66,0.96,23.48,1.59c1.92,0.16,1.91-2.84,0-3
				c-7.82-0.63-15.64-1.17-23.48-1.59C-2117.47,1358.69-2117.46,1361.69-2115.54,1361.8L-2115.54,1361.8z"/>
		</g>
	</g>
	<g class="st7">
		<g>
			<path class="st8" d="M-2114.87,1357.99c-0.25,0-0.51,0-0.76-0.01c-1.94-0.02-1.92,2.9,0,3c9.39,0.49,18.77,0.98,28.16,1.48
				c1.93,0.1,1.92-2.9,0-3c-9.39-0.49-18.77-0.98-28.16-1.48c0,1,0,2,0,3c0.25,0,0.51,0,0.76,0.01
				C-2112.94,1361-2112.94,1358-2114.87,1357.99L-2114.87,1357.99z"/>
		</g>
	</g>
	<g class="st7">
		<g>
			<path class="st8" d="M-2113.4,1359.06c-0.24,0.04-0.49,0.08-0.73,0.11c-1.75,0.27-1.19,2.85,0.4,2.95
				c8.49,0.52,16.99,0.23,25.42-0.88c0.81-0.11,1.49-0.61,1.5-1.5c0.01-0.73-0.7-1.61-1.5-1.5c-8.43,1.11-16.94,1.4-25.42,0.88
				c0.13,0.98,0.27,1.96,0.4,2.95c0.24-0.04,0.49-0.08,0.73-0.11C-2110.7,1361.66-2111.51,1358.77-2113.4,1359.06L-2113.4,1359.06z"
				/>
		</g>
	</g>
	<g class="st7">
		<g>
			<path class="st8" d="M-2111.48,1361.54c8.51,0.53,17.04,0.51,25.54-0.05c1.92-0.13,1.93-3.13,0-3
				c-8.51,0.56-17.04,0.58-25.54,0.05C-2113.41,1358.42-2113.4,1361.42-2111.48,1361.54L-2111.48,1361.54z"/>
		</g>
	</g>
	<g class="st7">
		<g>
			<path class="st8" d="M-2111.33,1364.44c7.93,0.96,15.93,0.93,23.85-0.11c0.81-0.11,1.49-0.61,1.5-1.5c0.01-0.73-0.7-1.61-1.5-1.5
				c-7.92,1.04-15.92,1.08-23.85,0.11C-2113.24,1361.21-2113.22,1364.21-2111.33,1364.44L-2111.33,1364.44z"/>
		</g>
	</g>
	<g class="st7">
		<g>
			<path class="st8" d="M-2110.97,1365.53c8.48,1.12,17.04,0.93,25.47-0.49c1.9-0.32,1.09-3.21-0.8-2.89
				c-8.15,1.37-16.48,1.47-24.67,0.39c-0.81-0.11-1.49,0.77-1.5,1.5C-2112.48,1364.93-2111.77,1365.43-2110.97,1365.53
				L-2110.97,1365.53z"/>
		</g>
	</g>
	<g class="st7">
		<g>
			<path class="st8" d="M-2108.81,1365.22c3.96,1.14,8.08,1.06,12.16,0.9c4.37-0.18,8.74-0.46,13.1-0.83c1.91-0.16,1.93-3.17,0-3
				c-4.2,0.36-8.4,0.63-12.61,0.81c-3.97,0.17-7.99,0.34-11.85-0.77C-2109.87,1361.79-2110.67,1364.68-2108.81,1365.22
				L-2108.81,1365.22z"/>
		</g>
	</g>
	<g class="st7">
		<g>
			<path class="st8" d="M-2103.13,1368.16c5.01,0.09,10.03-0.12,15.01-0.65c2.13-0.23,12.39-0.52,10.29-4.71
				c-0.87-1.73-3.46-0.21-2.59,1.51c0.03,0.07,0.07,0.13,0.1,0.2c-0.05-0.39-0.1-0.77-0.15-1.16c0.34-0.35,0.28-0.39-0.18-0.1
				c-0.19,0.07-0.39,0.14-0.58,0.2c-0.39,0.12-0.79,0.21-1.2,0.29c-0.95,0.19-1.92,0.31-2.89,0.44c-1.94,0.25-3.89,0.46-5.84,0.61
				c-3.98,0.32-7.98,0.43-11.97,0.36C-2105.06,1365.12-2105.06,1368.12-2103.13,1368.16L-2103.13,1368.16z"/>
		</g>
	</g>
	<g class="st7">
		<g>
			<path class="st8" d="M-2097.51,1367.76c3.8-0.04,7.59-0.19,11.38-0.45c1.86-0.13,3.72-0.29,5.57-0.47
				c1.74-0.17,3.49-0.36,5.12-1.02c0.76-0.31,1.27-1,1.05-1.85c-0.19-0.71-1.1-1.35-1.85-1.05c-1.6,0.65-3.27,0.81-4.97,0.98
				c-1.78,0.17-3.57,0.32-5.36,0.44c-3.65,0.25-7.3,0.38-10.95,0.43C-2099.44,1364.78-2099.44,1367.78-2097.51,1367.76
				L-2097.51,1367.76z"/>
		</g>
	</g>
	<g class="st7">
		<g>
			<path class="st8" d="M-2092.41,1366.29c8.3,0.3,16.61-0.93,24.47-3.61c1.82-0.62,1.04-3.52-0.8-2.89
				c-7.63,2.61-15.62,3.79-23.67,3.51C-2094.34,1363.22-2094.33,1366.22-2092.41,1366.29L-2092.41,1366.29z"/>
		</g>
	</g>
	<g class="st7">
		<g>
			<path class="st8" d="M-2091.7,1359c-0.01-0.03-0.02-0.05-0.04-0.08c-0.29-0.63-1.08-0.8-1.69-0.69
				c-0.45,0.08-0.88,0.39-1.06,0.82c-0.25,0.58-0.3,1.36,0.23,1.82c0.81,0.69,1.59,0.58,2.61,0.53c1.17-0.06,2.33-0.13,3.5-0.19
				c2.18-0.12,4.35-0.25,6.53-0.38c4.2-0.25,8.46-0.47,12.48-1.81c1.82-0.61,1.04-3.51-0.8-2.89c-3.63,1.21-7.42,1.45-11.22,1.67
				c-2.02,0.12-4.04,0.24-6.06,0.35c-1.89,0.11-3.94,0.45-5.82,0.29c0.35,0.15,0.71,0.29,1.06,0.44c-0.05-0.04-0.1-0.09-0.15-0.13
				c0.08,0.61,0.16,1.21,0.23,1.82c0.02-0.03,0.03-0.07,0.05-0.1c-0.3,0.23-0.6,0.46-0.9,0.69c0.04-0.01,0.08-0.02,0.12-0.02
				c-0.56-0.23-1.13-0.46-1.69-0.69c0.01,0.03,0.02,0.05,0.04,0.08C-2093.49,1362.27-2090.9,1360.75-2091.7,1359L-2091.7,1359z"/>
		</g>
	</g>
	<g class="st7">
		<g>
			<path class="st8" d="M-2094.79,1362.25c8.14,0.11,16.26-1.21,23.94-3.91c1.81-0.64,1.03-3.54-0.8-2.89
				c-7.45,2.62-15.25,3.91-23.14,3.8C-2096.72,1359.23-2096.72,1362.23-2094.79,1362.25L-2094.79,1362.25z"/>
		</g>
	</g>
	<g class="st7">
		<g>
			<path class="st8" d="M-2094.29,1364.57c4.74,0.25,9.48,0.03,14.18-0.62c2.25-0.31,4.51-0.69,6.71-1.26
				c1.45-0.38,4.47-1.83,3.01-3.79c-0.48-0.64-1.3-1-2.05-0.54c-0.03,0.02-0.07,0.04-0.1,0.06c-1.64,1.01-0.14,3.61,1.51,2.59
				c0.03-0.02,0.07-0.04,0.1-0.06c-0.68-0.18-1.37-0.36-2.05-0.54c0.36-1.04,0.28-1.35-0.24-0.93c-0.15,0.07-0.3,0.13-0.46,0.17
				c-0.42,0.14-0.85,0.23-1.28,0.32c-0.84,0.19-1.69,0.37-2.54,0.52c-1.85,0.35-3.71,0.62-5.58,0.81
				c-3.73,0.38-7.47,0.46-11.21,0.26C-2096.22,1361.47-2096.21,1364.47-2094.29,1364.57L-2094.29,1364.57z"/>
		</g>
	</g>
	<g class="st7">
		<g>
			<path class="st8" d="M-2093.43,1365.25c8.1,0.03,16.18-1.14,23.94-3.47c1.84-0.56,1.06-3.45-0.8-2.89
				c-7.52,2.26-15.29,3.4-23.14,3.36C-2095.36,1362.24-2095.36,1365.24-2093.43,1365.25L-2093.43,1365.25z"/>
		</g>
	</g>
	<g class="st7">
		<g>
			<path class="st8" d="M-2089.35,1366.38c8.14,0.93,16.44-0.06,24.15-2.85c1.8-0.65,1.02-3.55-0.8-2.89
				c-7.49,2.72-15.44,3.65-23.35,2.74C-2091.27,1363.16-2091.25,1366.16-2089.35,1366.38L-2089.35,1366.38z"/>
		</g>
	</g>
	<g class="st7">
		<g>
			<path class="st8" d="M-2082.26,1368.26c1.55,0.93,3.3,0.95,5.05,0.74c1.92-0.23,3.82-0.57,5.71-1c3.82-0.88,7.51-2.2,11.06-3.85
				c1.75-0.81,0.23-3.4-1.51-2.59c-3.09,1.44-6.31,2.56-9.62,3.38c-1.63,0.4-3.27,0.73-4.93,0.97c-1.38,0.2-2.98,0.52-4.24-0.23
				C-2082.4,1364.67-2083.91,1367.26-2082.26,1368.26L-2082.26,1368.26z"/>
		</g>
	</g>
	<g class="st7">
		<g>
			<path class="st8" d="M-2077.94,1368.23c7.3,0.44,14.61-1.21,21.05-4.67c1.7-0.92,0.19-3.51-1.51-2.59
				c-5.99,3.22-12.75,4.67-19.53,4.26C-2079.87,1365.11-2079.86,1368.11-2077.94,1368.23L-2077.94,1368.23z"/>
		</g>
	</g>
	<g class="st7">
		<g>
			<path class="st8" d="M-2073.35,1364.97c7.22,0.01,14.65-1.36,20.36-6.06c0.63-0.52,0.53-1.58,0-2.12c-0.61-0.63-1.5-0.51-2.12,0
				c-5.05,4.16-11.89,5.19-18.24,5.18C-2075.28,1361.96-2075.28,1364.96-2073.35,1364.97L-2073.35,1364.97z"/>
		</g>
	</g>
	<g class="st7">
		<g>
			<path class="st8" d="M-2074.53,1361.01c3.26-0.05,6.52-0.4,9.71-1.08c2.85-0.6,6.18-1.25,8.38-3.29c1.42-1.31-0.7-3.43-2.12-2.12
				c-0.92,0.84-2.13,1.21-3.3,1.56c-1.34,0.4-2.71,0.74-4.08,1.02c-2.83,0.58-5.71,0.86-8.6,0.9
				C-2076.46,1358.04-2076.47,1361.04-2074.53,1361.01L-2074.53,1361.01z"/>
		</g>
	</g>
	<g class="st7">
		<g>
			<path class="st8" d="M-2077.66,1357.39c4.04,0.75,8.09,0.08,11.9-1.36c1.83-0.69,3.62-1.52,5.37-2.39
				c1.69-0.83,3.19-1.65,3.94-3.47c0.31-0.75-0.33-1.65-1.05-1.85c-0.86-0.24-1.54,0.29-1.85,1.05c-0.2,0.48-0.83,0.78-1.26,1.02
				c-0.68,0.38-1.39,0.71-2.09,1.05c-1.48,0.71-2.98,1.39-4.52,1.94c-3.08,1.09-6.39,1.72-9.64,1.12
				C-2078.75,1354.15-2079.56,1357.04-2077.66,1357.39L-2077.66,1357.39z"/>
		</g>
	</g>
	<g class="st7">
		<g>
			<path class="st8" d="M-2078.88,1356.9c1.59,0.72,3.15,0.74,4.85,0.5c1.64-0.23,3.28-0.53,4.9-0.88c3.3-0.7,6.54-1.7,9.5-3.35
				c1.69-0.94,0.18-3.53-1.51-2.59c-2.55,1.42-5.33,2.28-8.17,2.91c-1.44,0.32-2.89,0.58-4.34,0.82c-1.17,0.2-2.59,0.5-3.72-0.01
				c-0.74-0.33-1.61-0.21-2.05,0.54C-2079.79,1355.49-2079.62,1356.56-2078.88,1356.9L-2078.88,1356.9z"/>
		</g>
	</g>
	<g class="st7">
		<g>
			<path class="st8" d="M-2080.5,1356.98c7.02,0.62,14.19-1.22,20.05-5.14c1.6-1.07,0.1-3.67-1.51-2.59
				c-5.47,3.66-11.98,5.31-18.53,4.73C-2082.42,1353.81-2082.41,1356.81-2080.5,1356.98L-2080.5,1356.98z"/>
		</g>
	</g>
	<g class="st7">
		<g>
			<path class="st8" d="M-2081.68,1356.88c6.47-0.19,12.88-1.35,19-3.47c1.81-0.63,1.03-3.53-0.8-2.89
				c-5.87,2.03-11.99,3.17-18.2,3.36C-2083.61,1353.94-2083.62,1356.94-2081.68,1356.88L-2081.68,1356.88z"/>
		</g>
	</g>
	<g class="st7">
		<g>
			<path class="st8" d="M-2079.3,1358.76c5.06,0.58,10.24-0.02,15.04-1.73c0.76-0.27,1.27-1.02,1.05-1.85
				c-0.2-0.74-1.08-1.32-1.85-1.05c-4.58,1.63-9.41,2.18-14.24,1.62c-0.81-0.09-1.5,0.76-1.5,1.5
				C-2080.8,1358.15-2080.1,1358.67-2079.3,1358.76L-2079.3,1358.76z"/>
		</g>
	</g>
	<g class="st7">
		<g>
			<path class="st8" d="M-2073.11,1361.47c3.05-0.45,6.06-1.09,9.03-1.91c1.48-0.41,2.95-0.87,4.41-1.37
				c1.22-0.42,2.54-0.85,3.37-1.9c0.5-0.64,0.62-1.5,0-2.12c-0.52-0.52-1.62-0.64-2.12,0c-0.68,0.87-1.93,1.1-2.92,1.43
				c-1.36,0.45-2.74,0.87-4.13,1.24c-2.78,0.75-5.59,1.32-8.44,1.75c-0.8,0.12-1.24,1.13-1.05,1.85
				C-2074.72,1361.28-2073.91,1361.59-2073.11,1361.47L-2073.11,1361.47z"/>
		</g>
	</g>
	<g class="st7">
		<g>
			<path class="st8" d="M-2073,1362.34c6.66-0.28,13.16-2.25,18.83-5.76c1.64-1.01,0.13-3.61-1.51-2.59
				c-5.22,3.23-11.18,5.09-17.32,5.35C-2074.92,1359.42-2074.93,1362.42-2073,1362.34L-2073,1362.34z"/>
		</g>
	</g>
	<g class="st7">
		<g>
			<path class="st8" d="M-2068.14,1363.74c3.5,0.69,6.79-0.47,9.98-1.82c2.76-1.17,5.43-2.41,7.26-4.87
				c0.48-0.65,0.11-1.68-0.54-2.05c-0.77-0.45-1.57-0.11-2.05,0.54c-1.4,1.88-3.84,2.8-5.92,3.68c-2.46,1.04-5.21,2.16-7.93,1.63
				c-0.79-0.16-1.62,0.23-1.85,1.05C-2069.4,1362.64-2068.94,1363.59-2068.14,1363.74L-2068.14,1363.74z"/>
		</g>
	</g>
	<g class="st7">
		<g>
			<path class="st8" d="M-2068.78,1365.99c1.21,1.26,3.03,0.8,4.55,0.53c1.68-0.3,3.33-0.73,4.94-1.27c3.22-1.08,6.28-2.59,9.08-4.5
				c1.59-1.08,0.09-3.68-1.51-2.59c-2.35,1.6-4.87,2.94-7.54,3.91c-1.33,0.48-2.68,0.89-4.06,1.21c-0.66,0.15-1.33,0.29-2,0.41
				c-0.32,0.06-0.65,0.12-0.98,0.15c-0.15,0.02-0.31,0.02-0.46,0.02c-0.09-0.03-0.05-0.02,0.1,0.02
				C-2068,1362.47-2070.12,1364.6-2068.78,1365.99L-2068.78,1365.99z"/>
		</g>
	</g>
	<g class="st7">
		<g>
			<path class="st8" d="M-2063.41,1360.45c4.63-0.82,9.42-1.84,13.01-5.1c0.6-0.54,0.55-1.57,0-2.12c-0.6-0.6-1.52-0.55-2.12,0
				c-3.16,2.86-7.63,3.61-11.69,4.33c-0.8,0.14-1.25,1.12-1.05,1.85C-2065.02,1360.24-2064.21,1360.59-2063.41,1360.45
				L-2063.41,1360.45z"/>
		</g>
	</g>
	<g class="st7">
		<g>
			<path class="st8" d="M-2069.44,1355.81c5.21,0.62,10.52-0.44,15.13-2.9c1.7-0.91,0.19-3.5-1.51-2.59
				c-4.18,2.23-8.93,3.06-13.62,2.49c-0.81-0.1-1.5,0.76-1.5,1.5C-2070.94,1355.2-2070.25,1355.71-2069.44,1355.81L-2069.44,1355.81
				z"/>
		</g>
	</g>
	<g class="st7">
		<g>
			<path class="st8" d="M-2070.62,1356.44c5.06,0.22,10.17-0.59,14.9-2.4c0.76-0.29,1.28-1.01,1.05-1.85
				c-0.2-0.72-1.08-1.34-1.85-1.05c-4.51,1.72-9.28,2.51-14.1,2.29C-2072.55,1353.35-2072.55,1356.35-2070.62,1356.44
				L-2070.62,1356.44z"/>
		</g>
	</g>
	<g class="st7">
		<g>
			<path class="st8" d="M-2069.08,1356.25c3.92-0.04,7.83-0.5,11.65-1.36c0.79-0.18,1.25-1.09,1.05-1.85
				c-0.22-0.81-1.05-1.23-1.85-1.05c-3.57,0.8-7.2,1.22-10.85,1.25C-2071.01,1353.26-2071.02,1356.26-2069.08,1356.25
				L-2069.08,1356.25z"/>
		</g>
	</g>
	<g class="st7">
		<g>
			<path class="st8" d="M-2065.34,1358.1c1.96,0.16,3.93,0.02,5.85-0.35c0.77-0.15,1.28-1.12,1.05-1.85
				c-0.27-0.82-1.02-1.21-1.85-1.05c-0.22,0.04-0.45,0.08-0.67,0.12c-0.11,0.02-0.25,0.06-0.36,0.05c0.06-0.01,0.13-0.02,0.19-0.03
				c-0.07,0.01-0.14,0.02-0.21,0.03c-0.44,0.05-0.87,0.09-1.31,0.11c-0.9,0.05-1.79,0.03-2.69-0.05c-0.78-0.06-1.53,0.74-1.5,1.5
				C-2066.8,1357.46-2066.18,1358.03-2065.34,1358.1L-2065.34,1358.1z"/>
		</g>
	</g>
	<g class="st7">
		<g>
			<path class="st8" d="M-2103.85,1369.92c-3.57,13.55-5.85,27.42-6.83,41.4c-0.14,1.93,2.87,1.92,3,0
				c0.96-13.72,3.22-27.31,6.72-40.61C-2100.46,1368.84-2103.36,1368.05-2103.85,1369.92L-2103.85,1369.92z"/>
		</g>
	</g>
	<g class="st7">
		<g>
			<path class="st8" d="M-2106.93,1386.63c-4.01,15.34-7.63,30.78-10.86,46.3c-0.39,1.88,2.5,2.69,2.89,0.8
				c3.22-15.52,6.84-30.96,10.86-46.3C-2103.55,1385.55-2106.44,1384.76-2106.93,1386.63L-2106.93,1386.63z"/>
		</g>
	</g>
	<g class="st7">
		<g>
			<path class="st8" d="M-2114.48,1422.55c-0.13,4-0.07,8.01,0.17,12c0.05,0.81,0.65,1.5,1.5,1.5c0.77,0,1.55-0.69,1.5-1.5
				c-0.24-4-0.3-8-0.17-12C-2111.42,1420.62-2114.42,1420.63-2114.48,1422.55L-2114.48,1422.55z"/>
		</g>
	</g>
	<g class="st7">
		<g>
			<path class="st8" d="M-2104.49,1458.69c0.11,0,0.23,0,0.34,0c0.21,0.01,0.4-0.04,0.58-0.13c0.19-0.06,0.35-0.16,0.48-0.31
				c0.15-0.14,0.25-0.3,0.31-0.48c0.09-0.18,0.14-0.37,0.13-0.58c-0.02-0.13-0.04-0.27-0.05-0.4c-0.07-0.25-0.2-0.47-0.39-0.66
				c-0.1-0.08-0.2-0.16-0.3-0.23c-0.23-0.14-0.49-0.2-0.76-0.2c-0.11,0-0.23,0-0.34,0c-0.21-0.01-0.4,0.04-0.58,0.13
				c-0.19,0.06-0.35,0.16-0.48,0.31c-0.15,0.14-0.25,0.3-0.31,0.48c-0.09,0.18-0.14,0.37-0.13,0.58c0.02,0.13,0.04,0.27,0.05,0.4
				c0.07,0.25,0.2,0.47,0.39,0.66c0.1,0.08,0.2,0.16,0.3,0.23C-2105.01,1458.62-2104.76,1458.69-2104.49,1458.69L-2104.49,1458.69z"
				/>
		</g>
	</g>
	<g class="st7">
		<g>
			<path class="st8" d="M-2095.6,1456.21c0.11-0.11,0.23-0.23,0.34-0.34c0.15-0.14,0.25-0.3,0.31-0.48
				c0.09-0.18,0.14-0.37,0.13-0.58c0.01-0.21-0.04-0.4-0.13-0.58c-0.06-0.19-0.16-0.35-0.31-0.48c-0.1-0.08-0.2-0.16-0.3-0.23
				c-0.23-0.14-0.49-0.2-0.76-0.2c-0.13,0.02-0.27,0.04-0.4,0.05c-0.25,0.07-0.47,0.2-0.66,0.39c-0.11,0.11-0.23,0.23-0.34,0.34
				c-0.15,0.14-0.25,0.3-0.31,0.48c-0.09,0.18-0.14,0.37-0.13,0.58c-0.01,0.21,0.04,0.4,0.13,0.58c0.06,0.19,0.16,0.35,0.31,0.48
				c0.1,0.08,0.2,0.16,0.3,0.23c0.23,0.14,0.49,0.2,0.76,0.2c0.13-0.02,0.27-0.04,0.4-0.05
				C-2096.01,1456.52-2095.79,1456.4-2095.6,1456.21L-2095.6,1456.21z"/>
		</g>
	</g>
	<g class="st7">
		<g>
			<path class="st8" d="M-2090.05,1453.11c0-0.11,0-0.23,0-0.34c0.01-0.21-0.04-0.4-0.13-0.58c-0.06-0.19-0.16-0.35-0.31-0.48
				c-0.14-0.15-0.3-0.25-0.48-0.31c-0.18-0.09-0.37-0.14-0.58-0.13c-0.13,0.02-0.27,0.04-0.4,0.05c-0.25,0.07-0.47,0.2-0.66,0.39
				c-0.08,0.1-0.16,0.2-0.23,0.3c-0.14,0.23-0.2,0.49-0.2,0.76c0,0.11,0,0.23,0,0.34c-0.01,0.21,0.04,0.4,0.13,0.58
				c0.06,0.19,0.16,0.35,0.31,0.48c0.14,0.15,0.3,0.25,0.48,0.31c0.18,0.09,0.37,0.14,0.58,0.13c0.13-0.02,0.27-0.04,0.4-0.05
				c0.25-0.07,0.47-0.2,0.66-0.39c0.08-0.1,0.16-0.2,0.23-0.3C-2090.12,1453.63-2090.05,1453.38-2090.05,1453.11L-2090.05,1453.11z"
				/>
		</g>
	</g>
	<g class="st7">
		<g>
			<path class="st8" d="M-2085.77,1451.2c1.93,0,1.93-3,0-3C-2087.7,1448.2-2087.7,1451.2-2085.77,1451.2L-2085.77,1451.2z"/>
		</g>
	</g>
	<g class="st7">
		<g>
			<path class="st8" d="M-2079.56,1446.91c0.23-0.11,0.45-0.23,0.68-0.34c0.17-0.09,0.31-0.22,0.42-0.39
				c0.13-0.14,0.22-0.31,0.27-0.51c0.06-0.2,0.07-0.4,0.03-0.6c-0.01-0.2-0.07-0.39-0.18-0.56c-0.08-0.1-0.16-0.2-0.23-0.3
				c-0.19-0.19-0.41-0.31-0.66-0.39c-0.13-0.02-0.27-0.04-0.4-0.05c-0.27,0-0.52,0.07-0.76,0.2c-0.23,0.11-0.45,0.23-0.68,0.34
				c-0.17,0.09-0.32,0.22-0.42,0.39c-0.13,0.14-0.22,0.31-0.27,0.51c-0.06,0.2-0.07,0.4-0.03,0.6c0.01,0.2,0.07,0.39,0.18,0.56
				c0.08,0.1,0.16,0.2,0.23,0.3c0.19,0.19,0.41,0.31,0.66,0.39c0.13,0.02,0.27,0.04,0.4,0.05
				C-2080.05,1447.12-2079.8,1447.05-2079.56,1446.91L-2079.56,1446.91z"/>
		</g>
	</g>
	<g class="st7">
		<g>
			<path class="st8" d="M-2074.87,1443.03c1.93,0,1.93-3,0-3C-2076.8,1440.03-2076.81,1443.03-2074.87,1443.03L-2074.87,1443.03z"/>
		</g>
	</g>
	<g class="st7">
		<g>
			<path class="st8" d="M-2103.81,1452.9c1.93,0,1.93-3,0-3C-2105.74,1449.9-2105.74,1452.9-2103.81,1452.9L-2103.81,1452.9z"/>
		</g>
	</g>
	<g class="st7">
		<g>
			<path class="st8" d="M-2097,1450.18c1.93,0,1.93-3,0-3C-2098.93,1447.18-2098.93,1450.18-2097,1450.18L-2097,1450.18z"/>
		</g>
	</g>
	<g class="st7">
		<g>
			<path class="st8" d="M-2088.49,1445.76c1.93,0,1.93-3,0-3C-2090.42,1442.76-2090.42,1445.76-2088.49,1445.76L-2088.49,1445.76z"
				/>
		</g>
	</g>
	<g class="st7">
		<g>
			<path class="st8" d="M-2082.36,1442.01c1.93,0,1.93-3,0-3C-2084.29,1439.01-2084.3,1442.01-2082.36,1442.01L-2082.36,1442.01z"/>
		</g>
	</g>
	<g class="st7">
		<g>
			<path class="st8" d="M-2076.23,1438.95c1.93,0,1.93-3,0-3C-2078.16,1435.95-2078.17,1438.95-2076.23,1438.95L-2076.23,1438.95z"
				/>
		</g>
	</g>
	<g class="st7">
		<g>
			<path class="st8" d="M-2075.25,1436.37c4.38-3.55,9.02-6.78,13.85-9.69c1.65-1,0.14-3.59-1.51-2.59
				c-5.05,3.05-9.87,6.45-14.45,10.16c-0.63,0.51-0.53,1.59,0,2.12C-2076.75,1436.99-2075.88,1436.88-2075.25,1436.37
				L-2075.25,1436.37z"/>
		</g>
	</g>
	<g class="st7">
		<g>
			<path class="st8" d="M-2072.37,1442.69c6.7-5.4,14.18-9.88,22.12-13.22c0.75-0.32,1.27-0.99,1.05-1.85
				c-0.19-0.71-1.1-1.36-1.85-1.05c-8.45,3.56-16.3,8.24-23.44,13.99C-2076,1441.78-2073.86,1443.89-2072.37,1442.69
				L-2072.37,1442.69z"/>
		</g>
	</g>
	<g class="st7">
		<g>
			<path class="st8" d="M-2055,1431.4c17.37-10.02,34.85-19.88,52.11-30.1c7.82-4.63,15.51-9.55,22.52-15.36
				c7.2-5.97,13.34-13,19.03-20.39c10.88-14.13,19.9-29.96,23.88-47.48c4.09-18.02,3.38-36.62,4.45-54.94
				c0.53-9.05,1.5-18.1,3.76-26.9c2.38-9.25,6.45-17.78,11.07-26.1c1.13-2.03,2.27-4.04,3.42-6.05c0.96-1.68-1.63-3.19-2.59-1.51
				c-4.64,8.14-9.29,16.35-12.46,25.21c-3.04,8.51-4.62,17.46-5.52,26.43c-1.83,18.27-0.73,36.77-3.51,54.96
				c-1.35,8.88-3.74,17.55-7.36,25.77c-3.57,8.1-8.11,15.74-13.21,22.97c-5.3,7.51-11.12,14.8-17.76,21.18
				c-6.6,6.34-14.14,11.6-21.9,16.41c-8.09,5.01-16.41,9.65-24.65,14.41c-8.77,5.06-17.55,10.12-26.32,15.18
				c-2.16,1.24-4.32,2.49-6.47,3.73C-2058.18,1429.78-2056.68,1432.37-2055,1431.4L-2055,1431.4z"/>
		</g>
	</g>
	<g class="st7">
		<g>
			<path class="st8" d="M-2070.12,1431.56c20.84-12.25,41.38-25.02,61.57-38.3c10.13-6.67,20.18-13.46,30.14-20.39
				c8.68-6.03,17.58-12.3,22.64-21.88c4.97-9.42,6.23-20.25,6.99-30.72c0.89-12.23,0.88-24.48,0.19-36.73
				c-0.35-6.12-0.75-12.34,0.25-18.42c0.93-5.67,3.04-11.06,5.42-16.26c4.18-9.15,8.76-18.15,13.85-26.83
				c9.86-16.82,22.16-32.82,38.71-43.52c2.02-1.3,4.09-2.52,6.21-3.66c1.7-0.91,0.19-3.5-1.51-2.59
				c-17.35,9.31-30.72,24.25-41.3,40.62c-5.42,8.38-10.16,17.18-14.56,26.13c-4.95,10.08-9.82,20.21-10.35,31.61
				c-0.28,6.06,0.3,12.11,0.57,18.16c0.27,6.13,0.32,12.26,0.18,18.39c-0.27,11.13-0.68,22.74-3.76,33.52
				c-1.47,5.11-3.68,10.04-6.96,14.25c-3.27,4.2-7.4,7.66-11.66,10.81c-9.46,6.98-19.32,13.47-29.1,20
				c-20.11,13.41-40.56,26.32-61.33,38.69c-2.55,1.52-5.11,3.03-7.67,4.54C-2073.3,1429.95-2071.79,1432.54-2070.12,1431.56
				L-2070.12,1431.56z"/>
		</g>
	</g>
</g>
<g id="Layer_5">
	<g>
		<g class="st9">
			<path class="st3" d="M138.44,554.74c3.9-1.07,5.48-4.82,4.84-8.52c-6.69-38.79-13.3-77.62-18.46-116.65
				c-4.19-31.67-8.08-63.53-10.26-95.41c-1.04-15.27-1.57-30.58-1.19-45.88c0.19-7.59,0.61-15.18,1.31-22.74
				c0.16-1.76,0.34-3.52,0.54-5.28c0.1-0.94,0.21-1.87,0.33-2.81c0.06-0.47,0.11-0.93,0.17-1.4c0.02-0.13,0.17-1.31,0.17-1.34
				c0.12-0.85,0.45-3.13,0.66-4.49c0.31-1.96,0.64-3.93,0.99-5.88c0.83-4.58,1.81-9.14,2.91-13.66c1.47,2.35,3.09,4.59,4.82,6.78
				c4.66,5.91,10.52,10.92,16.97,14.79c3.58,2.15,8.91,0.92,10.91-2.86c2.04-3.86,0.96-8.62-2.86-10.91
				c-1.03-0.62-2.04-1.26-3.04-1.94c-0.49-0.34-0.98-0.69-1.47-1.05c-0.2-0.15-0.4-0.32-0.62-0.46c0.07,0.05,0.11,0.07,0.17,0.11
				c-1.92-1.56-3.74-3.25-5.44-5.06c-0.82-0.87-1.62-1.78-2.39-2.7c-0.33-0.39-0.63-0.82-0.97-1.2c1.47,1.64,0.04,0.02-0.29-0.45
				c-1.44-2.03-2.75-4.15-3.92-6.35c-0.56-1.06-1.09-2.14-1.58-3.24c-0.03-0.07-0.05-0.11-0.08-0.17c-0.01-0.02-0.01-0.04-0.02-0.06
				c-0.24-0.64-0.49-1.28-0.72-1.93c-0.68-1.88-1.39-3.78-2.79-5.26c0.24-0.64,0.46-1.28,0.7-1.92c0.29-0.76,0.58-1.51,0.88-2.26
				c0.17-0.43,0.34-0.86,0.52-1.29c0,0,0.35-0.83,0.47-1.13c2.88-6.77,6.21-13.35,9.96-19.67c1.92-3.24,3.96-6.41,6.11-9.51
				c2.33-3.36,4-5.58,6.25-8.34c5.36-6.58,11.15-12.93,17.49-18.58c5.66-5.04,12.8-10,19.88-12.48c1.61-0.56,3.26-1.02,4.92-1.42
				c-0.3,0.59-0.61,1.17-0.89,1.77c-5.57,11.81-8.21,26.7,1.36,37.27c11.77,13,33.85,10.28,42.95-4.32
				c9.32-14.95,0.78-33.42-12.26-42.82c-1.39-1-2.82-1.87-4.3-2.64c2.36-2,4.19-3.4,6.85-5.27c3.12-2.19,6.34-4.24,9.65-6.13
				c3.26-1.86,6.6-3.56,10.02-5.11c2.21-1,2.12-0.96,4.13-1.75c1.72-0.68,3.47-1.32,5.22-1.93c7.01-2.42,14.21-4.24,21.51-5.52
				c1.75-0.31,3.5-0.58,5.26-0.83c0.34-0.04,1.72-0.22,1.88-0.23c1.04-0.12,2.09-0.23,3.13-0.34c3.73-0.36,7.47-0.6,11.22-0.73
				c7.57-0.25,15.15-0.05,22.7,0.54c3.8,0.29,7.6,0.68,11.39,1.16c0.23,0.03,1.59,0.21,1.61,0.21c0.86,0.12,1.72,0.24,2.58,0.37
				c2.01,0.3,4.02,0.62,6.02,0.97c16.5,2.84,32.49,7.99,49.03,10.58c9.77,1.53,19.59,2.46,29.45,2.87
				c-0.65,0.57-1.31,1.15-1.96,1.72c-4.8,4.21-9.59,8.42-14.39,12.63c-3.15,2.76-3.03,8.49,0,11.28c3.35,3.08,7.92,2.94,11.28,0
				c8.35-7.33,16.71-14.66,25.06-21.99c1.31-1.15,2.66-2.32,3.73-3.65c1.55-0.06,3.11-0.12,4.66-0.2
				c19.58-1.07,39.04-3.84,58.32-7.34c9.82-1.78,19.6-3.76,29.37-5.81c8.06-1.69,14.21-3.02,22.61-2.43
				c2.58,0.18,5.75,0.86,9.21,2.07c0.14,0.05,0.25,0.09,0.35,0.12c0.44,0.19,0.88,0.41,1.32,0.62c0.89,0.44,1.75,0.92,2.6,1.44
				c1.92,1.17,2.67,1.76,4.26,3.17c2.8,2.48,7.04,2.76,9.8,0c2.53-2.53,2.81-7.3,0-9.8c-7.29-6.47-15.76-10.18-25.42-11.29
				c-8.5-0.98-17.18,0.41-25.49,2.11C518.31,87,498.13,91.19,478.3,93.7c-11.23,1.42-22.53,2.39-33.85,2.78
				c-0.78-0.74-1.6-1.45-2.41-2.19c-4.05-3.69-8.1-7.38-12.14-11.07c-4.7-4.28-9.39-8.56-14.09-12.84c-3.08-2.81-8.27-3.27-11.28,0
				c-2.81,3.06-3.29,8.28,0,11.28c5.1,4.65,10.2,9.29,15.3,13.94c0.27,0.24,0.53,0.49,0.8,0.73c-0.8-0.04-1.6-0.06-2.41-0.11
				c-9.78-0.57-19.09-1.65-28.64-3.49c-8.9-1.72-17.6-4.27-26.44-6.26c-31.59-7.13-65.01-9.93-96.8-2.38
				c-15.66,3.72-30.85,10.15-44.14,19.26c-6.05,4.15-11.91,8.72-17,13.96c-11.37-0.5-23.22,3.32-32.63,9.17
				c-15.29,9.5-27.87,23.99-38.15,38.6c-9.26,13.17-16.4,27.74-21.74,42.92c-0.08,0.23-0.15,0.46-0.23,0.69
				c-1.36,0.88-2.69,1.81-3.96,2.59c-2.63,1.61-5.26,3.22-7.89,4.83c-6.2,3.8-12.4,7.6-18.59,11.39c-3.55,2.18-5.23,7.24-2.86,10.91
				c2.3,3.57,7.1,5.19,10.91,2.86c5.31-3.25,10.62-6.5,15.92-9.76c-5.22,23.24-6.82,47.36-6.58,71.08
				c0.31,31.82,3.98,63.46,7.65,95.03c4.75,40.85,10.85,81.47,17.69,122.02c1.7,10.09,3.43,20.17,5.17,30.25
				C130.55,553.59,135.08,555.66,138.44,554.74z M571.05,96.68C571.86,96.97,571.32,96.79,571.05,96.68L571.05,96.68z
				 M223.09,140.59c0.15,0.2,0.36,0.47,0.4,0.54c0.55,0.77,1.06,1.57,1.54,2.38c0.42,0.72,0.78,1.47,1.17,2.21
				c0.04,0.08,0.12,0.26,0.19,0.41c0.07,0.17,0.14,0.34,0.19,0.51c0.26,0.78,0.52,1.55,0.73,2.34c0.1,0.39,0.19,0.79,0.28,1.19
				c0.05,0.21,0.09,0.42,0.11,0.57c0.12,1.38,0.04,2.72,0.02,4.1c-0.01,0.02-0.01,0.02-0.02,0.03c-0.14,0.37-0.17,0.8-0.27,1.19
				c-0.08,0.3-0.73,2.06-0.6,1.86c-0.32,0.67-0.67,1.32-1.07,1.95c-0.2,0.32-0.41,0.62-0.62,0.93c-0.02,0.02-0.03,0.03-0.05,0.05
				c-0.58,0.66-1.2,1.25-1.83,1.85c-0.08,0.07-0.12,0.11-0.15,0.15c-0.43,0.31-0.88,0.61-1.33,0.88c-0.64,0.39-1.31,0.74-1.99,1.05
				c0.03-0.06-1.54,0.5-1.75,0.56c-0.32,0.09-0.63,0.16-0.95,0.23c-0.09,0.02-0.46,0.09-0.71,0.14c-0.25,0.03-0.59,0.07-0.67,0.07
				c-0.54,0.03-1.08,0.05-1.63,0.04c-0.43-0.01-0.86-0.04-1.3-0.07c0.3,0.01,1.27,0.29-0.09-0.01c-0.85-0.19-1.68-0.41-2.52-0.66
				c-0.03-0.01-0.18-0.06-0.32-0.11c-0.21-0.09-0.48-0.2-0.56-0.24c-0.75-0.37-1.5-0.76-2.21-1.21c-0.42-0.27-1.89-1.61-0.71-0.44
				c-0.47-0.46-0.99-0.87-1.45-1.35c-0.12-0.13-0.57-0.68-0.77-0.92c-0.02-0.03-0.04-0.06-0.05-0.08c-0.2-0.33-0.41-0.65-0.6-0.99
				c-0.3-0.54-0.73-2.15-0.27-0.41c-0.16-0.58-0.41-1.15-0.57-1.74c-0.14-0.52-0.24-1.04-0.36-1.57c-0.01-0.03-0.01-0.07-0.02-0.12
				c-0.02-0.23-0.04-0.5-0.05-0.59c-0.08-1.28-0.06-2.57,0.05-3.85c0.02-0.19,0.04-0.37,0.06-0.56c0.14-0.68,0.24-1.37,0.39-2.05
				c0.3-1.35,0.68-2.68,1.11-3.99c0.19-0.58,0.4-1.16,0.61-1.73c0.12-0.33,0.27-0.65,0.38-0.98c0.01-0.01,0-0.01,0.01-0.03
				c0.01-0.01,0.01-0.01,0.01-0.03c1.18-2.56,2.47-5.04,3.97-7.42c0.55-0.87,1.14-1.7,1.73-2.54c0.69,0.19,1.4,0.41,2.15,0.67
				c0.38,0.13,0.76,0.27,1.13,0.42c0.06,0.03,0.1,0.05,0.18,0.09c0.63,0.34,1.26,0.64,1.88,1c0.71,0.41,1.4,0.86,2.08,1.32
				c0.07,0.04,0.3,0.21,0.49,0.35c0.24,0.2,0.84,0.69,0.82,0.67c1.19,1.03,2.31,2.16,3.34,3.35
				C222.68,140.1,222.93,140.4,223.09,140.59z"/>
			<path class="st3" d="M564.06,455.16c-0.09,0.01-0.18,0.01-0.27,0.01c-0.01,0-0.03,0.01-0.05,0.01
				C563.83,455.27,564.01,455.21,564.06,455.16z"/>
			<path class="st3" d="M627.06,319.49c-4.69-5.48-9.25-11.08-13.75-16.72c-2.34-2.93-4.67-5.88-6.98-8.85
				c-0.25-0.33-0.51-0.66-0.76-0.98c-0.06-0.08-0.12-0.15-0.17-0.22c-0.55-0.72-1.11-1.44-1.66-2.16c-0.25-0.33-0.5-0.66-0.75-1
				c0.18-16.88,1.12-33.74,2.46-50.57c2.72-33.98,9.62-68.2,4.5-102.29c-1.21-8.05-3.2-15.95-6.04-23.59
				c-1.31-3.51-4.69-5.89-8.52-4.84c-3.37,0.93-6.15,5-4.84,8.52c12.15,32.63,6.6,67.9,2.93,101.99
				c-2.43,22.59-4.23,45.46-4.44,68.3c-11.49,7.61-22.98,15.22-34.47,22.84c-2.6,1.73-3.96,5.36-2.15,8.18
				c1.67,2.6,5.39,3.99,8.18,2.15c9.51-6.3,19.01-12.6,28.52-18.89c0.22,9.93,0.76,19.83,1.74,29.69
				c0.93,9.37,2.11,18.72,3.16,28.07c0.9,8.01,2.06,16.12,1.53,24.2c-0.05,0.8-0.13,1.59-0.2,2.39c-0.01,0.13-0.02,0.22-0.03,0.31
				c-0.06,0.41-0.12,0.81-0.19,1.21c-0.31,1.76-0.71,3.51-1.22,5.23c-0.22,0.74-0.47,1.48-0.73,2.21c-0.03,0.08-0.18,0.48-0.27,0.73
				c-0.11,0.25-0.26,0.61-0.3,0.68c-0.75,1.62-1.63,3.17-2.62,4.65c-0.12,0.18-0.85,1.15-0.92,1.28c-0.52,0.64-1.07,1.26-1.64,1.85
				c-0.57,0.6-1.17,1.17-1.78,1.72c-1,0.9-1.13,1.01-1.74,1.45c-1.45,1.02-2.95,1.96-4.51,2.81c-0.89,0.49-1.81,0.94-2.73,1.37
				c-1.04,0.49-1.11,0.53-1.87,0.83c-15.23,6.03-34.3,7.41-44.77,21.58c-4.98,6.73-6.28,15.98-3.47,23.87
				c2.37,6.67,6.81,12.11,12.19,16.56c-1.32,4.92-2.56,9.86-4.31,14.64c-0.09,0.24-0.18,0.49-0.28,0.73
				c-0.01,0.02-0.02,0.03-0.03,0.05c-0.79,1.47-1.57,2.92-2.48,4.32c-1.07,1.64-1.47,2.16-2.45,3.31c-1.28,1.5-2.64,2.93-4.07,4.28
				c-5.35,5.07-11.73,8.93-18.88,12.41c-7.8,3.79-15.8,6.67-23.9,10.03c-8.18,3.39-16.16,7.18-23.98,11.35
				c-14.79,7.89-29.02,16.77-43.91,24.47c-1.46,0.75-2.92,1.47-4.38,2.19c-8.38-5.58-17.75-9.78-26.69-14.29
				c-2.79-1.41-6.61-0.83-8.18,2.15c-1.44,2.72-0.84,6.68,2.15,8.18c6.44,3.25,13.11,6.34,19.47,9.9
				c-9.34,3.77-18.95,6.76-29.18,8.83c-16.57,3.35-34.01,4.12-51.28,2.76c-16.76-1.32-33.47-5.3-49.99-10.12
				c-16.75-4.88-33.39-10.34-50.59-13.44c-9.06-1.64-18.28-2.72-27.5-2.75c-9.65-0.03-19.26,1.07-28.79,2.55
				c-8.92,1.38-17.76,3.19-26.61,4.94c-3.67,0.73-5.78,5.1-4.84,8.52c1.05,3.83,4.84,5.57,8.52,4.84
				c17.47-3.46,34.74-7.17,52.61-6.99c16.85,0.17,32.99,3.95,49.37,8.59c16.38,4.64,32.57,10.09,49.25,13.61
				c16.87,3.56,34.22,5.23,51.45,4.62c17.2-0.6,34.47-3.35,50.85-8.69c2.32-0.75,4.61-1.58,6.89-2.43c-2.13,5.26-4.13,10.58-6,15.94
				c-1.03,2.96,1.17,6.67,4.18,7.36c3.34,0.76,6.25-1.01,7.36-4.18c1.87-5.35,3.86-10.66,5.99-15.91c0.23-0.57,0.47-1.14,0.7-1.71
				c0.16-0.38,0.31-0.76,0.47-1.14c0.09-0.22,0.15-0.35,0.19-0.45c0.04-0.09,0.09-0.22,0.16-0.37c0.16-0.37,0.32-0.75,0.48-1.12
				c0.24-0.56,0.48-1.11,0.73-1.67c0.51-1.17,1.06-2.32,1.58-3.48c7.57-3.59,14.97-7.56,22.27-11.67
				c14.24-8.02,28.23-16.53,43.03-23.5c14.99-7.06,31.6-11.67,45.72-20.88c11.19-7.3,20.83-17.21,24.86-30.18
				c0.84-2.71,1.58-5.45,2.31-8.19c3.45,1.37,7.07,2.27,10.82,2.51c8.32,0.54,16.31-3.43,20.62-10.61
				c4.32-7.18,3.87-16.45-1.12-23.17c-4.18-5.63-11.05-9.49-18.21-8.85c-10.22,0.91-15.93,9.45-19.62,18.14
				c-0.2-0.23-0.41-0.46-0.61-0.69c0.01-0.01-0.68-0.89-0.84-1.12c-0.39-0.57-0.76-1.16-1.1-1.76c-0.17-0.29-0.8-1.56-0.82-1.53
				c-0.35-0.86-0.63-1.77-0.85-2.67c-0.09-0.35-0.15-0.7-0.23-1.05c-0.02-0.07-0.03-0.13-0.04-0.18c0-0.02,0-0.04,0-0.07
				c-0.07-0.81-0.09-1.61-0.06-2.42c0.01-0.36,0.04-0.73,0.08-1.09c0.02-0.11,0.06-0.28,0.11-0.46c0.22-0.8,0.42-1.6,0.71-2.38
				c0.03,0.03,0.61-1.18,0.74-1.4c0.85-1.46,1.25-1.95,2.8-3.39c2.09-1.94,5.49-3.91,8.74-5.3c0.07-0.02,0.69-0.27,0.71-0.28
				c0.48-0.18,0.96-0.37,1.45-0.54c0.85-0.31,1.7-0.6,2.56-0.88c1.8-0.59,3.63-1.14,5.45-1.67c3.7-1.09,7.42-2.13,11.08-3.36
				c7.9-2.64,15.5-6.07,21.8-11.63c5.65-5,9.63-11.7,11.89-18.85c4.86-15.34,1.47-32.07-0.34-47.62
				c-1.55-13.29-2.85-26.52-3.43-39.83c5,6.29,10.09,12.51,15.31,18.6c2.04,2.38,6.39,2.25,8.46,0
				C629.39,325.41,629.24,322.03,627.06,319.49z M563.69,455.18c-0.05,0.05-0.31,0.04-0.44,0.03c0-0.01,0.02-0.02,0.02-0.02
				c0.05,0,0.12,0,0.22,0C563.55,455.19,563.62,455.18,563.69,455.18z M560.11,457.76c0.02,0.01-0.14,0.21-0.3,0.4
				C559.96,457.93,560.09,457.75,560.11,457.76z M556,465.32c0.09-0.23,0.18-0.46,0.27-0.69c1-1.93,1.84-3.89,3.04-5.72
				c0.05-0.08,0.28-0.43,0.47-0.73c0.11-0.13,0.22-0.27,0.33-0.4c0.29-0.33,0.58-0.65,0.89-0.96c0.22-0.22,1.52-1.58,0.65-0.66
				c-0.76,0.8,0.08-0.05,0.44-0.27c0.28-0.17,0.61-0.31,0.89-0.49c0.2-0.05,0.4-0.11,0.6-0.17c0.06-0.02,0.1-0.03,0.14-0.04
				c0,0-0.01-0.01-0.01-0.01c0.02,0,0.04,0,0.06,0c0.25-0.07,0.31-0.05,0.27-0.01c0.05,0,0.1-0.01,0.15-0.01
				c0.32-0.01,0.64,0.02,0.96,0.04c0.1,0.01,0.19,0.03,0.28,0.05c0.27,0.08,0.55,0.13,0.82,0.21c0.11,0.03,0.56,0.2,0.83,0.29
				c0.15,0.07,0.31,0.15,0.33,0.17c0.28,0.18,0.57,0.34,0.85,0.52c-0.23-0.11,0.89,0.74,1.11,0.96c0.07,0.07,0.39,0.43,0.57,0.61
				c0.09,0.12,0.19,0.25,0.2,0.27c0.23,0.37,0.44,0.76,0.67,1.12c0.08,0.13,0.14,0.22,0.19,0.28c0.01,0.03,0.02,0.07,0.04,0.15
				c0.21,0.6,0.38,1.2,0.51,1.82c-0.08-0.22,0.05,1.11,0.06,1.46c0,0.1,0.01,0.15,0.01,0.2c-0.05,0.29-0.11,0.57-0.19,0.86
				c-0.08,0.31-0.18,0.62-0.29,0.93c-0.06,0.15-0.22,0.52-0.34,0.74c-0.12,0.22-0.8,1.23-0.8,1.3c-0.42,0.49-0.88,0.94-1.35,1.38
				c-0.05,0.04-0.06,0.06-0.09,0.09c-0.02,0.01-0.02,0.01-0.05,0.03c-0.27,0.18-0.54,0.36-0.82,0.52c-0.29,0.17-0.59,0.33-0.9,0.48
				c-0.1,0.03-0.26,0.08-0.43,0.11c-0.27,0.06-1.76,0.32-1.65,0.36c-0.55,0.04-1.09,0.08-1.64,0.08c-0.59,0-1.17-0.05-1.76-0.1
				c-0.12-0.05-1.44-0.26-1.75-0.33c-1.35-0.32-3.6-1.09-4.2-1.35c-0.09-0.04-0.25-0.12-0.42-0.2c0.15-0.44,0.3-0.89,0.46-1.33
				C555.6,466.34,555.8,465.83,556,465.32z M595.29,386.27C595.26,386.6,595.27,386.48,595.29,386.27L595.29,386.27z M605.35,292.65
				C605.16,292.42,605.1,292.33,605.35,292.65L605.35,292.65z"/>
			<path class="st3" d="M145.35,235.13c0.01,0.01,0.02,0.01,0.02,0.02C145.76,235.46,146.73,236.03,145.35,235.13z"/>
		</g>
		<path class="st10" d="M624.63,107.54c0,20.41-16.55,36.96-36.96,36.96s-37.53-15.97-37.53-36.38s17.12-37.53,37.53-37.53
			S624.63,87.13,624.63,107.54z"/>
		<circle class="st10" cx="137.85" cy="557.35" r="36.96"/>
		<g>
			<g>
				<path class="st3" d="M503.65,236.12c11.6-8.24,23.81-15.55,35.21-24.09c-3.66-1.49-7.33-2.98-10.99-4.47
					c0.79,2.96,1.46,5.97,2.53,8.84c1.73,4.63,3.94,9.1,6,13.59c2.39,5.19,4.76,10.38,7.11,15.59c0.73,1.61,2.84,2.99,4.47,3.44
					c1.79,0.49,4.18,0.27,5.76-0.75c1.6-1.03,3-2.56,3.44-4.47c0.47-2.08,0.12-3.83-0.75-5.76c-3.84-8.49-7.95-16.89-11.58-25.47
					c0.25,0.6,0.5,1.19,0.75,1.79c-1.47-3.48-2.33-7.12-3.3-10.76c-0.6-2.26-2.22-3.96-4.33-4.85c-1.99-0.84-4.81-1.01-6.66,0.38
					c-11.39,8.54-23.61,15.84-35.21,24.09c-1.62,1.15-2.89,2.49-3.44,4.47c-0.49,1.79-0.27,4.18,0.75,5.76
					C495.45,236.59,500.23,238.55,503.65,236.12L503.65,236.12z"/>
			</g>
		</g>
		<g>
			<g>
				<path class="st3" d="M199.73,474.06c16.23,0.37,32.51-1.22,48.4-4.54c-3.55-3.55-7.1-7.1-10.65-10.65
					c-2.7,16.59-3.22,33.38-0.99,50.06c0.32,2.39,0.76,4.34,2.54,6.12c1.5,1.5,3.97,2.63,6.12,2.54c2.24-0.1,4.56-0.84,6.12-2.54
					c1.43-1.56,2.83-3.91,2.54-6.12c-1.9-14.25-1.91-28.71-0.03-42.96c-0.1,0.77-0.21,1.54-0.31,2.3c0.22-1.6,0.45-3.2,0.71-4.79
					c0.51-3.14,0.14-6.06-2.23-8.43c-2.29-2.29-5.35-2.87-8.43-2.23c-4.78,1-9.6,1.82-14.44,2.48c0.77-0.1,1.54-0.21,2.3-0.31
					c-10.49,1.4-21.08,1.99-31.66,1.75c-4.53-0.1-8.87,4.06-8.66,8.66C191.29,470.18,194.88,473.95,199.73,474.06L199.73,474.06z"/>
			</g>
		</g>
		<path class="st3" d="M307.55,204.24c-0.09,0.07-0.1,0.59-0.05,1.5c0.55,9.94,8.46,67.03,0.05,110.89
			c-8.36,43.6-27.92,84.38-54.32,119.89c-26.02,35-58.13,65.37-93.19,91.17c2.7,3.6,5.48,7.12,8.26,10.66
			c0.52,0.66,39.84-33.25,43.89-36.76c5.35-4.64,10.76-9.21,16.08-13.9c9.85-8.68,19.43-17.69,28.37-27.33
			c30.41-32.8,48.55-73.36,61.71-115.69c0.01-0.04,0.02-0.08,0.04-0.12c5.88-18.92,10.45-38.35,12.36-58.1
			c4.02-41.49,10.82-100.96-3.55-112.22c-14.37-11.26-22.52-5.65-22.52-5.65L307.55,204.24z"/>
		<path class="st3" d="M470.26,212.69c-3.58-8.66-8.44-16.75-14.61-23.8c-12.48-14.27-30.46-23.99-49.39-25.08
			c-13.88-0.8-28.36,3.26-38.53,12.74c-7.42,6.92-12.18,16.24-15.62,25.79c-6.44,17.87-8.72,36.95-10.23,55.89
			c-2.18,27.42-2.84,54.95-1.97,82.44c-23.36-1.66-47.45-11.8-59.73-31.74c-6.93-11.25-9.6-24.79-9.04-37.99
			c1.12-26.75,15.72-52.6,38.05-67.38c4.74-3.13,9.86-5.85,13.73-10.01c3.87-4.16,6.29-10.28,4.27-15.59
			c-3.02-7.94-12.91-9.14-20.27-9.01c-1.69,0.03-3.84-0.19-5.43,0.45c-1.98,0.8-3.81,2.87-5.43,4.23
			c-3.85,3.23-7.6,6.58-11.23,10.06c-14.38,13.78-27,29.76-35.14,48.04c-1.5,3.37-2.84,6.8-4.01,10.3
			c-9.88,29.47-5.92,64.86,15.54,87.36c18.13,19.01,44.57,25.75,69.74,29.14c2.93,0.39,5.87,0.74,8.81,1.1
			c-2.57,15.3-5.14,30.61-6.3,46.1c-0.6,8-0.91,16.03-0.9,24.05c0.01,7.9,0.99,15.8,0.99,23.67c0.02,0.27,0.01,0.67,0.08,0.94
			c-0.03-0.11-18.42,5.02-20.06,5.54c-22.47,7.17-42.44,31-33.77,55.37c4.74,13.32,17.35,22.43,30.89,25.28
			c22.99,4.85,57.33-0.77,63.8-27.82c0.12-0.49,0.22-0.98,0.31-1.48c1.27-7.01-0.24-14.24-2.51-21c-2.7-8.05-5.99-15.83-8.25-24.04
			c-8.23-29.97-6.94-61.63-4.71-92.3c0.35-4.77,0.73-9.53,1.1-14.3c0.01-0.15,0.03-0.32,0.15-0.41c0.1-0.08,0.24-0.09,0.37-0.09
			c6.15,0.05,12.26,0.16,18.4-0.4c6.56-0.61,13.07-1.82,19.42-3.6c12.69-3.56,24.76-9.38,35.39-17.18
			c4.46-3.27,8.67-6.9,12.56-10.84c22.19-22.5,33.68-55.14,30.46-86.59C476.23,231,473.92,221.55,470.26,212.69z M341.6,501.31
			c-1.97,10.01-9.37,18.79-18.9,22.43c-15.58,5.96-20.96-15.47-20.51-26.96c0.33-8.62,5.18-15.87,11.54-21.37
			c3.26-2.82,6.86-5.22,10.58-7.39c3.01-1.76,7.74-5.33,11.2-5.63c2.33,6,3.87,12.83,5.25,19.12
			C342.18,488,342.9,494.74,341.6,501.31z M446.74,243.79c-0.1,1.76-0.24,3.52-0.44,5.26c-2.47,22.18-12,43.58-27.18,59.94
			c-15.18,16.35-35.97,27.5-58.06,30.64c-0.42-29.91,0.45-59.83,2.61-89.66c0.81-11.25,1.83-22.58,5.12-33.36
			c2.9-9.52,7.71-18.71,15.01-25.6c0.79-0.75,1.61-1.63,2.62-2.07c0.82-0.36,1.71-0.54,2.54-0.91c2.32-1.04,4.76-1.65,7.3-1.82
			c5.25-0.35,10.52,0.95,15.36,2.88c1.03,0.41,2.04,0.85,3.04,1.31c11.11,5.2,21.29,13.23,26.87,24.15
			C446.09,223.47,447.29,233.72,446.74,243.79z"/>
		<path class="st3" d="M344.67,451.94c0.79-1.56,2.24-2.73,3.65-3.82c22.4-17.32,48.28-29.77,72.47-44.37
			c23.52-14.2,48.16-30.27,66.53-50.96c2.02-2.28,3.97-4.62,5.82-7.03c12.84-16.73,18.99-37.26,21.16-58.04
			c1.79-17.09,0.79-34.29,3.86-51.36c3.24-18.03,9.42-35.53,18.33-51.54c9.28-16.68,21.37-31.66,34.44-45.58
			c2.18-2.32,4.91-4.81,8.07-4.36c3.35,0.48,5.27,3.99,6.65,7.08c-20.57,17.77-38.79,39.68-45.95,65.9
			c-6.37,23.35-3.51,48.14-6.27,72.19c-3.46,30.12-15.92,56.96-36.57,79.16c-16.78,18.03-37.12,32.34-57.86,45.64
			c-28.7,18.4-58.34,35.27-88.25,51.63c-1.44,0.79-3.13,1.6-4.66,0.99c-1.82-0.72-2.38-3.2-1.66-5.02
			C344.52,452.28,344.59,452.11,344.67,451.94z"/>
	</g>
</g>
<g id="Layer_3">
</g>
</svg>
